<svg width="137" height="87" fill="none" xmlns="http://www.w3.org/2000/svg"><path d="M27.25 57.75v-55" stroke="#BB8A52" stroke-width="4.125" stroke-linecap="round"/><path d="M43.75 52.25v-44" stroke="#6D9773" stroke-width="4.125" stroke-linecap="round"/><path d="M60.25 54.313V6.187" stroke="#FFBA00" stroke-width="4.125" stroke-linecap="round"/><path d="M76.75 47.438V13.062" stroke="#6D9773" stroke-width="4.125" stroke-linecap="round"/><path d="M93.25 57.75v-55" stroke="#BB8A52" stroke-width="4.125" stroke-linecap="round"/><path d="M109.75 55V5.5" stroke="#0C3E2E" stroke-width="4.125" stroke-linecap="round"/><path d="M5.934 82.518c-.906 0-1.698-.131-2.377-.393-.674-.268-1.24-.61-1.698-1.028a5.064 5.064 0 01-1.046-1.332l1.841-1.25c.143.327.352.643.626.947.274.297.634.545 1.081.741.447.191 1.001.286 1.662.286.638 0 1.16-.095 1.564-.286.406-.19.704-.44.894-.75a1.9 1.9 0 00.286-1.01c0-.453-.125-.802-.375-1.046-.25-.25-.578-.423-.983-.518a5.97 5.97 0 00-1.296-.17l-.903-.027a14.632 14.632 0 00-.366-.009h-.17v-2.038h.822c.173-.006.313-.012.42-.018.68-.03 1.236-.187 1.671-.473.441-.286.662-.71.662-1.27 0-.542-.206-.968-.617-1.277-.405-.31-.944-.465-1.618-.465-.631 0-1.188.14-1.67.42-.478.28-.838.61-1.082.992l-1.51-1.537c.434-.53 1.024-.978 1.769-1.341.75-.37 1.603-.554 2.556-.554.56 0 1.105.074 1.636.223.53.143 1.007.364 1.43.662.423.298.76.679 1.01 1.144.25.464.375 1.019.375 1.662 0 .59-.113 1.135-.34 1.636-.22.494-.53.9-.93 1.215.567.227 1.005.572 1.315 1.037.315.465.473 1.052.473 1.76 0 .835-.226 1.556-.679 2.163-.453.608-1.067 1.079-1.841 1.413-.769.327-1.633.491-2.592.491zm11.438 0c-.977 0-1.835-.211-2.573-.634a4.52 4.52 0 01-1.734-1.761c-.412-.75-.617-1.615-.617-2.592 0-1.055.202-1.97.608-2.744a4.438 4.438 0 011.689-1.814c.72-.43 1.555-.644 2.502-.644 1.001 0 1.85.236 2.547.706.704.465 1.225 1.124 1.565 1.976.34.852.467 1.856.384 3.012h-2.136v-.787c-.006-1.049-.19-1.814-.554-2.297-.364-.482-.936-.724-1.716-.724-.882 0-1.537.274-1.966.822-.43.543-.644 1.338-.644 2.387 0 .977.214 1.734.643 2.27.43.536 1.055.804 1.877.804.53 0 .986-.116 1.368-.348.387-.239.685-.581.894-1.028l2.127.643a4.312 4.312 0 01-1.716 2.03 4.695 4.695 0 01-2.548.723zm-3.324-4.495v-1.627h6.64v1.627h-6.64zm8.795 4.227v-1.805c.352.065.623.06.814-.018.19-.084.333-.239.429-.465a4.66 4.66 0 00.25-.903c.095-.53.179-1.14.25-1.832.078-.691.143-1.43.197-2.216.06-.787.113-1.591.16-2.413h7.106v9.652h-2.145v-7.633h-3.066a140.697 140.697 0 01-.24 2.753 37.96 37.96 0 01-.162 1.394c-.053.435-.11.808-.17 1.118-.137.697-.333 1.248-.59 1.653a1.68 1.68 0 01-1.054.778c-.453.119-1.046.098-1.779-.063zm16.105.268c-.977 0-1.835-.211-2.574-.634a4.52 4.52 0 01-1.734-1.761c-.41-.75-.616-1.615-.616-2.592 0-1.055.202-1.97.607-2.744a4.44 4.44 0 011.69-1.814c.72-.43 1.555-.644 2.502-.644 1.001 0 1.85.236 2.547.706.703.465 1.225 1.124 1.564 1.976.34.852.468 1.856.385 3.012h-2.137v-.787c-.005-1.049-.19-1.814-.554-2.297-.363-.482-.935-.724-1.716-.724-.881 0-1.537.274-1.966.822-.429.543-.643 1.338-.643 2.387 0 .977.214 1.734.643 2.27.43.536 1.055.804 1.877.804.53 0 .986-.116 1.367-.348.388-.239.686-.581.894-1.028l2.127.643a4.311 4.311 0 01-1.716 2.03 4.694 4.694 0 01-2.547.723zm-3.325-4.495v-1.627h6.641v1.627h-6.64zm9.672 4.227v-9.653h2.154v3.808h4.334v-3.808h2.154v9.653h-2.154v-3.825H47.45v3.825h-2.154zm13.836.268c-.697 0-1.287-.131-1.77-.393a2.781 2.781 0 01-1.098-1.064 2.955 2.955 0 01-.367-1.457c0-.464.078-.881.232-1.25.155-.376.394-.698.715-.966.322-.274.74-.498 1.252-.67.387-.125.84-.239 1.358-.34a31.5 31.5 0 011.698-.277c.614-.09 1.255-.185 1.922-.286l-.769.438c.006-.667-.143-1.159-.447-1.475-.303-.316-.816-.473-1.537-.473-.435 0-.855.1-1.26.303-.405.203-.688.552-.85 1.046l-1.965-.617a3.653 3.653 0 011.358-1.966c.673-.494 1.58-.742 2.717-.742.858 0 1.612.14 2.261.42a2.81 2.81 0 011.457 1.377c.173.34.277.688.313 1.045.036.352.053.736.053 1.153v5.926H62.52v-2.091l.313.34c-.435.696-.945 1.209-1.529 1.537-.578.321-1.302.482-2.172.482zm.43-1.716c.488 0 .905-.086 1.25-.26.346-.172.62-.383.823-.634.209-.25.349-.485.42-.706.113-.274.176-.587.188-.938.018-.358.027-.647.027-.867l.66.197c-.649.1-1.206.19-1.67.268-.465.077-.864.152-1.198.223-.334.066-.629.14-.885.224-.25.089-.462.193-.635.312-.172.12-.306.257-.402.412a1.071 1.071 0 00-.134.545c0 .238.06.45.179.634.12.179.292.322.518.43.233.107.519.16.858.16zm10.731 1.448v-9.653h8.383v9.653h-2.154v-7.633h-4.075v7.633h-2.154zm13.592.268c-.697 0-1.287-.131-1.77-.393a2.78 2.78 0 01-1.099-1.064 2.955 2.955 0 01-.366-1.457c0-.464.077-.881.232-1.25.155-.376.393-.698.715-.966.322-.274.739-.498 1.251-.67.388-.125.84-.239 1.359-.34a31.5 31.5 0 011.698-.277c.614-.09 1.254-.185 1.922-.286l-.77.438c.007-.667-.142-1.159-.446-1.475-.304-.316-.816-.473-1.537-.473-.435 0-.855.1-1.26.303-.406.203-.689.552-.85 1.046l-1.966-.617a3.653 3.653 0 011.359-1.966c.673-.494 1.579-.742 2.717-.742.858 0 1.612.14 2.261.42.655.28 1.141.74 1.457 1.377.173.34.277.688.313 1.045.035.352.053.736.053 1.153v5.926h-1.886v-2.091l.313.34c-.435.696-.944 1.209-1.528 1.537-.578.321-1.302.482-2.172.482zm.43-1.716c.488 0 .905-.086 1.25-.26.346-.172.62-.383.823-.634.208-.25.348-.485.42-.706.113-.274.175-.587.187-.938.018-.358.027-.647.027-.867l.662.197c-.65.1-1.207.19-1.672.268-.465.077-.864.152-1.197.223-.334.066-.629.14-.885.224-.25.089-.462.193-.635.312-.173.12-.307.257-.402.412-.09.154-.134.336-.134.545 0 .238.06.45.179.634.119.179.292.322.518.43.233.107.519.16.858.16zm6.276 1.448v-1.805c.352.065.623.06.814-.018.19-.084.333-.239.429-.465a4.66 4.66 0 00.25-.903c.095-.53.179-1.14.25-1.832.078-.691.143-1.43.197-2.216.06-.787.113-1.591.16-2.413h7.106v9.652H97.65v-7.633h-3.066a140.953 140.953 0 01-.241 2.753c-.048.489-.101.953-.16 1.394a18.62 18.62 0 01-.17 1.118c-.138.697-.334 1.248-.59 1.653-.25.405-.602.664-1.055.778-.453.119-1.046.098-1.779-.063zm11.896-11.118v-1.975h2.153v1.975h-2.153zm0 11.118v-9.653h2.153v9.653h-2.153zm7.253 0v-7.74h-3.227v-1.913h8.607v1.913h-3.226v7.74h-2.154zm11.712.268c-.941 0-1.731-.223-2.368-.67-.638-.447-1.117-1.055-1.439-1.823-.322-.775-.483-1.642-.483-2.601 0-.972.161-1.841.483-2.61.322-.769.792-1.373 1.412-1.814.626-.447 1.397-.67 2.315-.67.912 0 1.701.223 2.368.67.674.44 1.195 1.045 1.564 1.814.37.763.555 1.633.555 2.61 0 .965-.182 1.832-.546 2.6-.363.77-.876 1.377-1.537 1.824-.661.447-1.436.67-2.324.67zm-4.656 4.022V72.597h1.904v6.775h.268v7.168h-2.172zm4.326-5.952c.56 0 1.022-.14 1.385-.42.363-.28.632-.659.804-1.136a4.597 4.597 0 00.268-1.608c0-.584-.089-1.115-.268-1.591a2.437 2.437 0 00-.831-1.144c-.375-.286-.852-.43-1.43-.43-.548 0-.995.135-1.34.403-.346.262-.602.632-.769 1.108-.161.471-.241 1.022-.241 1.654 0 .625.08 1.176.241 1.653.167.477.426.85.777 1.117.358.263.826.394 1.404.394zm9.406 1.93c-.697 0-1.287-.131-1.77-.393a2.776 2.776 0 01-1.099-1.064 2.948 2.948 0 01-.367-1.457c0-.464.078-.881.233-1.25.155-.376.393-.698.715-.966.321-.274.738-.498 1.251-.67.387-.125.84-.239 1.358-.34a31.805 31.805 0 011.699-.277c.613-.09 1.254-.185 1.921-.286l-.769.438c.006-.667-.143-1.159-.446-1.475-.304-.316-.817-.473-1.538-.473-.435 0-.855.1-1.26.303-.405.203-.688.552-.849 1.046l-1.966-.617a3.652 3.652 0 011.358-1.966c.674-.494 1.579-.742 2.717-.742.858 0 1.612.14 2.262.42.655.28 1.141.74 1.456 1.377.173.34.277.688.313 1.045.036.352.054.736.054 1.153v5.926h-1.886v-2.091l.313.34c-.435.696-.945 1.209-1.529 1.537-.577.321-1.301.482-2.171.482zm.429-1.716c.488 0 .905-.086 1.251-.26a2.44 2.44 0 00.822-.634c.209-.25.349-.485.42-.706.113-.274.176-.587.188-.938.018-.358.027-.647.027-.867l.661.197c-.649.1-1.206.19-1.671.268-.465.077-.864.152-1.198.223-.334.066-.628.14-.885.224-.25.089-.461.193-.634.312-.173.12-.307.257-.402.412-.09.154-.134.336-.134.545 0 .238.059.45.178.634.119.179.292.322.519.43.232.107.518.16.858.16z" fill="#0C3E2E"/></svg>