<svg width="318" height="514" fill="none" xmlns="http://www.w3.org/2000/svg"><path d="M99.172 0h6.701v4.679h2.01l1.34 3.342h2.011v4.01h.67l.628 2.214c.433 1.499.888 2.991 1.382 4.47l1.34.669a106.226 106.226 0 012.01 4.678h1.341l.67 3.342 1.34-2.673c.371 1.387.67 2.569.67 4.01h1.34l-.084 1.504c.087 1.897.466 2.9 1.424 4.512h1.34c2.011 2.93 2.011 2.93 2.011 4.679h1.34v2.005h2.01l.67 1.337 1.34-.669-.67 2.674h1.34l.503 1.587c.968 2.029 1.545 2.203 3.518 3.092l.67 2.005h1.34v2.005h1.34v1.337h1.34c1.089.919 1.089.919 2.011 2.005v1.337h2.01l.544 1.63.796 1.712 2.01.668v1.337h1.34c.964 1 .964 1 2.011 2.298 1.437 1.814 1.437 1.814 3.35 3.05v1.336h2.01a60.14 60.14 0 012.681 2.674l1.842 1.42 1.508 1.253v1.337h1.34c1.089.92 1.089.92 2.01 2.005v1.337h1.341c1.089.92 1.089.92 2.01 2.005v1.337l2.01.669v1.336h2.01v1.337c1.563.806 3.013 1.448 4.691 2.005v2.005h2.01v1.337h2.01v1.337l2.681.669v1.336h2.01c1.131.92 1.131.92 2.01 2.005v1.337h2.681v2.005h2.01v1.337h2.01v2.005l1.215.251c1.465.418 1.465.418 3.476 1.755v1.336h2.01v2.006h2.01v1.336h2.01c.908.877 1.801 1.769 2.681 2.674l2.01.668 2.68 2.674 2.011.668v2.006h2.01v1.336h2.01l.67 1.337 2.01.669v1.336h2.011v2.006h2.01v1.336l2.68.669v1.337h2.01a111.01 111.01 0 012.011 2.673l2.01.669v-2.674l-3.35-.668v-2.674l-3.351-.668v-2.674h2.01v1.337l3.351.668v3.342l2.68-.668.67 2.005h1.34v1.337l2.011.668v1.337h1.34c0 2.005 0 2.005-1.005 3.133l-1.005.878 1.34.668v1.337h2.01v2.005h1.34v1.337h2.01c1.801 1.545 1.801 1.545 3.351 3.342v2.005h2.01v1.337l1.089.459c2.16 1.191 3.8 2.536 5.612 4.22v2.005h1.34v2.005h1.34c1.089.919 1.089.919 2.01 2.005v1.337h2.011v2.005h1.34v1.337h1.34c1.089.919 1.089.919 2.01 2.005v1.337h1.34c2.681 3.617 2.681 3.617 2.681 5.347h1.34l1.34 3.342h2.01v2.005h1.34v1.337h1.341l1.34 3.342h1.34v1.337l2.01.668-.67 1.337h1.34c2.681 2.988 2.681 2.988 2.681 4.679h1.34v2.005h1.34v2.005h2.01c1.412 1.931 2.01 2.931 2.01 5.348h1.341l.921 1.963c.86 2.094.86 2.094 2.429 2.715l.67 2.006 2.01-1.337-.67 4.679h1.34v3.342h2.011l.392 1.146.529 1.485.518 1.481c.472 1.36.472 1.36 1.911 1.903v2.674h1.34l.67-1.337-.67 4.679h2.01l.671-1.337-.671 4.679h1.341l.67-1.337-.67 4.679 2.01.668.67 3.342h1.34l.67 4.679 2.01.668-.418 2.131c-.261 2.645.007 3.553 1.089 5.89.251 1.332.482 2.668.67 4.011h1.34l.67 3.342h-1.34l.67 4.678H327c-.062 4.711-.134 9.422-.213 14.132-.025 1.603-.049 3.205-.07 4.808-.03 2.303-.069 4.606-.11 6.909l-.023 2.173-.04 2.027-.027 1.781c-.201 1.707-.724 2.761-1.527 4.264a66.804 66.804 0 00-.419 4.512l-.152 2.37-.099 1.807h-1.34v8.021l-1.341.668.218 1.246.243 1.637.259 1.621c-.05 1.512-.05 1.512-1.042 2.71l-1.018.807-.67-2.005c-1.581 1.577-1.669 2.526-2.01 4.679h-1.34v5.347l-2.011-.668v2.005l2.681.668-.67 2.005h-1.34v1.337h-1.341l-.67 3.342h-1.34v3.342h-1.34l-.67 2.005-2.68 1.337-.671 2.005c-1.34-.668-1.34-.668-2.01-2.005l-2.01.669v2.005a67.042 67.042 0 01-3.35 2.005l-.671 1.337-2.01.668.67 1.337a74.49 74.49 0 01-.67 4.01h-1.34v-2.005h-2.68l-.67 1.337h-3.351v1.337c-.795 1.086-.795 1.086-2.01 2.005-1.801.125-1.801.125-3.35 0v1.337l-1.299.251-1.382.417-.67 1.337h-4.69v1.337l-1.634.251-1.717.417-.67 1.337h-6.031v1.337l-4.69.668v1.337l-1.882.123-2.432.17-2.426.164c-1.895-.005-1.895-.005-2.641.88a68.85 68.85 0 01-3.393.376l-1.866.17-1.442.122v1.337l-1.887.099c-5.136.212-5.136.212-10.133 1.28-2.329.711-4.321.725-6.742.626v1.337l-1.566.099-2.036.152-2.026.141c-1.847.119-1.847.119-3.084 1.613-1.801.181-3.545.059-5.36 0v1.337l-1.969.251-2.052.417-.67 1.337h-1.34l.67 4.011h2.01v2.005h-4.02v7.352h1.34l.67-1.336c.601 1.798.857 3.267 1.047 5.138l.17 1.637.123 1.245h2.011v2.006h1.34v1.336h1.34v2.006l2.01.668v2.674l2.01-.669 1.341 5.347h1.34c1.56 1.183 1.978 1.882 2.471 3.802l.209 1.546h1.34v2.005h1.34l.252 1.295.418 1.378 1.341.669v1.337h1.34v2.005l4.69.668v1.337h-1.34v1.337h1.34v1.337l2.011.668c.46 1.379.46 1.379.67 2.674h1.34v2.005l2.01.668c1.34 2.005 1.34 2.005 1.34 4.011l2.011.668-.671 1.337h2.011v2.005l2.01-.668v2.005h1.34v2.005h1.34v1.337h1.34c1.089.919 1.089.919 2.011 2.005v1.337h1.34l1.34 3.342h1.34v2.005h2.01v1.337c1.563.806 3.013 1.447 4.691 2.005v1.337l1.249.368 1.641.509 1.625.494c1.601.67 2.451 1.289 3.526 2.639v1.337h2.68l.67 1.337 2.011.668v1.337l4.69-.668v1.336h-1.34v1.337l1.508.293 1.842.376 1.508.292 1.173.376.67 1.337 2.01.668v1.337h3.351l.67 2.005h2.68v1.337l2.303.292c2.387.376 2.387.376 3.058 1.045 1.56.245 3.123.469 4.69.668v1.337l2.387.251c2.666.327 5.103.956 7.664 1.754v1.337h6.701c.605 3.436.657 6.482.377 9.984l-.106 1.385a529.063 529.063 0 01-.271 3.336c-2.513.752-2.513.752-4.02 0l-1.634.626c-3.272.974-6.368.819-9.758.711l-.67-1.337a73.288 73.288 0 00-4.69-.669v-1.336l-2.681.668v1.337l6.031.668v1.337h2.01v1.337h-2.01V514h-1.34v-2.005h-2.01V514h-1.341v-3.342h-8.711v-2.005h-1.34v-1.337h-2.01v1.337h-2.01v-4.679h-1.34v1.337h-2.011v-4.679h-3.35v-3.342h-1.34v1.337h-2.01v-5.347h-1.341v5.347h-2.01v-2.005h-1.34v-1.337h-2.01v-5.347h-2.011v2.005h-1.34v-3.342h2.681v-1.337l2.01-.668-1.675-1.254-1.676-1.42v-1.337h-2.01c-1.131-.919-1.131-.919-2.01-2.005v-1.337l-4.021.669.671-2.006-1.341-.668v1.337h-2.68v-2.005h-2.01v-1.337h2.68v-1.337h-2.01v-1.337h-1.34v-2.005h-1.34v-1.337l-2.011-.668v-1.337l-2.01-.668v-1.337l-3.35-1.337v-1.337l-2.011.669-.67-1.337h-1.34v1.337h-3.35v3.342h-2.01v-3.342h-1.341v-2.006h1.341l.125-2.59.071-1.457-.196-1.3-2.011-1.337c-.457-.885-.905-1.776-1.34-2.673l-1.34-.669v-1.336h-2.68l-.67 2.673h-2.011v-2.673l-5.36-.669.67-6.015-.67 1.336h-1.341v-2.005h-2.01v-1.337h-1.34v-2.005h-2.01v-1.337h-1.34v-2.005h-2.011v-3.342h-3.35v-2.005h1.34v-1.337h-2.68v-2.005h-2.01v-3.342h1.34l1.34-4.679h-2.68v3.342h-3.351v-5.347h-2.01v-1.337h-1.34v-2.005h-2.01v-1.337h-1.341v-5.347h-2.01v-2.005h-1.34v-3.342h1.34v-5.347h-1.34l-.67 4.01c-2.68 0-2.68 0-3.853-.919-.838-1.086-.838-1.086-.838-2.423h-1.34v-2.005h-4.02v-1.337h2.01l-.67-5.347h-1.34v3.342h-1.341l-.67-6.684h-1.34v5.347H160.15v-2.005h3.35v-2.005h2.01v2.005h1.34v-2.005h1.341v-2.674l-1.419.047-1.848.036-1.838.047c-1.596-.13-1.596-.13-2.936-1.467l1.34-.668-4.021-.669v1.337l-5.36.668v1.337l-8.041 2.006v1.336h-3.351v1.337l-1.633.251-1.717.418-.67 1.336h-4.021v1.337l-2.303.251-2.387.418-.67 1.336h-4.021v1.337c-2.716.657-5.252.723-8.041.669v1.336l-3.795.392c-1.64.241-1.64.241-3.408.966-2.675.795-5.022.796-7.79.731l-1.495-.018c-1.205-.016-2.41-.04-3.614-.065v-1.337l-5.361-.669v-1.336l-2.22.083c-2.47-.083-2.47-.083-4.48-1.42a50.255 50.255 0 00-3.351-.669v-1.336l-8.041-2.006v-1.336c-3.013-1.503-5.414-1.449-8.711-1.337v-1.337l1.34-.668-2.01-.669v-1.337c-1.657.231-1.657.231-3.35.669l-.67 1.337h-2.011v-1.337h-3.35v-2.006h2.01c.22-.441.442-.882.67-1.336l2.01.668v-1.337h-2.01c-1.131-.919-1.131-.919-2.01-2.005v-1.337h-1.34l-.67-1.336c-.443.661-.885 1.323-1.34 2.005h-2.011v1.336h-2.01v-4.678h-3.35l-.252-1.964-.419-2.047-1.34-.668v6.016h-1.34v-1.337h-3.35v-2.006h3.35v-5.347l-1.34.669c-.44 1.689-.44 1.689-.67 3.342h-1.34v-5.348h1.34v-1.336h-3.35v1.336h-1.341l-.67-4.678-1.34 2.673h-2.01v-1.337h-1.34v-3.342h-2.01v-6.684h1.34c-.443-.661-.885-1.323-1.34-2.005-.085-1.796-.085-1.796 0-3.342h-1.341v6.684h-2.01v-1.337h-1.34v-3.342h1.34v-4.678l-1.34-.669v1.337l-3.35.668v-2.005h1.34v-8.689h1.34c.22.662.442 1.324.67 2.005-.37-2.639-.931-4.912-2.01-7.352h-.67v-4.011h-2.011l-.251-2.047c-.406-2.551-1.003-4.847-1.76-7.31h-1.34c-.22-.662-.442-1.324-.67-2.005.222 1.102.443 2.205.67 3.342h.67v3.342l2.01.668v5.347h-1.34v4.679h1.34v-3.342h1.341v2.005h2.01v1.337h-1.34v10.026h-3.35v-6.684h-2.01v-6.684h-1.34v-3.342H7.37v-3.342H5.36v-3.342H6.7l.67-5.347H5.36v-1.337H4.02c-.74-2.947-.722-5.671-.67-8.689h2.01v-1.337H2.01v-2.005H0v-8.689h2.01v-1.337H0v-2.005h2.01v-1.337H0v-2.005h3.35v2.005h1.34l-.376-1.546c-.294-1.796-.294-1.796.377-3.801H3.35v2.005H2.01v-3.342H0v-2.005h3.35v1.336h1.34c-.08-2.948-.163-5.896-.249-8.844l-.084-3.003a1560.41 1560.41 0 00-.124-4.34l-.075-2.631c-.143-2.673-.444-5.267-.808-7.918H6.7l.67 4.679h1.341v2.005h-1.34l1.34 3.342-.67.669 1.34.668-.023-1.245-.019-1.637-.023-1.622c.097-2.256.99-4.221 1.782-6.316a3242.849 3242.849 0 00.963-2.548l-1.34.669c-.439 1.689-.439 1.689-.67 3.342h-1.34l-.123-1.784-.17-2.352-.165-2.326a44.074 44.074 0 00-.882-5.57h3.35c-.22 1.544-.442 3.088-.67 4.679h2.01v-10.026h-1.34v-1.337h1.34v-2.005h2.01v2.674h1.34v-9.358h-1.34v-2.005h1.34v-1.337h2.011v1.337h1.34v-4.679h-1.34v-2.005h1.34v-1.337h2.01v1.337h1.34v-8.021h4.021c-.22-1.103-.442-2.206-.67-3.342h-1.34v-2.005h1.34v-2.005h-1.34v-1.337h2.01v1.337h1.34v2.005h1.34v-5.347h-1.34v-1.337h2.01v1.337h1.34v-1.337h1.34v-2.005h2.011c1.61-3.211 1.75-6.504 2.01-10.026h3.35l-.376-1.462c-.307-1.966-.116-3.311.377-5.222h3.35v-6.684h1.34v1.337h2.01v-4.679l2.681-.669.67-6.684h1.34l.67 1.337c1.166-1.163.92-2.803 1.047-4.386l.17-2.05.123-1.585h1.34l.67 1.337h1.34v-4.679h-1.34v-1.336h1.34v-2.006h1.341v2.006h1.34l.67-8.69h2.01l.67 1.337.67-8.021h2.01v1.337h1.341v-8.021h-1.34v-2.005h2.01l1.34 3.342h1.34v-8.021h-1.34v1.337h-1.34c-.22.662-.442 1.324-.67 2.005h-1.34v-2.005h1.34l.67-2.005h1.34v-1.337h1.34v-2.005h-1.34v-1.337h2.01v1.337h1.34v4.01l1.34-.668v-6.016h-1.34v-2.005h1.34v-2.005h-1.34v-4.679h2.011v1.337h1.34l.67 3.342h1.34l-.376-1.462c-.307-1.966-.116-3.311.376-5.222h-2.01v-1.337h2.01v-2.005h1.34v2.005h1.34v-8.69H78.4v-5.346h2.01v2.005h1.341l.67 2.005 1.34.669c-.22-3.089-.442-6.177-.67-9.358h-1.34v-2.005h1.34v-1.337h-1.34V79.54h3.35c.754 3.175.754 3.175 0 4.678h2.01l-.146-1.566c-.353-3.952-.6-7.834-.523-11.802H85.1v-1.336h-1.34v-2.005h1.34v-1.337h3.35l.67 4.678h1.34l-.147-1.227c-.451-4.065-.601-8.052-.523-12.14h-1.34v-1.337h2.01V54.14h3.35v-6.684h-1.34l.338-2.302c.378-3.011.356-5.949.29-8.977-.054-4.412.176-8.505 1.383-12.783h-2.68v-3.342h4.02v-1.337h-2.01v-5.347h2.01v-2.005h-2.01v-1.337h-2.01V8.021h2.01V6.684h3.35V5.347h2.01V3.342h-2.01V1.337h2.01V0zm-3.35 32.083v2.005h2.01l-.67-2.005h-1.34zm0 3.342c.22.662.442 1.324.67 2.005l.67-2.005h-1.34zm0 3.342l-.67 2.005h1.34l-.67-2.005zm-.67 3.342l.67 1.337-.67-1.337zm-1.34 14.037c-1.494 2.892-1.29 4.868-.67 8.02h-1.34v8.021h.67c.22-2.206.442-4.411.67-6.684h1.34V58.82h1.34l-.67-2.005-1.34-.668zM88.45 74.192l.67 2.006-.67-2.005zm1.34 2.006c-1.442 2.157-1.475 2.863-1.34 5.347 1.104-1.171 1.104-1.171 2.01-2.674-.145-1.476-.145-1.476-.67-2.673zm-3.35 10.694v1.337H85.1v3.342l1.34-.668v-2.006h1.34v-2.005h-1.34zm-1.34 7.353l.67 1.336-.67-1.337zm-2.01 2.673c-1.535 2.296-1.46 3.332-1.341 6.016h.67v-3.342l2.01-.669v-2.005h-1.34zm-4.69 8.022l.67 2.005-.67-2.005zm1.34 1.337l.67 2.005-.67-2.005zm-1.34 2.005v4.679h.67v-4.679h-.67zm-3.35 6.684l.67 2.005-.67-2.005zm-4.021 10.026c.22 1.544.442 3.088.67 4.679 1.57-1.787 1.57-1.787 2.01-4.011l-2.68-.668zm-3.35 7.352v3.342l1.34.669 1.34-1.337c-.214-1.409-.214-1.409-.67-2.674h-2.01zm168.86 1.337l1.34.669.67 2.005h2.01l-1.34-2.674h-2.68zm-172.211 5.347l.67 2.006 1.34-.669.67 1.337-.67-2.674h-2.01zm.67 2.674l.67 2.005-.67-2.005zm-4.02 4.01v2.006h1.34v-2.006h-1.34zm2.01 1.337l.67 1.337-.67-1.337zm-4.69 5.347l.67 1.337-.67-1.337zm-2.011 8.021l.67 1.337-.67-1.337zm-12.062 16.042l.67 2.005.67-2.005h-1.34zm0 4.679l.67 2.005-.67-2.005zm-3.35 2.005v1.337h1.34v-1.337h-1.34zm-3.35 6.684l.67 1.337-.67-1.337zm-6.701 10.026v1.337h1.34v-1.337h-1.34zm-3.35 6.684l.67 1.337-.67-1.337zm0 4.679l.67 2.005-.67-2.005zm-7.372 14.704v2.006h1.34v-2.006h-1.34zm-3.35 1.337v1.337h1.34v-1.337h-1.34zm2.01 2.674l-2.01.668v5.347h1.34v-3.342h1.34c-.22-.882-.442-1.764-.67-2.673zm-3.35 9.357c-1.089.75-1.089.75-2.01 2.006-.168 2.089-.168 2.089 0 4.01h1.34v-3.342h1.34l-.67-2.674zM3.35 288.081v2.005h1.34v-2.005H3.35zm0 3.342v2.005h2.01v-2.005H3.35zm0 3.342v2.005h2.01v-2.005H3.35zm0 3.342v2.005h2.01v-2.005H3.35zm4.691 7.352l.67 2.674h1.34v3.342h1.34v-5.348l-3.35-.668zm-1.34 3.342l.67 3.342h1.34v-3.342h-2.01zm4.02 10.026v3.342h1.34v-3.342h-1.34zm301.537 16.042l1.34 2.673v-2.673h-1.34zm-290.145 3.342l-1.34 4.01h1.34v-1.337h1.34l-1.34-2.673zm288.805 0v1.336h1.34v-1.336h-1.34zm-1.34 2.005l.67 1.337-.67-1.337zm-286.125 1.337l1.34 2.673v-2.673h-1.34zm284.115.668l.67 2.674-.67-2.674zm-282.105 2.674v2.673h1.34v1.337h1.34V346.9c-1.3-1.14-1.3-1.14-2.68-2.005zm280.094 0v1.336h1.341v-1.336h-1.341zm-278.084 8.02v6.684h1.34l.67-5.347-2.01-1.337zm266.023 2.674l1.34 1.337v-1.337h-1.34zm-262.672 2.005c.22.662.442 1.324.67 2.005v-2.005h-.67zm3.35.669v1.336l1.34-.668-1.34-.668zm1.34 2.005v1.337h1.34v-1.337h-1.34zm-1.34 1.337v1.336h1.34v-1.336h-1.34zm3.35.668l.67 1.337-.67-1.337zm1.34 1.337v1.337h1.34v-1.337h-1.34zm2.011 2.005l.67 1.337-.67-1.337zm1.34 1.337v1.337h1.34v-1.337h-1.34zm2.01 2.005l.67 1.337-.67-1.337zm1.34 1.337v1.337h1.34v-1.337h-1.34zm2.01 2.005l.67 1.337-.67-1.337zm1.341 2.005l1.34 1.337v-1.337h-1.34zm124.635 6.684l.67 2.674h4.691v1.337c.795 1.183.795 1.183 2.01 2.005 1.45-.152 1.45-.152 2.68-.668l-2.01-.669v-1.337h-2.01l-.67-2.005h-2.68v-1.337h-2.681zm-115.924 1.337v1.337l2.01-.669-2.01-.668zm112.574 2.674v2.005h2.01v-2.005h-2.01zm7.371 0l.67 1.337-.67-1.337zm26.133.668v2.005h1.34v-2.005h-1.34zm-20.103 2.005l1.341 1.337v-1.337h-1.341zm-2.68.669v2.005h1.34v-2.005h-1.34zm4.691.668v1.337l1.34-.668-1.34-.669zm1.34 2.005l.67 2.006.67-2.006h-1.34zm-2.68.669v2.005h1.34l-.67-2.005h-.67zm4.69.668l.67 2.005-.67-2.005zm1.34 2.674c.334 2.464.738 3.746 2.681 5.347-.351-1.847-.743-3.56-1.341-5.347h-1.34zm3.351 4.679v2.005h-1.34v-1.337h-1.341v6.684h1.341v-3.342h2.01v8.689h1.34c.399-1.74.67-3.307.67-5.096 0-1.588 0-1.588.67-3.593l-1.34-1.337c-.419-1.42-.419-1.42-.67-2.673h-1.34zm3.35 6.015v1.337l1.34-.668-1.34-.669zm2.01 2.005l.67 1.337-.67-1.337zm2.011 3.342l.67 1.337-.67-1.337zm-3.351 1.337v4.679h1.34l.67-4.679h-2.01zm4.021 2.005v2.674h1.34l.67-2.674h-2.01zm2.01 1.337l.67 2.005 1.34-1.336-2.01-.669zm2.01 2.005v1.337l1.34-.668-1.34-.669zm-1.34 3.342v6.016h1.34c.991-1.976.711-3.838.67-6.016h-2.01zm2.68 0l1.34 6.016h1.341l.67-3.342h-1.34l-.671-2.674h-1.34zm3.351 4.679l.67 2.005h1.34l-.67-2.005h-1.34zm2.01 2.005v1.337l1.34-.668-1.34-.669zm-4.021 1.337v1.337h1.341v-1.337h-1.341zm6.031.669v1.336l1.34-.668-1.34-.668zm-2.68.668v4.01h2.01c-.231-1.652-.231-1.652-.67-3.342l-1.34-.668zm6.031 2.674v1.336h1.34v-1.336h-1.34zm-2.011 2.005l-.67 2.673h2.011v-2.673h-1.341zm2.011 2.673l.67 3.342h2.68l.67-4.01c-1.356 0-2.696.397-4.02.668zm-3.351 1.337v2.005h1.34v-2.005h-1.34zm6.701 2.005v6.684h4.691c.812-1.524.812-1.524 1.34-3.342-.514-1.527-.514-1.527-1.34-2.673l-2.681.668.67-2.005c-1.39-.1-1.39-.1-2.68.668zm6.701 5.348v1.336h1.34v-1.336h-1.34zm2.01 2.005l.67 1.337-.67-1.337zm3.351 3.342l.67 1.337-.67-1.337zm1.34 2.005v2.005h1.34v-2.005h-1.34zm2.01 3.342v1.337h-1.34v2.673h2.68v-1.336h1.34v-1.337h-1.34v-1.337h-1.34zm18.092 18.715v1.337h2.01v-1.337h-2.01zm14.742 11.363v2.005c1.886 1.522 1.886 1.522 4.02 1.337l.671 2.005h1.34l.67 2.674h1.34v1.337h2.01v2.005h1.34v-1.337h1.341l.67 2.005h2.68v-1.337h-2.68c-.222-.661-.443-1.323-.67-2.005h-1.341v-1.337h-2.01v-2.005h-2.01v-1.337c-2.159-1.548-2.159-1.548-4.691-2.005l-.67-2.005h-2.01zm0 2.674l-.67 2.005h2.01v-2.005h-1.34zm16.082 9.357l.67 6.016h1.34l.67-2.674h1.34v2.674l6.701.668v-1.337h-3.35l-.67-2.005h-1.34V501.3h-3.351l-.67-2.005h-1.34zm-2.01.669l-.67 2.005h1.34l-.67-2.005z" fill="#6D9773" fill-opacity=".1"/></svg>