<svg width="371" height="499" fill="none" xmlns="http://www.w3.org/2000/svg"><path d="M84.632 2.995L89.483.936l.47 1.107L94.197.242l1.41 3.32-2.425 1.03.704 1.66c1.434.04 1.434.04 2.895.078l.47 1.107 1.82-.772-1.175-2.767 1.212-.515 1.175 2.768 1.819-.773.705 1.66-1.819.773.47 1.107-1.82.772 1.176 2.768 1.819-.772.704 1.66-2.425 1.03-1.076-.85 2.114 4.982.743-1.622c3.08 5.322 5.142 10.782 7.049 16.605l1.819-.772 5.737 15.202 1.213-.515.136-1.364.576 1.166c1.643 3.183 3.186 5.527 6.078 7.767l.607-.257 1.174 2.768 1.213-.515-.47-1.107 1.213-.515.252 1.649c.594 2.08 1.14 2.925 2.939 4.182l2.053-.218.743-1.622 2.425-1.03c.099 1.918.099 1.918-.037 3.283l12.361-4.594-.099-1.918 4.245-1.802-1.781-2.51 6.336-5.302.136-1.364-4.616 2.612.47 1.107-1.819.772-1.174-2.767 3.638-1.545-.47-1.107 3.031-1.286.705 1.66 2.19-1.583-.568-3.025 4.244-1.802-1.175-2.767 1.819-.772c2.187 4.67 2.187 4.67 1.607 7.157l1.213-.515-.47-1.107 1.213-.515 2.485 4.17 1.213-.514-2.349-5.535 1.819-.772 1.174 2.767 1.213-.514 1.175 2.767-1.213.515.47 1.107-3.403 2.098 2.251 3.617-1.213.515.569 3.025-1.213.514-1.311-1.403.703 1.965.897 2.541.465 1.297c1.13 3.219 1.13 3.219.716 4.121.679 2.08 1.43 4.127 2.179 6.18l.504 1.827-.977 1.068.596 1.347.778 1.785.773 1.762c.613 1.593.987 3.08 1.241 4.773l-1.213.515.904 2.025c.763 1.787 1.281 3.481 1.544 5.428l-1.213.515c1.817 2.238 1.817 2.238 3.934 4.21l1.819-.773-.47-1.107 1.819-.772 3.054 7.195-1.819.773-.705-1.661-4.009 2.355c.143 1.19.291 2.38.442 3.569l.248 2.007c.257 1.951.257 1.951 1.25 4.052l1.448.039.47 1.107 3.638-1.544.705 1.66 1.212-.514.705 1.66-1.213.515 2.35 5.535-1.819.772-1.175-2.767-1.212.514.469 1.107-1.212.515-1.076-.85c-.652 4.241.953 8.289 3.486 11.585l1.213-.514.469 1.107 1.819-.773 1.175 2.768-1.819.772.705 1.661 1.819-.772.47 1.107 1.213-.515-.47-1.107 1.819-.772.704 1.66-1.818.772.469 1.107-1.212.515.705 1.661 1.212-.515.47 1.107-3.031 1.287.855 1.066c.968 1.51 1.268 2.697 1.494 4.469l-1.819.772 2.524.888c.098 1.918.098 1.918-.038 3.283l1.213-.515.47 1.107 1.819-.772.704 1.66 1.213-.515.705 1.661-2.425 1.029-1.312-1.403a46849.3 46849.3 0 012.115 4.982l.978-1.068 2.251 3.617 1.212-.515 2.115 4.982.977-1.069c1.306 1.653 2.006 2.856 2.115 4.982l1.213-.515 1.174 2.768 1.213-.515 1.546 1.957 1.213-.515.705 1.66 2.054-.218c1.078.488 2.156.978 3.222 1.487 2.911 1.306 5.197 1.95 8.572 1.223l1.939-.701.47 1.107c4.482-.36 8.162-2.007 12.284-3.826l2.039-.883c1.65-.716 3.297-1.437 4.942-2.162l-.47-1.107c2.08-1.494 3.975-2.329 6.424-3.094l1.866-.59 1.412-.434-.47-1.107 1.025-.639c1.257-.851 1.257-.851 1.544-2.105 1.118-1.934 2.637-2.268 4.746-3.096l2.186-.875 1.685-.646.137-1.365 1.819-.772-1.683-.592c2.102-1.759 4.509-2.612 7.041-3.642l-.235-.553 4.616-2.613-.099-1.918 1.279-.497 1.668-.672 1.658-.658c1.655-.711 1.655-.711 2.807-2.626 2.368-1.693 4.434-2.487 7.276-3.088l-.705-1.66-1.819.772-1.174-2.768 1.819-.772.469 1.107 1.213-.515 2.251 3.617 3.267-.733-2.251-3.617 1.819-.772 1.174 2.767 1.213-.514a6941.17 6941.17 0 012.251 3.617l1.213-.515-.47-1.107 1.819-.772.568 3.025-1.819.772 2.213 6.899-1.584 1.326-1.447-.039-.705-1.66-1.213.514.47 1.107-3.032 1.287.705 1.661-1.819.772.47 1.107-1.584 1.326-.136 1.364-1.819.772.47 1.107-.978 1.068.841.296c.416.912.81 1.835 1.175 2.768l-1.819.772-.333-2.471-1.213.514.47 1.107-1.819.773.705 1.66-1.213.515.705 1.66-1.213.515.334 2.471-1.213.515 2.251 3.617-1.212.515.568 3.025-1.213.515.47 1.107-1.584 1.325-2.289-.335 2.721 4.725-1.212.514-.94-2.214-1.213.515.318 1.171c.33 2.443.192 4.839-.295 7.311l-.978 1.069 1.41 3.321-1.076-.85-1.213.515.94 2.214 2.425-1.03.705 1.661-2.425 1.029-.47-1.107-1.819.772 1.032.746c1.12.954 1.12.954 1.825 2.614l-1.213.515-.469-1.107-1.213.515.568 3.025-1.212.514.94 2.214-1.213.515 1.175 2.768-.978 1.068c-.105 1.274-.105 1.274-.031 2.667l.044 1.433.048 1.1-1.213.515.545 1.81c.487 2.292.438 4.066.084 6.415l-1.213.515 1.175 2.767-1.212.515.389 1.549c.401 1.966.553 3.847.611 5.865l-1.213.515.804 3.578-1.213.515 1.645 3.874-.978 1.069c.08 1.288.08 1.288.333 2.471l-1.212.515.854 1.801c.791 2.073.791 2.073.283 4.249.155 1.015.339 2.026.568 3.025l-1.213.514.755 1.349.967 1.758.968 1.748c.736 1.53.736 1.53.6 2.894l1.212-.514-1.174-2.768 1.311 1.403 1.819-.772-1.175-2.767 1.819-.773 2.35 5.536-1.819.772 1.174 2.767-2.425 1.03-1.175-2.768-1.212.515.9 1.692 1.159 2.211.594 1.114c.898 1.722 1.474 2.966 1.576 4.946l1.819-.772.705 1.66 1.818-.772-1.409-3.321 3.031-1.287 1.645 3.875-1.213.515.47 1.107 4.987-3.424-.235-.553 9.466-4.671-.234-.554 8.859-4.414-.47-1.107 1.819-.772.47 1.107 1.213-.515-.47-1.107 1.819-.772.47 1.107 1.213-.515-.47-1.107c3.146-2.07 3.146-2.07 5.456-2.316l.47 1.107 6.064-2.574-1.077-.849c4.466-2.137 4.466-2.137 6.416-1.744l.959.573.705-1.605c.78-1.638.78-1.638 1.387-1.896l1.174 2.768 6.063-2.574.705 1.661-3.031 1.287.47 1.107-1.819.772-.47-1.107-1.213.514 1.781 2.511-1.212.514.773.979c1.253 1.905 2.038 3.85 2.887 5.959l-2.22.249c-2.69.439-2.69.439-4.684 2.029l-.137 1.364-1.819.772 1.509 5.239-3.032 1.287.47 1.107-1.213.515.705 1.661-1.819.772-.333-2.472-.747 1.297c-.974 1.393-.974 1.393-2.793 2.165l.47 1.107.607-.257c1.087-.249 2.176-.494 3.266-.733l.705 1.66-3.032 1.287.47 1.107-1.819.772.705 1.661-2.19 1.583.333 2.471-1.212.515.47 1.107-1.213.514.289 1.103c.044 1.369.044 1.369-.904 2.506l-1.007.999-.136 1.365-1.213.514-1.311-1.403-.137 1.365-1.584 1.325-.136 1.365 2.054-.219.47 1.107-2.797 1.84.47 1.107 1.213-.514.47 1.107-3.403 2.097-.47-1.107-1.213.515 2.016 3.064-1.213.515.804 3.578-1.213.515.47 1.107-4.479 1.248.47 1.107-1.213.515.705 1.66-1.213.515.705 1.66c-.513 1.32-.513 1.32-1.114 2.433l1.213-.515-.47-1.107 1.212-.515.569 3.025-1.213.515.47 1.107-1.213.515-1.076-.85-.136 1.365-1.448-.039.184 1.065c.151 1.421.063 2.701-.123 4.135l-1.213.515.47 1.107 1.584-1.326.705 1.661-1.213.514.47 1.107-1.212.515.705 1.661-1.213.514-.47-1.107-.481 1.184c-.633 1.249-.633 1.249-1.846 1.764l.804 3.578 1.212-.515.705 1.661-1.213.515.47 1.107c-.452 1.253-.452 1.253-1.114 2.432l-1.212.515-.011 1.556c-.027 1.726-.027 1.726-.164 3.091l-1.212.514-1.312-1.403-.136 1.365-1.213.514.705 1.661-1.212.515-.038 3.282.371-.811 1.213-.515 1.175 2.768-2.426 1.029-.47-1.107-1.819.772 1.033.746c1.12.954 1.12.954 1.825 2.614l-1.213.515 1.175 2.767-1.819.772.098 1.918-1.212.515.47 1.107-1.213.515-.94-2.214-1.212.515.469 1.107c-.376 1.221-.376 1.221-1.114 2.432l-2.425 1.03 3.502-.18.469 1.107-.983.948c-1.199 1.211-1.199 1.211-.873 3.106l-1.213.515.47 1.107-1.213.515.705 1.66-1.213.515.099 1.918-1.213.515.47 1.107-3.031 1.286-.47-1.107-.372.811-2.425 1.03.47 1.107c-.376 1.221-.376 1.221-1.114 2.432l-2.425 1.03.47 1.107 1.447.039-3.638 1.544-.136 1.364c-1.34 1.148-2.754 2.172-4.178 3.223-1.341.927-1.341.927-1.317 2.376l-2.797 1.84-.136 1.365-2.425 1.029.47 1.107-2.797 1.84c.966 1.395 1.924 2.663 3.092 3.914l1.819-.772-1.781-2.511 1.819-.772-.705-1.66 1.819-.772 1.88 4.428 4.244-1.802.705 1.661-4.244 1.801.469 1.107 1.213-.514 1.175 2.767-1.819.772-1.175-2.767-1.212.514-.47-1.107-3.032 1.287 2.683 8.007 1.213-.515 2.016 3.064-.099-1.918 1.819-.772.289 1.168c.828 3.071 1.567 5.257 4.077 7.43l1.584-1.325 1.038 4.132 1.584-1.326.8 1.253.981 1.257 1.448.039.098 1.918 1.213-.515.136-1.364 1.41 3.321 1.114-2.433.593 1.504c.723 1.61 1.523 2.925 2.598 4.327l2.054-.218.939 2.214 1.213-.515 1.781 2.51 1.213-.515.705 1.661 1.584-1.326 1.409 3.321 1.213-.514c1.682.592 1.682.592 2.994 1.995l1.212-.515-1.546-1.956 1.819-.772.162 1.646c.832 2.506 2.108 2.986 4.476 4.224l.47 1.107 1.213-.515 1.781 2.51 1.213-.515.705 1.661 1.819-.772 1.174 2.767 1.213-.514c1.279.273 1.279.273 2.524.888l.94 2.214 2.66-.476-.137 1.364a686.581 686.581 0 001.819-.772l-.333-2.471 1.212-.515.705 1.661 1.213-.515.47 1.107-.978 1.068.099 1.918 1.212-.515.137-1.364.94 2.214c.832.314 1.675.608 2.523.888 1.352 1.182 1.352 1.182 2.388 2.253l1.819-.772c1.136.361 2.259.756 3.365 1.185l1.447.038-1.546-1.956 1.819-.772.705 1.66 4.244-1.801.705 1.66 1.819-.772c1.652 3.72 3.144 7.356 4.093 11.328l1.212-.515-.922-1.119c-.859-1.391-.859-1.391-.351-3.567l.705 1.661 1.819-.772 1.175 2.767-1.819.772.47 1.108-1.819.772 1.187 1.006c1.2 1.246 1.2 1.246 1.299 3.164l-7.883 3.346.94 2.214-3.031 1.287-.47-1.107-5.829 3.127-.704-1.66-3.032 1.286-2.486-4.17-1.213.514-.469-1.107-1.213.515-.705-1.66-1.819.772 1.175 2.767-1.213.515-2.349-5.535-1.819.772 1.175 2.768-1.213.514-2.115-4.981-3.266.733-1.175-2.767-1.819.772 1.88 4.428 3.031-1.287 1.175 2.767-1.213.515.47 1.107-3.638 1.544-.469-1.107-1.213.515-1.175-2.767 1.213-.515-.648-1.468-.844-1.941-.839-1.917a21.76 21.76 0 01-1.292-4.895l-1.819.772 2.35 5.535-1.213.515.705 1.661 1.212-.515.47 1.107-3.031 1.287-1.175-2.768 1.213-.514-1.175-2.768-1.213.515-.705-1.661 1.213-.514-1.41-3.321-1.447-.039.098 1.918-1.447-.039-.47-1.107-1.213.515 1.645 3.874-1.819.772-.47-1.107-1.213.515-1.174-2.768-1.819.772-.705-1.66 3.031-1.287-.47-1.107-3.031 1.287-1.88-4.428-1.212.515-1.175-2.768 1.212-.515-.502-1.124-.651-1.489-.65-1.47c-.5-1.329-.755-2.503-.88-3.923l-1.212.515-1.88-1.162-1.955-1.13-1.819.772.788 1.013c1.134 1.71 1.88 3.475 2.638 5.372l-1.819.772-1.175-2.768-1.584 1.326-.803-3.578-1.819.772-.47-1.107-1.819.772-.705-1.661-1.213.515-1.175-2.767-1.818.772c-.818-3.008-1.328-5.965-1.706-9.075 1.683.592 1.683.592 2.388 2.253l2.66-.476-.47-1.107-1.213.514-1.174-2.767-1.819.772c-1.629-1.692-3.102-3.382-4.404-5.316l-1.212.514-5.109-6.977-1.212.515-.47-1.107-2.191 1.583.94 2.214 1.819-.772.137-1.364 2.251 3.617 1.212-.515.705 1.661-1.213.514 2.82 6.642-2.797 1.841-.705-1.661 1.819-.772-2.349-5.535-1.819.772.47 1.107-1.213.515-1.175-2.768-1.819.772-.469-1.107 1.818-.772-4.835-9.705.978-1.069 1.174 2.768 1.819-.772-2.016-3.064-1.212.515-.705-1.661c-1.518 1.693-1.518 1.693-1.202 3.088l.405 1.252.721 2.225-1.212.515 1.174 2.767-1.819.772-3.054-7.195 1.213-.515-1.645-3.875-2.425 1.03.47 1.107-1.819.772-1.175-2.768 1.213-.514-.817-1.818c-.828-2.057-.828-2.057-.927-3.975l-4.85 2.059-1.311-1.403-7.746 1.981-.47-1.107-1.213.515-.704-1.66 1.212-.515-.47-1.107 2.054-.219.705 1.661 7.882-3.346c-2.018-.711-2.486-.438-4.528.289-2.659.947-2.659.947-4.529.289-1.711.303-1.711.303-3.266.734l-.47-1.107-2.425 1.029-1.077-.85c-1.38.16-1.38.16-2.66.476l-.47-1.107-5.222 2.87-.47-1.107 1.819-.772-.47-1.107-3.637 1.544-.47-1.107-3.873.991-.47-1.107-4.244 1.801-.47-1.107-4.479 1.248.939 2.215 3.267-.734 1.645 3.875-1.819.772-1.175-2.768-6.063 2.574-1.175-2.768-3.032 1.287-1.644-3.874 1.212-.515 1.546 1.957 5.692-1.763-.47-1.107-3.031 1.287-.705-1.661-2.425 1.03-.47-1.107-2.426 1.029-1.076-.85c-1.381.161-1.381.161-2.66.476l-.47-1.107-3.031 1.287-1.077-.849c-1.38.16-1.38.16-2.66.476l-.47-1.107-1.111.226a31.927 31.927 0 01-5.051.429l-1.076-.849-2.054.218-.47-1.107-2.425 1.03a57.264 57.264 0 01-3.365-1.185l-2.054.219-.47-1.107-1.147.037c-1.748-.115-1.748-.115-4.169-.761-2.066-.499-3.015-.723-5.052-.101l.47 1.107 1.819-.772.47 1.107 1.819-.772.47 1.107a128.515 128.515 0 01-4.009 2.355c-.842-.296-.842-.296-1.482-1.699l-.534-1.365-4.245 1.802-.705-1.661-1.819.772-.469-1.107-1.213.515-1.175-2.768-3.031 1.287-.705-1.66 1.212-.515-.704-1.661-1.584 1.326.469 1.107-1.212.515-.47-1.107-1.213.515.47 1.107-1.819.772-1.175-2.768 3.168-2.651-1.212.515c-.885.17-1.772.33-2.66.476l-1.546-1.957-3.638 1.544.469 1.107-1.818.772-1.175-2.767 2.425-1.03-.47-1.107-3.031 1.287-1.175-2.767-1.213.514 2.35 5.535-1.213.515-2.349-5.535-1.819.772 1.174 2.768-1.212.514-1.175-2.767-1.819.772-.705-1.661 1.819-.772a59.53 59.53 0 00-2.251-3.617l-1.447-.039 1.174 2.768-1.212.515-1.645-3.875 1.819-.772-1.076-.85c-1.687.288-1.687.288-3.267.734l1.175 2.767-1.819.772-1.175-2.767-2.425 1.029-.47-1.107-1.819.772-1.175-2.767 1.213-.515c-.463-.852-.929-1.702-1.396-2.551l-.785-1.435c-.765-1.379-.765-1.379-2.086-2.695l-3.032 1.287.47 1.107-1.819.772-.47-1.107-1.212.515-.705-1.661-1.819.772-.47-1.107-1.213.515-1.174-2.767-3.032 1.286-.705-1.66 1.213-.515-.47-1.107-4.244 1.802-.705-1.661 1.213-.514-.47-1.107-3.032 1.286-1.88-4.428 1.213-.514 1.175 2.767 1.819-.772-1.645-3.875 1.213-.514c1.334 2.074 2.539 4.087 3.426 6.384l1.212-.514-1.644-3.875 1.212-.515-.47-1.107-1.212.515-.47-1.107-1.213.515-2.387-2.253-1.213.515c-1.308-.343-1.308-.343-2.524-.889l-.47-1.107-2.053.219-.47-1.107-2.896-.078.705 1.661-1.212.515 1.251 2c1.252 2 1.252 2 1.098 3.535l-1.212.514-2.35-5.535-1.819.773.705 1.66-1.213.515-2.486-4.171-1.212.515.704 1.66-1.212.515-.705-1.66-1.819.772.705 1.66-1.213.515-1.88-4.428-3.03 1.287-2.252-3.618 1.82-.772-1.542-1.101c-1.624-1.393-2.242-2.246-2.862-4.215l-1.213.515-1.175-2.768 1.82-.772-.47-1.107 6.063-2.574.47 1.107 4.479-1.248-.743 1.622 3.266-.733.47 1.107 1.377-.34a41.669 41.669 0 015.998-.831l1.076.85c1.38-.16 1.38-.16 2.66-.476l.47 1.107 1.41-.681c1.622-.606 1.622-.606 3.304-.014 1.299-.37 1.299-.37 2.684-1.012l1.56-.674 1.621-.722 1.642-.714c1.34-.585 2.678-1.174 4.013-1.768l-.568-3.025-1.213.515-.705-1.66 1.213-.515-.47-1.107 1.819-.772-.705-1.661 4.244-1.801.47 1.107-1.819.772 1.312 1.403 1.447.039-.184-1.065c-.151-1.421-.063-2.701.123-4.135l1.213-.515-.705-1.661-1.212.515-.705-1.66-1.819.772-.47-1.107 1.819-.772-.705-1.661 1.213-.515.704 1.661 2.426-1.03-.972-2.078c-.886-1.896-.923-2.285-.4-4.525l-4.108.437 1.175 2.768-1.213.515-4.229-9.964 1.918 1.146-.334-2.471-2.054.218-1.174-2.767.53 6.307-1.213.515a4452.18 4452.18 0 00-1.78-2.51l-1.213.514-.705-1.66-3.032 1.287-1.644-3.875-3.032 1.287-1.175-2.768 1.213-.514-.705-1.661-3.031 1.287-1.175-2.768-3.032 1.287-1.175-2.767-1.212.514-.705-1.66-1.82.772-.469-1.107-1.213.515-1.174-2.768-1.82.772-2.584-6.088-1.212.515-.47-1.107-1.82.772c-.154-.366-.31-.731-.47-1.107l-1.212.514 1.175 2.768-1.819.772-1.41-3.321 1.82-.772-.47-1.107 1.212-.515-.705-1.66c-2.248 1.329-2.248 1.329-3.54 3.462l-1.818.772-1.175-2.768 2.425-1.029-.47-1.107-3.872.99.568 3.025-1.213.515a554.722 554.722 0 01-1.403-3.201l-.79-1.801c-.626-1.64-.626-1.64-.724-3.558l-2.426 1.03 1.88 4.428-1.213.514-.705-1.66-1.819.772-.47-1.107 1.82-.772-2.486-4.171-1.213.515 1.175 2.767-3.032 1.287-.47-1.107 1.82-.772-1.646-3.874-1.819.772.94 2.214-1.212.514c-1.518-3.02-3.037-6.04-4.6-9.152l-1.448-.039-.495-1.586c-.716-1.874-.716-1.874-2.568-2.258-1.997-.771-2.107-1.132-2.862-2.949l-.73-2.14c-1.319.174-1.319.174-2.66.476-.698 1.523.34 3.147.83 4.588l.698 2.074.549 1.602-1.82.772c-.154-.366-.31-.731-.47-1.107l-1.212.514-.705-1.66 1.213-.515-4.23-9.963 2.896.078-.705-1.661-2.054.219-1.88-4.428-1.212.514-1.41-3.321-3.872.991 3.524 8.303-1.82.772-1.174-2.768-1.213.515-1.174-2.768 1.212-.514-1.175-2.768-1.212.515-1.88-4.428 1.82-.772-.706-1.661-1.819.772-.47-1.107-3.031 1.287-.705-1.66 1.213-.515-1.645-3.875 1.819-.772 1.175 2.768 1.819-.772-.705-1.661 1.213-.515a1297 1297 0 01-.47-1.107l1.212-.514-.705-1.661-1.212.515-.47-1.107 3.031-1.287.705 1.66 1.213-.514 1.682.592 1.82-.772-.705-1.661-1.213.515-.47-1.107 3.032-1.287 1.78 2.51 2.426-1.029.47 1.107-3.403 2.098c2.996 1.197 2.996 1.197 6.26 1.262l.47 1.107 1.187-.259c1.473-.217 1.473-.217 3.762.118l.47 1.107 4.01-2.355.47 1.107-.978 1.068 2.053-.219.47 1.107 4.245-1.801 1.076.849c1.991-.415 1.991-.415 3.873-.99l.47 1.107 10.072-4.929-.098-1.918 3.637-1.544 1.312 1.403 2.054-.219-.705-1.66 1.212-.515.705 1.661 4.616-2.613-.47-1.107 1.78-.732 2.327-.97 2.31-.958c1.675-.763 2.813-1.471 4.262-2.526 1.459-.54 1.459-.54 2.982-.98l1.541-.453 1.168-.33-.568-3.024 1.632-.897c1.79-1.213 2.28-1.729 2.885-3.634l.47 1.107 1.213-.515-.804-3.578 1.213-.515-1.175-2.767 1.584-1.326c-.93-2.192-1.86-4.384-2.82-6.642l3.032-1.287.705 1.661-1.213.515.802 1.782c.652 1.617 1.066 2.838 1.177 4.563l1.212-.514-.704-1.661 1.212-.515a507.2 507.2 0 00-1.225-2.991c-.34-.833-.34-.833-.689-1.682-.557-1.453-.557-1.453-1.747-2.265-.709-1.444-1.276-2.935-1.88-4.428l-1.212.515-.705-1.661 1.213-.514-1.645-3.875-1.212.515-.705-1.661 1.212-.514-1.038-4.132-1.819.772 1.175 2.767-3.032 1.287-.704-1.66 1.212-.515-.47-1.107-1.212.515-.705-1.661 1.212-.515-.47-1.107-1.212.515-.705-1.66 1.213-.515-1.645-3.875-1.213.515-.704-1.66 1.212-.515-.705-1.661-3.031 1.287-.47-1.107-1.213.515-.705-1.661-3.031 1.287-2.82-6.642-1.819.772c-1.395-3.288-2.79-6.576-4.229-9.963l-1.819.772 1.175 2.768-2.425 1.029-1.88-4.428-1.819.772-.47-1.107 1.82-.772-.57-3.025-2.424 1.03-.705-1.661-1.82.772-.568-3.025-1.819.772-.704-1.66 4.479-1.248.47 1.107 1.819-.772-.705-1.661 1.212-.515 1.175 2.768 2.054-.219.717 1.901c.689 2.104.689 2.104 2.61 2.566.693 1.421.693 1.421 1.175 2.768l1.213-.515c-1.54-2.176-1.54-2.176-3.699-3.656-.713-1.442-1.277-2.936-1.88-4.428l-1.212.515-1.376-1.662c-1.207-1.676-1.207-1.676-2.323-1.994a360.223 360.223 0 01-1.772-3.03c-1.03-1.645-2.267-3.047-3.57-4.501.542 1.279 1.084 2.558 1.644 3.875l.606-.257 2.486 4.17-1.213.515.47 1.107-1.819.772-1.175-2.767-1.212.514-1.076-.849-3.267.733-3.994-9.41-3.032 1.287-3.524-8.302 1.213-.515-.705-1.661-2.425 1.03-.705-1.661-1.82.772-.47-1.107 3.032-1.286.47 1.107 1.82-.773-2.252-3.617 1.213-.514-.855-1.067c-.968-1.51-1.268-2.697-1.494-4.469l-.607.258-1.819.772-.705-1.661-1.212.515c-.604-1.091-1.2-2.185-1.795-3.28l-1.01-1.845c-.775-1.642-1.19-3.036-1.424-4.838l1.819-.772-.47-1.107-1.82.772-.704-1.661 1.213-.514-.47-1.107-1.213.514-.705-1.66 3.032-1.287-2.35-5.535 1.213-.515-.705-1.66 1.82-.772-.47-1.107 4.243-1.802.47 1.107 1.82-.772-.47-1.107 1.818-.772.705 1.66 1.213-.514 1.448 1.304c1.596 1.403 1.596 1.403 3.312 1.166l1.129-.397c1.305 1.652 2.005 2.855 2.114 4.981l.978-1.068-.099-1.918 1.82-.772 1.174 2.768-2.425 1.029c1.193 1.502 1.193 1.502 2.993 1.995l.842.297-.099-1.918 2.425-1.03.47 1.107-1.819.772.334 2.472 1.213-.515c1.308.343 1.308.343 2.523.888l.47 1.107 2.426-1.029 1.076.85 2.054-.219.47 1.107 3.638-1.544.47 1.107 3.266-.733.47 1.107 1.02-.76c1.592-.968 2.994-1.578 4.724-2.25 3.941-1.623 6.496-4.111 9.217-7.26l.977-1.069-2.053.219 1.301-1.043c1.43-1.241 1.43-1.241 1.254-2.736a1544.6 1544.6 0 00-.327-1.086l3.031-1.287-.098-1.918.978-1.068c.08-.574.162-1.147.246-1.738.398-1.802.398-1.802 1.533-2.815l1.055-.57-.568-3.025-1.213.515.47 1.107-1.584 1.326-1.88-4.428 1.82-.773c.154.366.31.731.47 1.107l1.212-.514.136-1.365 1.82-.772c-.95-3.972-2.442-7.607-4.094-11.327l-1.212.514-1.88-4.428 1.82-.772.704 1.66 1.213-.514.47 1.107 1.212-.515.705 1.66-1.213.516.47 1.107 1.82-.773c-.832-2.088-1.706-4.04-2.888-5.96-1.182-1.918-2.057-3.87-2.888-5.96l-1.213.516-.704-1.661 1.819-.772-.705-1.66 1.212-.515 2.486 4.17 1.213-.514-.47-1.108 1.213-.514-1.137-6.05-.607.257 1.509 5.24c-.355-.281-.71-.562-1.077-.85l-1.212.514-3.055-7.195-1.212.514c-.47-1.107-.47-1.107-.018-2.36.662-1.18.662-1.18 1.875-1.694l1.78 2.51 1.82-.772-1.683-.592c-.832-1.632-.832-1.632-1.632-3.635l-.813-2.007-.61-1.554-1.212.515-.705-1.66 1.82-.773-.47-1.107 1.212-.514 3.562 5.02-1.213.515 1.547 1.957c1.104-2.412-1.478-6.836-2.368-9.054a300.774 300.774 0 00-2.059-4.745l1.213-.515 1.781 2.51c-.118-2.295-.956-4.058-1.875-6.104-1.766-3.932-1.766-3.932-1.611-5.48l1.212-.516.47 1.107 1.82-.772-1.645-3.874-1.82.772-.704-1.66 1.819-.773-.705-1.66 1.213-.515.704 1.66 1.82-.772-1.88-4.428 1.819-.772 1.076.85 1.35-1.88c-.156-.364-.311-.73-.47-1.106l-1.213.514-.705-1.66-1.213.515-.47-1.107c1.41-.68 1.41-.68 3.032-1.287l1.682.592-1.644-3.874 1.819-.773-.705-1.66 1.212-.515-.47-1.107 1.82-.772-1.41-3.32 1.819-.773.704 1.66 2.426-1.029-.705-1.66-1.213.514-.47-1.107zm-.174 4.647l.94 2.214 1.584-1.326-1.311-1.403-1.213.515zm-2.97 6.487l1.545 1.957.273-2.73-1.819.773zm-3.669 25.073l1.41 3.322c.876-1.914.622-2.733.174-4.647-.76.273-.76.273-1.584 1.325zm1 7.415l1.077.85-1.077-.85zm31.628-11.466l1.076.85-1.076-.85zM79.744 60.595L81.055 62l-1.31-1.404zm.318 14.236l.47 1.108-1.212.514 1.273 4.686 1.213-.515c.47-2.422-.101-3.911-1.137-6.05l-.607.257zm2.077 8.264l1.076.85-1.076-.85zm-1.622 4.608l1.88 4.428-.334-2.471 1.213-.515-.94-2.214-1.819.772zm-65.558 34.36l.47 1.107 1.213-.514-.47-1.107-1.213.514zm15.59-2.045l-.136 1.365 1.682.592-1.546-1.957zm-13.65 11.674l1.076.849-1.076-.849zm9.337 16.94l2.585 6.088.606-.257-2.584-6.089-.607.258zm4.033 6.127c.31.821.629 1.638.952 2.454l.535 1.38c.548 1.321.548 1.321 2.31 1.74.995 1.292.995 1.292 1.78 2.51l1.213-.515-2.72-4.724-1.213.515-1.645-3.875-1.212.515zm1.978 6.346l1.31 1.403-1.31-1.403zm.568 3.025l.705 1.66 1.819-.772-.705-1.66-1.819.772zm4.244-1.802l.362 1.161c.779 2.538 1.49 5.03 1.95 7.657l.705 1.66 1.212-.515c-.341-3.668-1.202-6.63-2.781-9.924l-1.448-.039zm10.278 19.154l.47 1.107 1.818-.772-.47-1.107-1.819.772zm5.987 3.991l.47 1.107 1.212-.514-.47-1.107-1.212.514zm5.184.413c.344 3.493 1.061 6.219 2.546 9.371l1.213-.515-1.175-2.768 1.213-.514 1.311 1.403c.558-.972.558-.972-.31-2.522l-.728-1.61-1.82.772-1.644-3.875-.606.258zm6.086 5.908l.705 1.661-1.213.515 1.175 2.767 2.425-1.029 1.546 1.956.606-.257-1.174-2.767-1.213.514-2.25-3.617-.607.257zM193.8 142.175l.47 1.107.978-1.068-1.448-.039zM70.445 197.15l1.546 1.956-1.546-1.956zm1.41 3.321l1.31 1.403-1.31-1.403zm1.447.038c.775 1.827 1.55 3.654 2.35 5.536l1.212-.515.182 1.27c.442 2.003 1.193 3.767 2.031 5.629l1.213-.514.136-1.365 1.781 2.51.978-1.068c-.701-1.934-.701-1.934-1.645-3.874l-1.682-.593a129.484 129.484 0 01-2.251-3.617l-.841-.296c-.77-1.194-1.521-2.4-2.251-3.617l-1.213.514zm15.25 27.496l1.31 1.403-1.31-1.403zm208.838-59.251l.705 1.66-1.213.515 1.311 1.403 1.35-1.879-.94-2.214-1.213.515zm-1.152 5.715l.47 1.107 1.213-.515-.47-1.107-1.213.515zM36.643 302.951l.705 1.66 1.212-.514-.705-1.661-1.212.515zm2.758 1.442l.47 1.107.978-1.068-1.447-.039zm2.524.888l1.077.85-1.077-.85zm1.918 1.146l.47 1.107 1.212-.515-.47-1.107-1.212.515zm5.282 2.33l1.077.85-1.077-.85zm1.918 1.146l1.076.85.136-1.364-1.212.514zm1.41 3.321l.704 1.661 1.82-.772-.705-1.661-1.82.772zm3.031-1.287l.705 1.661 1.213-.515-1.312-1.403-.606.257zm2.759 1.442l1.076.85-1.076-.85zm8.413 2.962l1.076.849-1.076-.849zm1.917 1.146l.47 1.107 1.213-.515-.47-1.107-1.213.515zm2.289.334l1.076.85-1.076-.85zm.803 3.579l.099 1.918 1.213-.515-1.312-1.403zm5.32-.952l.47 1.107 1.213-.515-.47-1.107-1.212.515zm-1.485 3.243l1.645 3.875 3.032-1.287 1.174 2.768 1.213-.515-2.115-4.982-2.054.219-1.076-.85-1.819.772zm6.768-.913c.11 2.126.81 3.329 2.115 4.982l1.213-.515-.47-1.107 1.212-.515a33.461 33.461 0 00-4.07-2.845zm4.912 3.142l1.076.849-1.076-.849zm-2.092 3.5l.47 1.107 1.212-.514-.47-1.107-1.212.514zm8.92.787l.29 2.367.162 1.332c.185 1.348.185 1.348.92 2.904l1.819-.772-2.486-4.171 1.213-.515 1.78 2.51 1.213-.514-2.016-3.064-1.212.515-.47-1.107-1.213.515zm-3.54 3.462l.706 1.66 1.212-.515-.705-1.66-1.212.515zm-26.92 42.782l.47 1.107 2.19-1.583-2.66.476zm47.763-18.968l1.076.85-1.076-.85zm187.353-79.526l.469 1.107 1.213-.515-.47-1.107-1.212.515zM68.52 384.792l.94 2.214 3.266-.733 1.175 2.768 1.82-.772-2.115-4.982-3.403 2.098-.47-1.107-1.213.514zm6.768-.913l.705 1.661.743-1.622-1.448-.039zm.94 2.214l.705 1.661 1.212-.515-.47-1.107 1.213-.515-.47-1.107c-1.293.452-1.293.452-2.19 1.583zm272.707-114.451l1.311 1.404-1.311-1.404zm-1.349 1.88l.47 1.107 1.212-.515-.469-1.107-1.213.515zM81.276 387.87l1.076.85-1.077-.85zm260.269-103.292l.47 1.107-1.584 1.325.47 1.107-1.212.515.47 1.107c1.947-1.63 2.173-2.842 2.834-5.123l-1.448-.038zm-2.599 5.676l-.137 1.364 1.213-.515-1.076-.849zM100.761 393.317l2.153 1.699 1.584-1.325c-1.196-.5-1.196-.5-2.524-.889l-1.213.515zm237.071-100.631l1.076.85-1.076-.85zM101.701 395.531l.47 1.107 1.212-.515-.469-1.107-1.213.515zm3.873-.991l1.076.85-1.076-.85zm231.614-98.314l1.076.85-1.076-.85zm-230.909 99.975l.704 1.66 1.213-.514-.098-1.918-1.819.772zm-2.797 1.84l.47 1.107 1.213-.515-.47-1.107-1.213.515zm6.298-2.02l.705 1.66-.705-1.66zm-2.092 3.501l1.645 3.874 1.213-.514-.47-1.107 1.819-.772.47 1.107 1.212-.515-.705-1.661-1.38.015c-1.515-.092-1.515-.092-2.591-.942l-1.213.515zm4.48-1.248l1.076.849-1.076-.849zm2.152 1.699l.47 1.107 1.212-.515-.469-1.107-1.213.515zm216.183-89.151l.47 1.107-1.213.515.569 3.024 1.584-1.325-.705-1.661 1.212-.514-.704-1.661-1.213.515zm-210.9 91.481l1.311 1.404-1.311-1.404zm209.513-86.32l.47 1.107 1.213-.515-.47-1.107-1.213.515zm-208.104 89.641l2.35 5.536 1.212-.515-1.978-6.346c-.759.273-.759.273-1.584 1.325zm2.66-.476l1.547 1.957 1.212-.515.569 3.025 2.425-1.029c-.948-2.233-2.347-2.816-4.54-3.952l-1.213.514zm7.2 3.477l.47 1.107 1.213-.515-.47-1.107-1.213.515zm2.289.335l1.312 1.403-1.312-1.403zm1.88 4.428l.94 2.214 1.819-.772-1.546-1.957-1.213.515zm3.032-1.287l.939 2.214 1.213-.515 1.311 1.403-.333-2.471-1.213.515-.705-1.661-1.212.515zm3.835 2.291l1.311 1.403.977-1.068-1.076-.849-1.212.514zm180.682-76.695l.099 1.918 1.213-.515-1.312-1.403zm-177.317 77.88l.469 1.107.978-1.068-1.447-.039zm1.682.592l1.311 1.403-.705-1.66-.606.257zm2.524.889l-.136 1.364 1.584-1.326-1.448-.038zm1.917 1.145l.47 1.107 1.213-.514-.47-1.107-1.213.514zm4.207 1.481l.47 1.107 1.212-.515-.47-1.107-1.212.515zm163.1-69.232l-.137 1.365 1.683.592-.334-2.471-1.212.514zm-1.115 2.433l.705 1.66 1.213-.514-.705-1.661-1.213.515zm-157.779 68.28l.47 1.107 1.213-.515-.47-1.107-1.213.515zm1.918 1.146l1.682.592.137-1.365-1.819.773zm2.288.334l.47 1.107 1.584-1.325-2.054.218zm2.289.335l-.273 2.729 1.213-.515-.47-1.107 1.111.509c1.589.589 1.589.589 3.838-.65l-.47-1.107-1.819.772-.469-1.107-2.661.476zm146.889-55.164l1.311 1.403-.099-1.918-1.212.515zm-.645 3.539l.47 1.107 1.213-.515-.47-1.107-1.213.515zm-.742 1.622l.47 1.107 1.212-.515-.47-1.107-1.212.515zm-5.298 9.434l.47 1.107 1.212-.514-.469-1.107-1.213.514zm-1.349 1.879l.47 1.107 1.584-1.325-2.054.218zm-.508 2.176l.705 1.66 1.213-.515-.705-1.66-1.213.515zm-.508 2.175l.334 2.471 1.212-.514-1.546-1.957zm-19.47 35.047c.031 1.223.031 1.223.333 2.472l1.683.592-1.41-3.321-.606.257zm-13.241 7.58l.47 1.107-1.212.515.705 1.661 2.425-1.03 2.152 1.699-1.409-3.321-1.213.515-1.311-1.403-.607.257zm13.779 18.975l.47 1.107 1.819-.773-.47-1.107-1.819.773zm18.47 9.797l.705 1.66.978-1.068-1.683-.592zm2.759 1.442l.705 1.66-.705-1.66zm-3.911 4.273l.705 1.66 1.584-1.325-1.076-.85-1.213.515zm6.298-2.02l.94 2.214 1.213-.515-.94-2.214-1.213.515zm-1.955 2.136l.568 3.025 1.819-.772-1.174-2.768-1.213.515zm12.248 5.253l2.72 4.724 1.213-.514c-.029-1.81-.275-2.41-1.548-3.753l-1.173-.972-1.212.515zm4.911 3.141l.705 1.661 1.212-.515-.705-1.66-1.212.514zm2.524.889l1.546 1.956-1.546-1.956zm-4.01 2.355l1.645 3.874 1.213-.514-1.039-4.132-1.819.772zm3.737.373l2.114 4.982 1.213-.515-2.115-4.981-1.212.514zm3.031-1.286l.334 2.471 1.212-.515-1.546-1.956zm2.388 2.252l.47 1.107.977-1.068-1.447-.039zm1.917 1.146l1.311 1.403-.098-1.918-1.213.515zm2.524.889l1.076.849.137-1.364-1.213.515zm2.152 1.699l1.547 1.957-.099-1.918-1.448-.039zm2.524.888l1.546 1.957-1.546-1.957zm-.273 2.729l.705 1.661 1.213-.515-.705-1.661-1.213.515zm2.661-.476l.469 1.107 1.585-1.325-2.054.218zm25.094-9.998l.469 1.107 1.213-.515.47 1.107 1.213-.515-.94-2.214-2.425 1.03zm-22.571 10.887l1.077.849.136-1.364-1.213.515zm2.289.334l.47 1.108.978-1.069-1.448-.039zm25.094-9.998l-.136 1.364 1.819-.772-.47-1.107-1.213.515zm-23.176 11.144l.47 1.107 1.212-.514-.47-1.107-1.212.514zm4.206 1.481l.47 1.107 1.213-.515-.47-1.107-1.213.515zm-11.285 5.443l.705 1.661 2.425-1.029-.705-1.661-2.425 1.029zm10.542-3.821l.47 1.107 1.213-.515-.47-1.107-1.213.515zm3.032-1.287l.47 1.107.978-1.068-1.448-.039zm1.917 1.146l.47 1.107 1.213-.515-.47-1.107-1.213.515zm4.813 1.223l1.076.85-1.076-.85zm1.918 1.146l.469 1.107 1.584-1.326-2.053.219zm.704 1.66l.705 1.661 1.819-.772-1.311-1.403-1.213.514z" fill="#6D9773" fill-opacity=".1"/></svg>