<svg width="339" height="349" fill="none" xmlns="http://www.w3.org/2000/svg"><path d="M249.801 2.014l2.367 1.206c-.62 2.532-.62 2.532-1.698 3.331l1.421.724c1.069 3.75 1.069 3.75.427 5.012l2.366 1.206-.727 1.428-1.893-.965c-.545 1.192-.545 1.192-.739 2.62l1.882 2.158-2.91 5.71c.317-.235.633-.47.959-.71l1.893.964-.727 1.427-.947-.482-1.212 2.38 1.431-.47-2.413 3.565.947.483.727-1.428 2.136.489-.727 1.428-.947-.483c-1.35 2.44-2.186 4.324-2.447 7.144l1.443-1.662c.312.16.625.318.947.482.309 2.692-.83 4.42-1.957 6.835l-.503 1.502.936 1.675-.728 1.428-.946-.483c-.16.808-.31 1.618-.455 2.428l-.256 1.366-.051 1.212 1.177 1.2-.485.951.947.483-.727 1.427-1.42-.723c-.559 1.496-.559 1.496-.982 3.096l.705.958-4.861 10.71c.233.315.465.632.704.957l-3.636 7.138-.947-.483-.893 1.58-1.179 2.047-.586 1.042c-1.011 1.744-1.581 2.64-3.368 3.648a51.023 51.023 0 00-1.923 3.628l-.503 1.019c-.408.828-.81 1.66-1.211 2.49l-1.178-1.199-2.182 4.283-.461-1.434-1.928 2.614.946.482a5693.95 5693.95 0 01-2.413 3.565l-.946-.482-1.201 1.186-.462-1.434-.539.885-.714 1.136-.705 1.137-.697.884a442.58 442.58 0 00-1.189-.007l-.95 1.352c-1.364 1.941-2.801 3.266-4.58 4.821l-.947-.483-1.72 5.717c1.47-1.091 1.642-2.58 2.182-4.283l.946.483-.011 1.192 1.42.724 1.201-1.186 1.42.723 1.223-3.572 1.663.248.97-1.903 1.893.964.28-1.28.459-1.34 1.431-.469c.827-1.427.827-1.427 1.455-2.855l-.947-.482.485-.952 2.367 1.206-1.443 1.662 1.372-.499c1.491-.44 1.491-.44 2.438.043l.22-1.237.519-1.384 1.104-.486c1.998-1.078 2.578-2.951 3.467-4.976l2.841 1.447 1.212-2.379 1.662.248 2.171-3.09-.947-.482 1.212-2.38c.313.16.625.32.947.483l.485-.951-.947-.483.727-1.427 1.421.723-.728 1.428.947.482-.485.952.947.482 2.17-3.09 2.136.49 2.424-4.759 1.42.724-.727 1.427 2.852.255.97-1.904 1.306.216c1.507.163 1.507.163 2.561-.493 1.091-1.077 1.956-2.244 2.829-3.503l.946.482-.485.952c3.34-.037 3.34-.037 6.316-1.352l.842-.995 1.201-1.186 2.378.013 1.196-.664c1.194-.516 1.194-.516 2.527.014l1.034.676 1.201-1.186.946.483.739-2.62c-.312-.16-.625-.32-.947-.483l.728-1.428c.468.24.937.478 1.42.724l-.485.951 2.84 1.448.485-.952-1.893-.965.484-.951 1.42.723.728-1.427.946.482-.254 1.669 2.598 1.923.254-1.669 1.961.175c1.998.301 1.998.301 3.038-.625l.947.483 1.2-1.187 1.393.485c1.477.425 2.551.582 4.068.5l.012-1.193 1.614.635c1.864.554 2.735.672 4.562.115l.243-.476 1.481.53 1.601.441.959-.71 1.662.247 1.432-.469c1.114.543 2.219 1.106 3.313 1.688l1.189.007 1.443-1.662 6.385 3.852.485-.952c2.228.84 2.228.84 4.502 1.695l.485-.951 2.367 1.206 1.455-2.855.946.482-1.454 2.855 2.597 1.923-1.466 4.048-1.189-.007-1.697 3.33.011-1.192-.946-.482-1.224 3.572-1.189-.007.485-.952-.947-.482-2.425 4.758-.946-.482-2.91 5.71.012-1.193c-.312-.16-.625-.318-.947-.482l-5.091 9.992-.947-.482-.683 1.487c-1.037 1.886-2.19 3.131-3.658 4.692a82.665 82.665 0 00-2.655 4.041l2.84 1.447.485-.952 1.42.724-1.212 2.379-1.42-.723-.728 1.427-3.786-1.929-2.656 4.041-.946-.483-2.194 5.476-.947-.483-.965 1.456c-1.005 1.363-1.718 2.172-3.122 3.055l-.946-.483-.485.952.947.482-.485.952-2.61-.73-.969 1.903-2.367-1.206-1.212 2.379-2.367-1.205-1.212 2.379-1.42-.724c1.168-2.724 1.168-2.724 2.619-3.385l.983-.174c-1.633-.444-1.633-.444-2.621.463-2.857.342-2.857.342-4.041-.261l-.485.952-1.662-.248-.727 1.428-2.598-1.923-.485.951-1.008-.289-1.128-.2-.958.711-1.893-.965-.485.952-1.245-.41-1.364-.32-.959.71-2.366-1.206-.485.952-1.482-.53-1.601-.441-.958.71-2.84-1.447-.485.952-1.718-.651-1.838-.562-.958.711c-1.261-.415-1.261-.415-2.74-1.059-1.67-.893-1.67-.893-3.425-.884-1.17-.455-2.328-.938-3.48-1.436l-1.912-.822-1.478-.643-.484.952-1.32-.583c-3.158-1.37-6.244-2.6-9.58-3.458-1.784-.48-3.49-1.123-5.217-1.773l-.243.475-1.421-.574c-1.626-.588-1.626-.588-2.812.253l-.766.771 1.189.007c1.298.58 2.53 1.263 3.787 1.929l-.97 1.903-2.366-1.206.485-.951-1.42-.724-.485.952-.947-.483-.727 1.428.704.958 1.201-1.186.704.958-.485.952 1.291.648c1.595.803 3.19 1.608 4.783 2.414l2.063 1.039c7.338 3.684 7.338 3.684 10.081 5.781l.231.717c.818.557 1.653 1.09 2.497 1.609l1.389.86 1.078.659-.485.952 4.491 2.888-.484.951 3.313 1.689-.012 1.192c1.275 1.044 1.275 1.044 2.598 1.923l-.485.952 2.84 1.447-.254 1.669 1.865.875c1.049.492 1.049.492 1.922 1.054l.462 1.434 1.177 1.2-.484.951 2.366 1.206-.485.952.981.851 1.26 1.115 1.26 1.105c.979 1.009.979 1.009.967 2.202.801.799.801.799 1.651 1.441l-.485.951 1.894.965-.012 1.193c.781.941.781.941 1.766 1.874l.994.979.773.745.958-.71-.254 1.668-1.189-.006 1.651 1.44-.485.952 4.029 1.454-1.2 1.186.704.958-.485.952.947.482.254-1.669 1.42.724-.012 1.193 2.367 1.206-.739 2.62 1.42.723-.727 1.428-1.894-.965-.471.966c-2.084 4.195-2.084 4.195-3.639 5.93l-.946-.482.97-1.903-1.169-.558c-1.198-.648-1.198-.648-1.429-1.365a45.093 45.093 0 00-2.023-1.368l-1.124-.725-.871-.554-.485.952-1.481-.53-1.601-.441-.958.71c-1.261-.415-1.261-.415-2.74-1.059-1.67-.892-1.67-.892-3.425-.883-1.043-.364-2.058-.781-3.08-1.197l-.95-.257-.958.71-1.597-.724c-3.819-1.713-7.581-3.293-11.615-4.451-1.242-.391-1.242-.391-3.136-1.356l-.485.952-.959-.444c-1.43-.659-2.862-1.315-4.294-1.971l-1.51-.698-1.446-.66-1.334-.613c-1.097-.517-1.097-.517-2.302-.451a85.222 85.222 0 01-3.344-1.629l-1.806-.916c-1.477-.832-1.477-.832-2.181-1.79a129.06 129.06 0 00-3.71-2.227l-1.049-.614c-.857-.499-1.714-.997-2.572-1.494l-.485.952.947.482-.485.952 1.42.724-.485.951-3.787-1.929 1.212-2.379-1.177-1.2-.366-1.399c-.72-1.894-1.524-2.274-3.276-3.228-2.629-1.449-2.629-1.449-3.655-3.286l-1.177-1.199.485-.952-2.84-1.447.011-1.193a307.093 307.093 0 00-2.586-3.116l-.462-1.434-1.189-.006 1.42.723-1.697 3.331-1.42-.723.011-1.193-.946-.483-.485.952-.947-.482 1.697-3.331-.946-.482-1.443 1.662-2.61-.73.728-1.428-.947-.482.485-.952-1.42-.723.727-1.428-1.42-.724.727-1.427-.946-.482.485-.952-1.42-.724.727-1.427-.947-.482.485-.952-3.787-1.929.728-1.428 1.42.724 1.928-2.614-2.852-.254-.727 1.427c-.711.251-1.427.483-2.148.704-1.065.716-1.065.716-1.916 1.421l-1.42-.724-.727 1.428-.947-.483-.485.952-.933-.363c-1.293-.274-1.293-.274-2.416.792l-.946.979.704.958.485-.952c1.045-.441 1.045-.441 2.148-.703l.946.482-.727 1.427-.947-.482-2.424 4.758 2.367 1.206-.243.476a453.558 453.558 0 01-3.095-1.24l-1.74-.697c-1.329-.615-2.199-1.131-3.212-2.163l.728-1.428-1.189-.006-.497 2.144 14.674 7.477-.485.952 4.964 3.129-.485.951 2.841 1.447-.254 1.669 3.786 1.929-.485.952 3.071 2.164-.484.952 3.786 1.929-.485.952 1.522 1.037c1.549 1.127 1.549 1.127 1.78 1.844.702.401 1.42.773 2.145 1.13l1.192.591.923.45-1.2 1.186 2.124 1.682-.485.951 2.84 1.447-.485.952 2.598 1.923-.485.952 2.367 1.206-.012 1.192c.801.799.801.799 1.651 1.441l-.485.952 2.367 1.205-.011 1.193c.8.799.8.799 1.651 1.441l-.485.951 1.893.965-.727 1.428 1.893.964-.485.952.738.601c.934.859 1.64 1.685 2.322 2.756l-.012 1.193 1.178 1.199-.485.952 1.42.723c.465 1.062.465 1.062.693 2.151l-.485.952 1.42.724-.266 2.861.947.482c.436 1.047.436 1.047.693 2.151l-.485.952.946.482c.34 1.213.628 2.441.886 3.673l.44 2.036c.268 1.696.268 1.696-.217 2.648l.946.482-.484.952 2.135.489.485-.952.947.482-.91 1.745-1.165 2.255-.602 1.151c-.499.97-.974 1.954-1.445 2.938l.231.717a44.462 44.462 0 01-1.434 2.304l-.821 1.251-.642.963 3.786 1.929-.485.952-1.42-.724-.727 1.428-.947-.483.728-1.427-1.42-.724-.728 1.428-.946-.483 2.424-4.758-5.911-3.611.727-1.428-1.42-.723-.254 1.668-5.207-2.653 1.663.248.485-.951a553.85 553.85 0 00-1.618-.267c-2.327-.452-4.477-1.243-6.684-2.09l-1.181-.445c-.95-.359-1.899-.721-2.847-1.084l-.243.476-1.27-.537-1.646-.687-1.641-.688c-1.252-.625-1.252-.625-2.081-.271a113.303 113.303 0 01-3.601-1.198l-1.98-.689-1.531-.538-1.212 2.379-9.467-4.824.727-1.427-1.42-.724-.727 1.428-.947-.483.728-1.427-7.101-3.618-.727 1.427-1.42-.723 1.212-2.379-2.367-1.206.728-1.428-2.367-1.205.97-1.904-3.545-2.405 1.201-1.186a488 488 0 00.722-.906l.721-.756 1.189.006-1.177-1.199.485-.952-3.083-.971-.727 1.427.947.483 1.2-1.187c.437.972.437.972.693 2.151-.678.966-.678.966-1.443 1.662l-1.42-.723.485-.952-1.894-.964.739-2.621-1.893-.964.739-2.621-3.314-1.688-.485.952-1.42-.724.485-.952-.947-.482.728-1.427-1.42-.724.485-.952-.947-.482.727-1.427.947.482 1.697-3.331-.704-.958-1.455 2.855-2.367-1.206.728-1.428.946.483 1.698-3.331-.947-.482-1.686 2.138-2.366-1.206.727-1.428 1.42.724 1.224-3.572-2.159 1.897-.947-.483 2.667-5.234-1.42-.723-1.212 2.379-.947-.483 1.951-4.999-1.893-.965 1.212-2.379-2.367-1.206 1.212-2.379-1.42-.723-1.212 2.379-.946-.483a9402.39 9402.39 0 011.951-4.999l-3.083-.971.254-1.669.958-.71-1.014.382c-1.133.321-1.133.321-2.08-.161l-.485.952-.946-.483-.728 1.428-1.189-.007-1.201 1.187.947.482-1.2 1.186-.947-.482-.485.952-1.42-.724-.727 1.427c-1.115.395-1.115.395-2.43.673l-1.321.289-1.018.205.231.717-.254 1.669-.946-.483-2.644 2.849-2.609-.73.485-.952-.947-.482-.254 1.668-1.663-.247-1.2 1.186-.947-.482-.727 1.427-1.42-.724-.485.952 2.136.489c-.419 1.757-.623 2.506-1.94 3.807l-.947-.483-.485.952-.736-.75-.914-.691-1.432.47-1.42-.724-1.201 1.186-.946-.482-.728 1.427-.947-.482-1.443 1.662 1.894.965c-.419 1.757-.623 2.506-1.94 3.807l1.663.247.485-.951c2.145.683 3.97 1.34 5.801 2.656 1.993 1.387 4.11 2.341 6.33 3.3l1.052.458c1.868.814 1.868.814 3.869 1.075.844.38 1.675.79 2.497 1.214l1.477.759 1.543.801 1.558.802c1.271.655 2.542 1.312 3.812 1.972l-.243.475 1.75 1.133 2.253 1.469 1.156.747 1.096.716 1.017.661c.764.567.764.567.994 1.284.819.557 1.654 1.09 2.497 1.61l1.39.86 1.078.659-.485.952 3.544 2.405-.485.952.883.539c2.385 1.488 4.454 2.995 6.437 4.988l-.485.952 1.388.932c1.519 1.112 2.763 2.254 4.038 3.631l-.485.951 3.071 2.165-.485.951 2.367 1.206-.011 1.193c.888.998.888.998 2.002 1.994l1.127 1.047.877.798-.485.952 1.651 1.44-.485.952 2.367 1.206-.728 1.427 1.894.965-.485.952 1.893.965-.011 1.192 1.177 1.2-.485.951 1.651 1.441-.485.952.947.482c.436 1.046.436 1.046.693 2.151l-.485.952 2.367 1.206-.485.951 2.113 2.875-.485.951.946.483c.436 1.046.436 1.046.693 2.151l-.485.951c.893-.233.893-.233 1.917-1.42l1.177 1.199-.739 2.62.947.483.485-.952 1.42.723-4.849 9.517-2.84-1.447-.739 2.62-2.367-1.206c1.13-1.634 1.88-2.401 3.833-2.842l-1.177-1.199-1.201 1.186-1.42-.723-.485.951-.947-.482-.727 1.427-1.893-.964-.485.951-1.42-.723-.728 1.427-2.366-1.206-.485.952-1.42-.724-.728 1.428-2.366-1.206-.485.952-2.136-.489-.485.951-2.84-1.447-.485.952-2.609-.73-.485.952-1.54-.561c-1.936-.626-3.815-1.021-5.814-1.389a86.896 86.896 0 01-2.609-.73l-.485.952c-1.792-.896-3.581-1.797-5.37-2.699l-1.544-.771-1.477-.747-1.363-.685c-1.133-.645-1.133-.645-2.311-1.845l-.496 2.145-2.367-1.206.727-1.427-1.177-1.2 2.609.73-1.536-1.007-1.535-1.157.012-1.193c-.894-.734-.894-.734-2.009-1.397l-1.13-.712-.879-.537.485-.952a6689.51 6689.51 0 01-3.071-2.164l.485-.952-3.787-1.929.485-.952-2.84-1.447.727-1.427-2.84-1.447.485-.952-2.124-1.682.484-.951-1.893-.965.012-1.193-1.178-1.199.485-.952-1.894-.965c-.495-1.076-.495-1.076-.692-2.151l.485-.951-1.42-.724.011-1.193-.781-.66c-1.032-.926-1.288-1.582-1.563-2.931l.485-.952-1.42-.723.485-.952-1.65-1.441.139.97c-.243 2.111-1.322 3.282-2.576 4.981l-1.42-.723 1.94-3.807-.947-.482-.727 1.427-1.42-.723 1.212-2.379-2.367-1.206.728-1.428-2.367-1.206.727-1.427 1.42.724.677-.817c.766-.846.766-.846 1.482-1.08l-3.06-3.357-.98 3.096-1.42-.724c1.245-2.736 1.245-2.736 3.128-3.8l-2.367-1.206.485-.951-2.84-1.447.012-1.193c-.778-.653-.778-.653-1.757-1.233-1.765-1.104-1.765-1.104-2.019-1.889a68.251 68.251 0 00-2.854-1.492l-1.591-.795-1.235-.608.485-.951 2.367 1.206.485-.952-4.03-1.454-1.2 1.187-1.42-.724.727-1.427-1.65-1.441-1.213 2.379-1.42-.723-3.371 4.276-1.42-.724-.497 2.144-1.177-1.199-.728 1.428.947.482-.727 1.427.946.483-.727 1.427-1.42-.723-.485.951-.947-.482-.727 1.427-.947-.482-2.17 3.09-1.65-1.441.484-.952-.947-.482-1.685 2.138-.947-.482-.727 1.427.946.483 1.917-1.421 1.42.723-.485.952-.947-.483-2.413 3.566-1.42-.724.023-2.385-2.158 1.896-.947-.482-.012 1.193 1.663.248-1.213 2.379-1.42-.724-1.212 2.379-.946-.482-.728 1.427-1.42-.723-.727 1.427a57.13 57.13 0 003.556 1.213l.958-.711 3.071 2.164.485-.951a522.89 522.89 0 00-.704-.958l2.609.73-.254 1.668 4.26 2.171.485-.952 1.42.724-.485.951.947.483.485-.952 13.946 8.904.496-2.144 3.787 1.929-.727 1.428-2.852-.255 2.355 2.399-.484.952.915.424 1.186.572 1.182.56c.977.615.977.615 1.438 2.049.824.804.824.804 1.651 1.44l-.485.952 3.787 1.929-.485.952 1.651 1.44-.484.952 2.84 1.447-.012 1.193c1.037.921 1.037.921 2.124 1.682l-.485.951 2.84 1.447-.011 1.193c.8.799.8.799 1.65 1.441l-.484.951 2.84 1.448-.011 1.192c.77 1.03.77 1.03 1.763 2.098l.993 1.105 1.007 1.113c.629.717 1.257 1.436 1.882 2.157l-.485.952.877.798 1.127 1.047 1.127 1.038c.875.956.875.956.864 2.149.8.798.8.798 1.651 1.44l-.485.952 2.367 1.206-.728 1.427.959.751 1.166.931.915.691c.901.918 1.172 1.645 1.428 2.901l-.485.951 2.367 1.206-.011 1.193c.8.799.8.799 1.65 1.441l-.484.951 2.84 1.447-.728 1.428 3.083.971-.727 1.428 4.733 2.411-.958.711 3.556 1.212-.293 1.013-.204 1.132.704.958.485-.952.947.483-2.898 4.517-1.42-.724-.485.952-1.724-.054c-1.794-.146-1.794-.146-2.801.745l-1.894-.965-.727 1.428-2.84-1.448-.485.952-2.367-1.206-.485.952-1.244-.41-1.365-.32-.958.71-1.893-.965-.485.952-3.083-.971-.485.951c-4.28-.125-4.28-.125-6.407-1.466l-.485.951-1.245-.409-1.364-.321-.959.711-5.68-2.894-.485.951-4.502-1.695-.485.952-18.934-9.647.485-.952-4.018-2.646.485-.952-4.733-2.412.011-1.193a58.47 58.47 0 00-3.07-2.164l-.728 1.428c.914.667 1.83 1.333 2.745 1.998l1.545 1.124c1.346.99 1.346.99 2.798 1.688l-.97 1.904.948.482-.728 1.427-2.124-1.681.485-.952-.947-.482-1.212 2.379-1.42-.724 1.697-3.331-1.42-.723-.485.952-3.314-1.689 1.213-2.379-1.42-.723-.485.951-3.556-1.212.727-1.428.947.483.485-.952-3.314-1.688.97-1.904c2.51 1.152 4.221 2.396 6.142 4.329l.716-.235c-1.047-1.847-2.027-3.091-3.764-4.315l.485-.952-4.48-4.08.486-.952-1.178-1.199.485-.952-2.367-1.206-.496 2.145 2.124 1.681-.727 1.428 2.366 1.206-.97 1.903-2.366-1.206-.485.952-1.42-.724 1.94-3.806a550.15 550.15 0 00-1.261-.305c-1.349-.425-1.349-.425-2.053-1.384l-.727 1.428-1.42-.724.727-1.427-4.733-2.412 1.212-2.379-2.367-1.206 2.424-4.758-1.42-.724-.485.952-.946-.482 1.697-3.331-1.42-.724-.485.952-.947-.483.485-.951-.947-.483.728-1.427.947.482.484-.951-1.42-.724-.484.952-.947-.483 1.224-3.571-.947-.483-.485.952-.947-.483.485-.951-1.42-.724-1.212 2.379-.947-.482 2.425-4.758-2.125-1.682.74-2.62-.947-.483-1.455 2.855-1.42-.723 2.667-5.234-.947-.483-1.94 3.807-2.366-1.206 1.212-2.379.947.482 1.94-3.806-.948-.483-.727 1.428-.947-.483-1.2 1.187c-1.386.305-1.386.305-2.62.462l.253-1.668-1.443 1.662-.947-.482-3.844 4.034 2.124 1.682-1.2 1.186-.947-.482-.485.952-1.42-.724.97-1.903-.947-.483-.708.951c-.963 1.169-1.978 2.114-3.137 3.084l-.946-.482-.708.95c-.963 1.17-1.978 2.115-3.137 3.084l-.947-.482-.707.95c-.963 1.17-1.978 2.115-3.137 3.085l-.947-.483-.737.936-2.634 3.34-.947-.482-1.697 3.331-.219-1.91-1.686 2.138-.946-.483-2.886 3.325 1.42.723-1.455 2.855 1.618.672 2.127.899 1.064.441c2.084.886 3.831 1.854 5.604 3.294l.485-.952 5.219 1.461.242-.476 6.396 2.659.243-.476 7.342 3.142.728-1.427c1.29.54 2.577 1.085 3.864 1.632l1.111.464c2.76 1.178 2.76 1.178 3.545 2.245l-.727 1.428 2.366 1.206-.242.475-4.03-1.453 7.332 4.334-.485.952 1.181.712 1.523.928 1.521.923c1.212.807 1.212.807 1.443 1.524.907.63 1.84 1.206 2.779 1.788l.766.617-.012 1.193c1 .754 2.024 1.478 3.071 2.164l-.485.952 3.071 2.164-.485.952 3.787 1.929-.011 1.193c.8.799.8.799 1.65 1.441l-.484.951 2.84 1.447-.485.952 2.597 1.923-.484.952 2.84 1.447-.012 1.192c.8.799.8.799 1.651 1.441l-.485.952 2.84 1.447-.011 1.193 1.177 1.199-.484.952 2.366 1.206-.011 1.192c.8.799.8.799 1.65 1.441l-.484.952 1.154.513c1.212.692 1.212.692 1.674 2.126l1.092.856 1.033.826-.012 1.193c.78.941.78.941 1.766 1.874l.994.979.773.745-.485.952 2.124 1.682-.485.951 1.894.965-.728 1.427.989.766c1.136.916 1.136.916 2.313 2.116l-.485.951 1.675.516c1.582.586 2.412.94 3.532 2.137-.1 1.148-.1 1.148-.739 2.62-.914.611-.914.611-2.033 1.212-2.448 1.333-3.617 3.01-4.928 5.43-1.823-.271-2.425-.756-3.787-1.929l.485-.952 2.367 1.206.727-1.427-6.384-3.853-.485.952-3.083-.971-.485.951-3.787-1.929-.727 1.427-2.84-1.447-.485.952-1.718-.651-1.838-.562-.958.711-2.84-1.447-.485.951-3.556-1.212-.485.952-2.84-1.447-.485.951-3.798-.736-.242.475-1.734-.62c-1.637-.73-1.637-.73-2.538-.357a65.285 65.285 0 01-2.77-1.074l-1.512-.619-1.167-.485-.485.952-.96-.379-1.247-.483-1.241-.485c-.998-.445-.998-.445-1.77-.113-3.617-1.224-6.979-2.847-10.377-4.575l-1.544-.765-1.478-.75-1.333-.671c-1.195-.763-1.748-1.48-2.54-2.639-1.4-.93-2.841-1.749-4.299-2.583l-1.139-.787.012-1.193c-.8-.798-.8-.798-1.651-1.44l.485-.952-3.314-1.688.485-.952-.877-.798-1.127-1.047-1.127-1.038c-.875-.956-.875-.956-.863-2.149-1.038-.921-1.038-.921-2.125-1.682l.485-.951-1.893-.965.727-1.427-1.42-.724.485-.952-1.42-.723c-.465-1.061-.465-1.061-.693-2.151l.485-.952-.947-.482c-.405-1.106-.405-1.106-.692-2.151l-.959.71-.946-.482-2.182 4.282-1.42-.723.485-.952-.947-.482.727-1.428.947.483 2.17-3.09-1.42-.723-1.212 2.379-2.367-1.206.728-1.428.946.483.485-.952-3.313-1.688.727-1.428-1.42-.723 1.697-3.331-.946-.482.727-1.428.947.483 1.212-2.38 1.893.965.97-1.903-.947-.483-.485.952-1.177-1.199.485-.952-.947-.482-.537 1.712c-.687 1.86-.687 1.86-1.887 3.046l-.947-.482.485-.952-.947-.482.727-1.428.947.482 2.205-6.668-2.84-1.447.485-.951.947.482c.775-.712.775-.712 1.443-1.662l-.22-1.91-.958.711.947.482-.485.952-.947-.483-.485.952-.946-.483.023-2.385-2.17 3.089-.947-.482.485-.952c-.47-.238-.938-.477-1.42-.723l1.697-3.331-.947-.482-.485.951-1.42-.723-.739 2.62-1.42-.723-1.212 2.379-.704-.959 1.212-2.379-.947-.482-2.667 5.234-.704-.958c-.631 1.158-1.17 2.168-1.43 3.466-.357 1.354-1.056 2.15-1.964 3.195l-.474-.241.982-3.096-1.94 3.807-1.189-.007.012-1.193-1.686 2.138-.947-.482-1.697 3.331-1.42-.724-.759 1.636c-.938 1.695-.938 1.695-2.37 2.164-.826 1.427-.826 1.427-1.454 2.855l-1.663-.248-1.697 3.331-.947-.482-2.412 3.565-.947-.482-1.697 3.331-1.19-.007a107.447 107.447 0 00-2.17 3.09l-.716.234a45.777 45.777 0 00-1.372 2.036l-.727 1.13-.556.875-.947-.482-.762 5.006.947.482-.727 1.428-1.42-.724-.485.952-1.19-.007c-.799.807-.799.807-1.442 1.663l.946.482-.97 1.903c-2.187.262-3.426-.223-5.46-.984l-1.928 2.614 1.42.723-.728 1.428c-3.698-1.81-3.698-1.81-4.49-2.888l.484-.952-1.864-.875c-1.049-.492-1.049-.492-1.922-1.054-.462-1.434-.462-1.434.156-2.835l.883-1.618c1.173-2.131 1.173-2.131 1.988-4.409.424-1.455.998-2.682 1.693-4.028l.755-1.471.788-1.515.796-1.546c.646-1.255 1.295-2.509 1.946-3.762l1.42.723-3.637 7.138c1.2-1.061 1.2-1.061 1.686-2.138l.946.482.906-1.411c1.26-1.672 2.453-2.604 4.14-3.81.993-1.133.993-1.133 1.685-2.138l-1.42-.723-2.413 3.565c-.462-1.434-.462-1.434.183-2.927l.902-1.689.9-1.701.705-1.302 1.893.964-1.685 2.138.947.483 2.412-3.566 1.42.724c1.166-.865 1.696-1.784 2.467-3.014l.79-1.251.6-.963.946.483-.011 1.192 1.431-.469c.517-1.039.517-1.039.93-2.336 1.355-3.622 3.331-6.765 5.374-10.035l.946.482-1.223 3.572c1.166-.865 1.696-1.784 2.467-3.013l.788-1.251.6-.964-.946-.482.727-1.427.947.482.485-.952.947.483-.485.951 1.42.724 1.697-3.331.947.482-.97 1.904.947.482.4-1.519c.838-2.5 2.5-4.352 4.194-6.329l1.42.724.012-1.193-1.893-.965.727-1.427.947.482.484-.951c.47.238.938.477 1.42.723l-.484.952.946.482.485-.952.947.483-1.455 2.855.947.482 1.212-2.379.947.482c.558-1.496.558-1.496.981-3.096l-.704-.958.485-.952 1.42.724.958-.71-.727 1.427.947.482c.945-2.871.945-2.871.441-5.693l-.615-.988.485-.951 1.42.723.485-.952-6.153-3.135.484-.952-2.82-1.32c-.966-.609-.966-.609-1.619-1.522-.998-1.325-2.144-1.964-3.563-2.808l-1.49-.896-1.14-.669.484-.952-1.52-1.037c-1.55-1.127-1.55-1.127-1.781-1.844l-1.551-1.052-1.52-1.112.011-1.193a29.241 29.241 0 00-1.65-1.441c-.79-.795-1.576-1.593-2.356-2.398l.485-.952-2.124-1.682.484-.951-2.366-1.206.011-1.193c-.8-.799-.8-.799-1.65-1.441l.484-.951-2.84-1.447.012-1.193-1.178-1.2.485-.951-.558-.734c-1.12-1.557-2.152-3.163-3.194-4.774l.485-.952-3.083-.971-.727 1.427.946.483.485-.952 1.42.724-.496 2.144c-1.663-.248-1.663-.248-2.84-1.447l-.728 1.427-.946-.482 1.94-3.807-6.154-3.135.485-.952.946.483 2.425-4.758-1.651-1.441.485-.952-1.42-.723-.485.951-1.42-.723 1.697-3.331-2.367-1.206 1.212-2.379-.946-.482-1.212 2.379-1.42-.724 3.151-6.185.947.482-.739 2.62.947.483 1.685-2.138-.946-.483.97-1.903-.947-.482-.959.71-.935-1.675-2.182 4.282-1.42-.723 4.364-8.565-1.189-.007a58.739 58.739 0 00-2.17 3.09l-2.367-1.206.485-.952 1.42.724.727-1.427-1.42-.724 1.686-2.138.947.482 1.939-3.806-1.42-.724-.727 1.428-.947-.483c1.929-5.345 1.929-5.345 3.637-7.137l-.947-.482-1.212 2.379-1.42-.724-.485.952.947.482-.728 1.428-2.367-1.206 1.94-3.807-.947-.482.485-.952.947.483.727-1.428-.947-.482 1.698-3.331-1.42-.724.727-1.427-.947-.482.728-1.428 2.366 1.206 1.213-2.379-1.42-.724.484-.951-.946-.483 1.212-2.379-1.42-.723.727-1.428 1.42.724.012-1.193-.947-.482 3.152-6.186-.947-.482.727-1.428-1.42-.723 1.698-3.331 1.42.723a58.258 58.258 0 001.223-3.572l-.704-.958.485-.952-2.367-1.205.728-1.428.946.482.511-1.085c2.202-4.51 4.864-8.583 7.71-12.707l-.947-.482 1.685-2.138c1.04.155 1.04.155 2.136.489l.462 1.434 1.42.723-.485.952 2.84 1.447-.011 1.193c1.274 1.043 1.274 1.043 2.597 1.923l-.485.951 4.48 4.081-.485.952 2.597 1.922-.484.952 3.313 1.688-.012 1.193c1.038.922 1.038.922 2.125 1.682l-.485.952 2.84 1.447-.485.951 1.651 1.441-.485.952 1.894.964c.337.946.645 1.903.923 2.868l1.178 1.2-.012 1.193 1.178 1.199-.485.952 3.082.971-1.2 1.186.704.958-.485.952 3.533 3.598-.485.952 1.65 1.44-.484.952 1.42.723c.323.951.63 1.908.924 2.868l1.177 1.2.924 2.868 1.178 1.199c.45 1.091.45 1.091.692 2.151l-.485.952 1.42.723c.466 1.062.466 1.062.693 2.151l-.485.952.754.496c1.266 1.333 1.536 2.78 2.052 4.53l.935 1.675-.728 1.427.679.772c.896 1.405.972 2.476 1.147 4.129.311 2.17.311 2.17 1.627 3.805 1.152.6 1.152.6 2.874 1.111l-.727 1.427-.947-.482-1.928 2.614.947.482-.739 2.62.947.483-.728 1.427 1.178 1.2-.97 1.903.704.958c-.047 1.346-.047 1.346-.221 2.921l-.169 1.584-.14 1.218.946.482-.71 1.175c-.904 2.04-.965 3.519-1.022 5.735l.947.482-.485.87-.62 1.152-.621 1.137c-.6 1.22-.6 1.22-.237 3.033a52.306 52.306 0 01-1.697 3.331l1.178 1.199-.477.853-.613 1.14-.613 1.12c-.528 1.288-.524 2.178-.502 3.556a75.683 75.683 0 01-1.224 3.571l.473.242-1.223 3.572 1.431-.47-.348.898c-.791 2.064-1.551 4.101-2.1 6.246l1.42.724 1.929-2.614-.947-.482.727-1.428 1.894.965 1.2-1.186.705.958-1.928 2.614.946.482.91-1.859c.91-1.859.91-1.859 1.988-2.658l-.704-.958.727-1.428.947.483.727-1.428 1.42.724.485-.952.947.482.958-.71-3.787-1.93.728-1.427 1.42.724.485-.952.946.482-.485.952.947.482.727-1.427 1.894.965 1.443-1.663-.947-.482-.485.952-.946-.483.727-1.427.947.482 2.159-1.897 1.42.724.727-1.427-.947-.483 1.697-3.331.947.483-.485.951.947.483 2.17-3.09.947.483c1.697-1.093 2.569-2.284 3.606-4.007l.831-1.365.62-1.042 3.082.971.497-2.144.946.482.728-1.428 1.42.724 1.2-1.186.947.482.012-1.193-.947-.482 4.364-8.565-3.36 3.083-.946-.482 2.424-4.759 1.651 1.441-.134-1.492c-.074-1.611-.074-1.611.411-2.562l-.947-.483c-.435-1.046-.435-1.046-.692-2.151l.485-.951-.947-.483.011-1.193-1.177-1.199-.924-2.868-1.177-1.199.485-.952-1.651-1.44.485-.952-2.367-1.206.485-.952-2.125-1.681.485-.952-2.84-1.447.485-.952-4.006-3.839.485-.952-1.651-1.44.485-.952-2.367-1.206.012-1.193c-.8-.798-.8-.798-1.651-1.44l.485-.952-1.42-.723.011-1.193c-.8-.799-.8-.799-1.65-1.441l-.497 2.145.946.482-.485.952c-1.75-.413-2.495-.615-3.786-1.93l-.728 1.428-.946-.483.727-1.427-1.42-.724.485-.951 1.42.723.727-1.427-1.23-.29c-1.379-.44-1.379-.44-2.557-1.64l-.727 1.428-.947-.483 1.213-2.379c2.228.679 3.947 1.316 5.68 2.894l-1.213 2.38c.47.238.938.477 1.42.723l.16-1.043c.11-.363.222-.727.337-1.101l1.432-.47-1.294-1.483c-1.293-1.632-1.293-1.632-1.281-2.825-.8-.799-.8-.799-1.65-1.441l.484-.951-.679-.496c-1.389-1.35-2.287-2.895-3.316-4.537l.485-.951-1.013-1.303c-.917-1.311-1.427-2.195-1.792-3.723l-.485.952-.947-.482-.97 1.903.947.482-.727 1.428-.947-.483-.727 1.428-1.42-.724 1.94-3.806-3.314-1.689.727-1.427-1.42-.724.485-.951-.947-.483.728-1.427-1.42-.724 2.424-4.758.947.482.727-1.427-2.136-.489-1.212 2.379-1.42-.723 3.88-7.614-.948-.482-1.94 3.807-1.42-.724.486-.952-1.42-.723.727-1.428 1.42.724 1.212-2.379.947.482.485-.951-1.894-.965-.484.951-1.42-.723 2.424-4.758.947.482 2.413-3.565-.705-.959 1.94-3.806-.947-.482.449-1.832.302-1.982-1.178-1.199-.762 5.006.947.482c-1.73 3.689-1.73 3.689-3.614 4.752l-.947-.482.74-2.621-1.894-.964 1.212-2.379-1.42-.724.727-1.427-.946-.483 1.212-2.379-1.42-.724.727-1.427 1.42.724.485-.952 1.894.965.727-1.428-1.893-.965.484-.951-1.42-.724 1.213-2.379-.947-.482.727-1.428.947.483 1.212-2.38-.947-.482.485-.951.947.482.727-1.428-1.42-.723.485-.952-.947-.482 2.667-5.234.947.482 2.898-4.517-1.42-.723-1.212 2.379-1.42-.724 1.212-2.379-.947-.482.485-.952c.312.16.625.318.947.482l.727-1.427-.947-.483.728-1.427 2.124 1.682 6.303-12.372 2.367 1.206-1.94 3.807 1.42.723c.1-.291.198-.583.3-.884 1.32-3.649 3.18-6.805 5.277-10.06l-1.42-.723 1.212-2.38 2.367 1.207-.012 1.193 1.154.13 1.504.212 1.495.193c1.308.449 1.308.449 2.097 1.626.377 1.215.377 1.215-.108 2.167l-1.189-.007.935 1.675.936 1.676-.485.951 1.42.724-.728 1.427.825.795c1.387 1.788 2.284 3.727 2.916 5.906l-.485.952 1.42.723-.485.952.898.944c.956 1.179 1.253 1.942 1.677 3.364l1.177 1.2-.484.951 1.893.965-.012 1.193a85.177 85.177 0 002.586 3.116l-.727 1.427 1.42.724-.485.951 1.894.965-.728 1.428 1.42.723-.485.952 1.651 1.44-.485.952 1.42.724-.484.951.946.483 1.455-2.855 1.42.723-.727 1.428 2.366 1.206-1.212 2.379.947.482-.485.952-1.42-.724-1.2 1.186.382.919.503 1.219.499 1.202c.87 2.207.87 2.207 1.167 3.355l-.485.951 1.177 1.2c.279 1.076.279 1.076.44 2.284l.172 1.209c.058 1.043.058 1.043-.427 1.995l1.178 1.199-.485.952.947.482-.266 2.862.947.482c.581 1.346.581 1.346.923 2.868l-.97 1.904.947.482-.485.952 3.556 1.212-1.443 1.662.012-1.193-.947-.482.27 1.224c.18 1.403.18 1.403-.547 2.83l.947.483c.05 1.612.002 2.335-.75 3.813l1.177 1.199c.37 2.786.37 2.786-.277 4.054l.947.483-.183 1.967c-.31 2.006-.31 2.006.61 3.045.032 1.253.032 1.253-.023 2.386l.473.241-.297 1.534c-.343 1.714-.343 1.714.21 2.879.446 1.765-.548 2.9-1.426 4.406l.947.483-1.212 2.379.947.482.958-.71c-.254 1.668-.254 1.668-.744 3.142-.464 1.532-.665 2.892-.757 4.484l.474.241-2.46 8.337.947.482-.314 1.088-.409 1.428-.407 1.415c-.386 1.359-.386 1.359-.602 2.978-.587 1.304-1.269 2.543-1.94 3.807l.947.482-1.95 5 .946.482-1.466 4.048 1.053.2 1.083.289.23.717c.973-.573.973-.573 1.917-1.421l.248-1.072c.248-1.073.248-1.073 1.09-1.918 1.255-.672 2.055-.687 3.453-.562l-.704-.959.727-1.427.947.482 3.371-4.276-.947-.482.485-.952 1.42.724-.484.952.946.482 2.17-3.09.947.483.728-1.428-.947-.482.485-.952 2.136.489 1.443-1.662.947.482 1.212-2.379 2.609.73 3.845-4.034.946.482.485-.952-.947-.482.728-1.427c1.193.38 2.379.785 3.556 1.212l.23.717.959-.71.704.958.727-1.428-1.65-1.44 1.2-1.186c1.175.151 2.029.434 3.083.971 1.585-1.176 2.216-3.061 3.078-4.8l.583-1.159c.475-.946.947-1.893 1.418-2.841l-2.159 1.897-1.42-.723.485-.952-1.42-.724 2.17-3.089-2.124-1.682-.727 1.427-1.42-.723.727-1.428-3.786-1.929 1.697-3.331-2.367-1.206 1.212-2.379-.947-.482.728-1.428-1.42-.723.727-1.428 1.42.724 1.697-3.331-1.42-.723-1.212 2.379-2.367-1.206.728-1.428.946.483 2.425-4.759-1.894-.964.485-.952-1.42-.723-1.212 2.379-1.42-.724 1.94-3.807 2.366 1.206.485-.951-3.313-1.689-1.213 2.38-1.42-.724 1.94-3.807 2.367 1.206.485-.951-3.314-1.689-1.212 2.38-1.42-.724 4.364-8.565-.947-.482-2.424 4.758-1.42-.723 2.424-4.759.947.483.485-.952-1.651-1.441-.728 1.428-1.42-.724 3.152-6.185-.947-.483-.727 1.428-1.42-.724 3.163-7.378-.946-.483-2.425 4.759-.946-.483a913.16 913.16 0 011.643-3.883l.468-1.117c1.186-2.774 1.186-2.774 2.253-3.565l-1.42-.723-.485.951-2.367-1.205.485-.952.947.482 3.151-6.185-.946-.483-1.94 3.807-.947-.483 1.213-2.379c-.47-.238-.938-.477-1.42-.723l1.94-3.807 2.366 1.206.485-.952-.947-.482.727-1.427c.705.16 1.41.322 2.136.489l.981-3.097-.946-.482.254-1.669-1.466 4.048-.947-.482-1.917 1.42-.946-.482-.728 1.428-1.42-.724 1.697-3.33-.946-.483 2.678-6.427-.947-.482 1.213-2.38.946.483.728-1.427-.947-.483.485-.951.947.482.445-.916c1.3-2.618 2.7-5.024 4.392-7.408l-1.42-.723 1.94-3.807-.947-.482.485-.952-1.42-.723 3.636-7.138 1.42.724-.485.951.947.483-3.152 6.186.947.482 9.213-18.081 1.42.723-1.212 2.38c1.983-.014 1.983-.014 2.988-1.55l.845-1.293-.947-.482c.865-1.732 1.736-3.46 2.607-5.19l.732-1.467c1.546-3.058 3.22-5.962 5.135-8.804.312.16.625.318.947.482L87.512 35l.947.482c1.342-1.939 2.618-3.805 3.625-5.944l.947.482.727-1.427 2.124 1.681.728-1.427-.947-.482.728-1.428c1.536 1.148 2.78 2.363 4.006 3.84l-.485.951.897 1.019c.985 1.139.985 1.139 1.689 2.097a58.396 58.396 0 01-1.224 3.572l2.124 1.681-.485.952 2.367 1.206-1.212 2.38-2.136-.49-.485.952 1.663.248a52.434 52.434 0 012.597 1.922l-.484.952-2.841-1.447-.023 2.386 2.136.489-1.201 1.186.705.958c-.326 1.37-.326 1.37-.739 2.62l.947.483-.485.951.946.483-.727 1.427 1.178 1.2-.728 1.427 1.42.724.254-1.669.959-.71 1.42.723-.739 2.62 1.893.965-.739 2.62a52.355 52.355 0 01-2.366-1.206 150.58 150.58 0 01-.231-.716l-.959.71.947.482c.436 1.047.436 1.047.693 2.151l-.485.952c.312.16.625.318.947.482.809 3.092.809 3.092.196 4.296l.947.482-.728 1.428.947.482c.262 1.875.353 2.818-.52 4.53l.947.483-.011 1.192 1.662.248-1.928 2.614.947.482-.254 1.669 1.443-1.662.947.482-.739 2.62-.947-.482-.97 1.903 1.663.248-1.928 2.614 2.136.489-1.928 2.614.946.482.958-.71-1.697 3.33 1.905-.228-.496 2.145-.947-.483-.97 1.903 1.42.724-.738 2.62 1.177 1.2-1.697 3.33.473.242-1.708 4.523 1.662.248-.739 2.62-1.662-.247-.508 3.337.473.241-4.618 10.234.947.482-4.849 9.516.947.483a585.623 585.623 0 01-2.032 4.134l-.57 1.177c-1.14 2.285-2.276 3.871-4.164 5.626-.794 1.197-.794 1.197-1.39 2.438-.21.403-.418.807-.633 1.223-.547 1.149-.547 1.149.06 2.531-.577 1.28-.577 1.28-1.212 2.379l1.42.724-.484.952-1.42-.724-.74 2.62-.946-.482-.727 1.428c1.955-.036 1.955-.036 3.105-1.415l1.19.007.693-.996c1.341-1.544 2.618-1.842 4.571-2.315l.947.482.97-1.903 1.189.006.472-1.145c.887-1.479 1.312-1.458 2.887-1.938l.97-1.903-.947-.483.728-1.427 3.313 1.688 2.171-3.089.946.482-.485.952.947.482 2.17-3.09.947.483-.485.951.947.483 1.224-3.572.948.333c1.565.205 1.879-.333 3.104-1.265 1.309-.082 1.309-.082 2.378.013l1.455-2.855 1.023.259c1.055.314 1.055.314 1.829-.005l.254-1.668c.958-.711.958-.711 2.62-.463 1.107-.353 1.107-.353 2.239-.882 1.467-.651 2.914-1.229 4.446-1.706l-.947-.482.485-.952 1.42.724 1.224-3.572-.947-.482-.485.951-1.42-.723 1.212-2.379-2.366-1.206 1.939-3.807-.946-.482-.485.951-1.42-.723.969-1.904-2.124-1.681 1.212-2.379-2.609-.73c.248-1.629.689-2.62 1.466-4.048l-.946-.483-1.697 3.331-.947-.482 1.951-5-.947-.482-1.939 3.807-.947-.483 1.94-3.806-1.42-.724-1.213 2.379-2.366-1.206.484-.951 1.421.723 2.436-5.951-2.125-1.682.97-1.903-.947-.482-2.182 4.282-1.42-.723 1.212-2.38-2.366-1.205 2.898-4.517-1.42-.724-1.213 2.379-1.42-.724-.485.952-3.556-1.212.728-1.428.947.483.727-1.428-.947-.482.485-.952.947.483.727-1.428c-.312-.16-.625-.318-.947-.482l.485-.952-1.42-.724.728-1.427-.947-.482 2.424-4.759-1.42-.723.485-.952-.947-.482.728-1.428c-1.718-.875-3.437-1.75-5.207-2.653l.727-1.427 1.42.723.485-.951 1.42.723-.485.952 2.367 1.206.485-.952-1.42-.723.727-1.428-.946-.482 2.424-4.758-2.84-1.448.485-.951 1.42.723 1.939-3.806-.946-.483 1.951-4.999 1.42.724 1.939-3.807-1.014.382c-1.133.322-1.133.322-2.08-.16l.728-1.428-.947-.482.485-.952c.312.16.625.318.947.482l.727-1.427c-.312-.16-.625-.318-.947-.482l1.697-3.331.947.482.415-1.071c1.424-3.55 3.022-6.972 4.75-10.382l.625-1.243c.998-1.946 1.967-3.734 3.423-5.385.312.16.625.318.947.482l-.739 2.62c.468.24.937.478 1.42.724l.355-1.25c1.282-4.215 3.022-7.708 5.475-11.362l.947.482-2.425 4.758 1.894.965.485-.952-.947-.482.508-.744c2.277-3.43 4.122-7.04 5.965-10.717l.941-1.864c.76-1.504 1.517-3.01 2.272-4.515l-.947-.483 1.94-3.806 2.84 1.447.485-.952-2.84-1.447 1.212-2.379 2.367 1.206 1.939-3.807.947.483.727-1.428 1.42.724-.727 1.427.947.483.727-1.428 1.42.724-.727 1.427.946.483-1.212 2.379 1.42.723-1.939 3.807.946.482-.596 1.682c-.666 1.83-.666 1.83-.881 3.559l2.84 1.447-.739 2.62-.947-.482-1.454 2.855.946.482.497-2.144 2.366 1.206c-.727 1.427-.727 1.427-2.204 1.986l-1.386.38 1.177 1.199-.969 1.903.946.483c.578 1.267.701 2.075.56 3.471-.135 1.572-.048 2.962.136 4.525l.168 1.5c.132 1.271.132 1.271.926 2.204l-1.212 2.379.705.809c.828 1.304.754 1.979.68 3.493l.704.958-.727 1.428.947.482-.293 1.012-.204 1.132.705.959-.728 1.427.947.482-.497 2.145.947.482-.727 1.428.947.482-1.213 2.38 1.42.723 1.443-1.662-2.17 3.09.947.482.485-.952.946.482-.727 1.428-.947-.483-.254 1.67.705.957-1.213 2.38 1.663.247-.012 1.193 1.42.724-.727 1.427c-.312-.16-.625-.318-.947-.482l-.981 3.096.947.482-.012 1.193 1.674-.945c-.563 2.434-.563 2.434-1.55 3.48l-.632.802c.108 1.154.108 1.154.693 2.151.468.24.937.478 1.42.724l-1.455 2.855-.946-.483.461 1.434.474.242-1.697 3.33.946.483 1.443-1.662c-.419 1.81-.851 2.967-2.182 4.282l1.178 1.2-2.667 5.233 1.928-2.613.947.482-4.364 8.565.473.241-11.891 24.508 1.916-1.421 2.136.489c1.089-.634 1.089-.634 1.917-1.421l1.42.724.496-2.145 2.609.73 1.686-2.137.947.482 1.697-3.331 1.42.724-.728 1.427.947.483.727-1.428.947.482.727-1.427-.946-.482.485-.952 1.42.723-.485.952 1.42.724 1.685-2.138 1.42.723 1.213-2.379-.947-.482.485-.952.947.483.727-1.428 1.893.965.97-1.904-2.378-.013.727-1.427-.947-.482-.727 1.427-1.42-.724 2.667-5.234.693 2.151.969-1.903-.946-.482.254-1.669-3.845 4.035-.947-.483 2.425-4.758-.947-.482-.485.952-1.42-.724 3.152-6.186-1.42-.723-.727 1.427-.947-.482-.485.951.947.483-.728 1.427-2.366-1.206 1.939-3.806 1.42.723.739-2.62-.946-.482-.728 1.427-2.367-1.206 1.213-2.379-.947-.482 1.212-2.38-2.367-1.205.728-1.428.947.483 3.151-6.186-.946-.483-.728 1.428-1.42-.724.728-1.427-.947-.482.485-.952.946.482 1.94-3.806-2.367-1.206 1.212-2.38 2.367 1.207 5.576-10.944.947.482.878-1.765 1.168-2.324.576-1.16c1.151-2.281 2.388-4.354 3.913-6.405l.946.482-1.212 2.38.947.482-2.425 4.758-.946-.483.461 1.434c1.473-1.455 2.084-3.044 2.858-4.95 1.562-3.736 3.34-7.35 5.175-10.96l.81-1.607.768-1.5.688-1.347c.611-1.048.611-1.048 1.57-1.758l.946.482-1.223 3.572 1.189.007c.505-.941.989-1.894 1.454-2.855l-.231-.717a88 88 0 011.744-3.57l.505-1.003c1.267-2.475 1.267-2.475 2.346-3.275l.947.482a40.573 40.573 0 01-2.921 6.903c2.241-2.85 4.03-5.288 5.08-8.8.919-1.292.919-1.292 1.686-2.137l-1.42-.724-.485.952-.947-.483.727-1.427.947.482.485-.951 2.367 1.205-2.425 4.759.947.482.309-1.266c.43-1.354.43-1.354 1.388-2.065.837-1.56 1.603-3.15 2.379-4.741.773-1.444.773-1.444 1.973-2.63l1.42.723-1.939 3.806.947.483c1.365-2.53 1.365-2.53 2.324-5.221.414-1.411 1.076-2.249 2.04-3.344l1.42.724-1.686 2.137 1.42.724 3.637-7.137-.947-.483.727-1.427 2.367 1.206-2.909 5.71c1.589-2.065 2.919-4.215 4.225-6.464l.602-1.03c.486-.83.97-1.66 1.453-2.492l1.42.723-3.151 6.186c2.654-3.153 4.562-6.319 6.369-10.015l.76-1.523a563.428 563.428 0 001.818-3.682l2.367 1.206 1.212-2.379 2.367 1.206.727-1.427 1.42.723.485-.952zm-1.212 2.38l-.485.951-1.663-.247.704.958c1.219.086 1.219.086 2.379.013l.485-.952-1.42-.723zm1.778 12.893l-.012 1.192.958-.71-.946-.482zm.45 2.627l-.254 1.668.254-1.669zm-1.385 20.271l-1.213 2.38 1.189.006.97-1.904-.946-.482zm-31.518-11.864a4818.12 4818.12 0 00-1.94 3.807l1.432-.47c.599-1.552.599-1.552.981-3.096l-.473-.24zm-55.093-8.892l-.485.952.946.482.485-.951-.946-.483zm36.84 27.162l-1.697 3.331c1.71-.431 2.531-.946 3.59-2.366l-1.893-.965zm-59.076-15.116l-.254 1.668 1.201-1.186-.947-.482zm110.278 57.388l-.254 1.669 1.201-1.187-.947-.482zM137.676 37.185l-.012 1.192.012-1.193zm-2.621.462c-1.531 1.65-1.904 2.757-1.951 5l-.947-.483-.727 1.428 1.662.248c1.657-1.36 2.462-3.585 3.383-5.47l-1.42-.723zM244.86 94.794l-.012 1.193.012-1.193zm-57.044-28.466l-.012 1.193.012-1.193zm-.739 2.62l-.254 1.67.254-1.67zm.704.959l-3.879 7.613.473.241c1.28-2.512 2.561-5.024 3.879-7.613l-.473-.241zm-56.836-25.364l-.728 1.428.947.482.728-1.427-.947-.483zm168.269 86.337l-.958.711.946.482.012-1.193zM183.232 72.983l-3.151 6.186 1.42.724c.447-.846.89-1.694 1.332-2.543l.75-1.43c.666-1.21.666-1.21.596-2.454l-.947-.483zM93.031 30.02l-1.212 2.38c1.683-.747 1.683-.747 2.159-1.897l-.947-.483zm90.144 48.928l-.254 1.668.254-1.668zm38.341 19.535l-2.171 3.09.705.958c.896-.954.896-.954 1.685-2.138l-.219-1.91zm69.339 35.93l-.958.71.947.483.011-1.193zM183.394 80.857l-.254 1.669.254-1.669zm104.841 54.019l-.485.951 1.42.724.485-.952-1.42-.723zM179.596 80.121l-.728 1.427.947.483.727-1.428-.946-.482zm-51.618-23.904l-3.394 6.662c2.065-1.166 2.455-2.119 3.371-4.276l.023-2.386zm-40.95-20.265l-1.213 2.379.947.482.739-2.62-.474-.241zM178.383 82.5c-.241.47-.481.942-.728 1.427l.947.483.727-1.428-.946-.482zm3.544 2.405l-.97 1.903.947.483-1.212 2.379.946.482-.748.956-.983 1.271-.974 1.253a23.129 23.129 0 00-2.121 3.651l1.42.724 1.213-2.38.946.483-1.212 2.379.947.482-1.686 2.138.947.483 2.17-3.09-.946-.482 1.224-3.572-.947-.483.664-1.085c1.052-2.356 1.406-4.715 1.795-7.251l-1.42-.724zm-1.917 1.421l-1.2 1.186.692 2.151.982-3.096-.474-.241zM85.088 39.758l-.012 1.193.012-1.193zm40.673 24.32l-.254 1.669.254-1.669zm50.406 26.283l-.727 1.427 1.42.724.727-1.428-1.42-.723zm-52.103-22.952l-.011 1.193.011-1.193zm.704.958a6568.2 6568.2 0 01-.673 1.98c-.833 2.233-1.972 4.071-3.299 6.04-.729 1.174-1.124 2.283-1.373 3.641l.947.483 3.382-5.47.451 2.628.981-3.096-.947-.483 1.212-2.379-.946-.482 1.212-2.38-.947-.482zm-2.136-.489c-1.297.963-1.718 2.127-2.412 3.566l1.42.723 1.939-3.806-.947-.483zm58.188 33.244l-2.91 5.71 1.42.724c1.426-1.606 1.912-2.386 2.066-4.567l-.103-1.626-.473-.241zm24.117 14.686l-.254 1.669.254-1.669zM75.447 52.827l-2.909 5.71 1.663.248.954-1.8.537-1.011c.537-1.073.537-1.073.703-2.665l-.947-.482zm49.229 25.083c-2.722 1.537-3.71 3.638-5.057 6.414l1.178 1.2 4.352-7.373-.473-.241zm56.086 29.176l-.97 1.904.947.482.496-2.144-.473-.242zm34.312 18.083l-.485.951.947.483.484-.952-.946-.482zm-90.421-44.873l-.97 1.903.947.482.496-2.144-.473-.241zm88.042 44.86l-1.2 1.186-1.42-.724-.485.952-1.663-.248-.485.952-1.42-.724-.484.952 2.446.684 4.25 1.19 1.131.316.727-1.427-.946-.483 1.2-1.186-1.651-1.44zm-88.1-38.896l-.97 1.903.947.482.497-2.144-.474-.241zm56.802 28.942l-.958.71.461 1.434.497-2.144zm-58.938-29.431l-.727 1.427.947.483.727-1.428-.947-.482zm2.344 3.591l-.012 1.193.012-1.193zm-3.798-.736l-1.697 3.33.946.483 1.697-3.33c-.312-.16-.624-.32-.946-.483zm60.577 32.064l-.254 1.669.254-1.669zm-59.423-28.48l-1.697 3.332.947.482c1.333-.907 1.891-1.37 2.644-2.849l-1.894-.964zm57.749 29.425l-.728 1.428.947.482.727-1.428-.946-.482zm-56.594-25.84l-.485.953.947.482.484-.952-.946-.482zm2.828 2.64l-.254 1.669.254-1.668zm-57.99-28.948l-.012 1.193.011-1.193zm-.97 1.904l-.728 1.427.947.483.254-1.67-.473-.24zm60.577 32.064l.461 1.434.485-.952-.946-.482zm-4.503-1.695l-.485.952 1.178 1.199.727-1.427-1.42-.724zm5.426 4.563l-.485.951.947.483-.727 1.427.946.483-.485.951 1.178 1.2c.42 1.15.42 1.15.693 2.151l1.2-1.187-.956-.974-.925-1.183.254-1.669-.947-.482.485-.952-1.178-1.199zm51.814 28.199l-.727 1.427 2.378.013-1.651-1.44zm3.787 1.929l-.011 1.193.011-1.193zM67.401 73.301l-1.94 3.806-1.893-.965-6.061 11.896 1.42.724 3.625-5.945-.739 2.62.474.241 5.818-11.42-.704-.957zm60.531 36.835l-.728 1.427.947.483.727-1.428-.946-.482zm3.29 4.074l-.011 1.193.946.482.485-.952-1.42-.723zm51.595 26.289l-1.443 1.662.947.482.496-2.144zm1.893.965l-.011 1.192.011-1.192zm-4.976-1.936l-.727 1.427.947.482.727-1.427-.947-.482zm-47.577-23.643l-.485.952 1.42.723-.457 1.191c-.446 1.434-.446 1.434.377 2.552l.75.794-.727 1.427 1.42.724.485-.952 1.189.007-1.178-1.2.485-.951c-.192-1.109-.192-1.109-.693-2.151l-1.42-.724.485-.951-1.651-1.441zm53.015 27.013l-.958.71 2.136.489-1.178-1.199zm.693 2.151l-.485.951 1.42.724.485-.952-1.42-.723zm-4.976-1.936l-.727 1.427.946.482.728-1.427-.947-.482zm2.84 1.447l-.254 1.668.254-1.668zm3.071 2.164l-.958.71 1.42.724-.739 2.62.947.482 1.443-1.662-.947-.482.485-.952-1.651-1.44zm-4.757-.026l-.727 1.427 1.663.248.485-.952-1.421-.723zm2.367 1.205l-.727 1.428.947.482.727-1.427-.947-.483zM62.518 86.395l-.497 2.145.496-2.145zm73.126 37.86l-.485.951.947.483.485-.952-.947-.482zm52.541 26.771l-.011 1.193.947.482.484-.952-1.42-.723zm-52.079-25.337l-.485.951 1.662.248-1.177-1.199zm135.377 68.978l-.958.71 1.42.724.485-.952-.947-.482zm-88.285-44.384l-.727 1.427 1.42.724.727-1.428-1.42-.723zm4.491 2.887l-.485.952.947.482.485-.951-.947-.483zm-50.891-25.33l-.484.951.946.483.485-.952-.947-.482zm.462 1.434l-.485.951 1.663.248-1.178-1.199zm23.038 12.562c-1.122.342-1.122.342-1.529 1.393l1.024.11 1.112.379c.42 1.076.42 1.076.692 2.151l.947.483 1.212-2.379-1.893-.965.485-.952c-.942-.609-.942-.609-2.05-.22zM.22 60.048l-.242.475 2.367 1.206.242-.475L.22 60.048zm137.733 71.377l-.254 1.668 1.201-1.186-.947-.482zm.67 4.536l-.497 2.145 1.443-1.662-.946-.483zM60.278 96.642c-1.054 1.171-1.054 1.171-1.928 2.614.192 1.109.192 1.109.692 2.151.032 1.327.032 1.327-.023 2.385.873-.194.873-.194 1.367-1.438l.561-1.175-.704-.959c.447-1.608.447-1.608.981-3.096l-.946-.482zm-.543 6.916l-.023 2.385.97-1.903-.947-.482zM-12.49 70.952l-1.697 3.331 1.42.724 1.697-3.331-1.42-.724zm71.95 36.66l-.97 1.903.946.483.496-2.145-.473-.241zm-.036 3.579l-.011 1.192.011-1.192zm65.068 34.951l-.011 1.193.958-.71-.947-.483zM-14.915 75.711l-.485.951 1.42.724.485-.952-1.42-.723zm74.073 38.341l-.727 1.428.946.482.728-1.428-.947-.482zm82.836 42.207l-.012 1.193.012-1.193zM-13.98 77.386l-.254 1.668.254-1.668zm-2.147.704l-.485.951c.468.24.937.478 1.42.724l.485-.952-1.42-.723zm75.262 38.348l-1.432.469-.727 1.427 1.42.724 1.443-1.662-.704-.958zm84.013 43.406l-.485.952.947.482.485-.952-.947-.482zm-83.563-40.779l-.97 1.903.947.482.023-2.385zm83.783 42.689l-.497 2.144 1.894.965.485-.952-.462-1.434-1.42-.723zM-17.339 80.469l-4.122 8.089 1.42.723 4.595-7.848-1.894-.964zm40.696 21.934l-.485.952-.947-.482-.485.951c.531 1.252.531 1.252 1.166 2.392 1.278-.947 1.328-1.82 1.697-3.33l-.946-.483zm35.72 19.999l-1.685 2.138.946.482 1.686-2.138-.947-.482zm86.38 44.612l-1.443 1.662.958-.71.947.482.485-.952-.947-.482zM59.77 124.553l-.485.952 1.19.006-.705-.958zm-77.167-38.12l-1.94 3.807.474.24 1.94-3.806-.474-.241zm77.86 40.271l-.012 1.193.012-1.193zm86.149 43.895l-.485.952.947.482.485-.952-.947-.482zm-1.432.469l-.485.952.947.482.485-.951-.947-.483zm2.125 1.682l-.485.952.946.482.485-.952-.946-.482zm-87.108-43.185l-.011 1.193.958-.71-.947-.483zm58.695 29.907l-.727 1.427-.947-.482-1.201 1.186.947.483.485-.952 1.42.724.97-1.904-.947-.482zm28.874 14.712l-.485.952.947.482.485-.951-.947-.483zm.693 2.151l-.485.952.947.482.485-.951-.947-.483zm-170.647-86.35l-1.213 2.38.947.482 1.686-2.138-1.42-.724zm171.582 88.025l-.958.711.947.482.011-1.193zm-90.178-45.348l-.727 1.427.946.482.727-1.427-.946-.482zm1.893.964l-.727 1.428.947.482.727-1.427-.947-.483zm88.505 46.294l-.012 1.193.012-1.193zM-20.087 94.053l-1.212 2.379.946.482-.893 1.68c-.952 1.86-1.64 3.709-2.27 5.699l.473.241c1.75-2.468 3.033-4.702 3.88-7.613l-.947-.483.97-1.903-.947-.482zm81.647 42.2l-.485.952 1.189.006-.705-.958zm88.504 46.294l-.012 1.193.012-1.193zm-87.812-44.143l-.011 1.193.011-1.193zm.462 1.434l-.012 1.193.012-1.193zm87.569 44.619l-.485.952 1.663.247-1.178-1.199zm-2.136-.489l-.727 1.427.947.483.727-1.428-.947-.482zm-85.214-42.22l.462 1.434.485-.952-.947-.482zm88.043 44.86l-.485.952 1.42.723.485-.952-1.42-.723zM-23.701 98.804l-1.697 3.331 1.42.724 1.697-3.331-1.42-.724zm87.57 44.619l-.485.952 1.189.006-.704-.958zm88.042 44.86l-.958.711 1.651 1.44.958-.71-1.651-1.441zm-5.218-1.46l-.485.952.947.482.484-.952-.946-.482zm2.366 1.206l-.484.951 1.42.724.484-.952-1.42-.723zm-84.498-42.455l-.011 1.193.011-1.193zm41.655 21.224l-.012 1.193.012-1.193zm46.388 23.636l-.508 3.337 2.136.489c.605-.943.605-.943.257-2.041-.4-1.218-.4-1.218-1.885-1.785zm-87.823-42.95l-.012 1.193.958-.711-.946-.482zm30.294 15.436l-.012 1.193.012-1.193zm125.91 64.154l-.011 1.193.011-1.193zm-243.07-123.251l-.738 2.621 1.443-1.662-.704-.959zm87.8 45.336l-.01 1.193.01-1.193zm88.517 45.101l-.485.952 1.662.248-1.177-1.2zm-88.308-41.998l-.012 1.193.011-1.193zm19.638 10.605l-1.94 3.807 1.2-1.186c.47.238.938.477 1.42.723l.486-.951-1.42-.724.254-1.669zM64.019 152.49l-2.425 4.758.947.483c1.243-1.563 2.143-2.758 2.424-4.759l-.946-.482zm2.124 1.682l.462 1.434.485-.952-.947-.482zm91.356 46.548l-.727 1.427 2.828 2.64 1.432-.469-2.125-1.682.485-.951-1.893-.965zm-90.894-45.114l-.485.951-.947-.482-.496 2.144 1.65 1.441-2.424 4.758 1.42.724.88-1.8c.704-1.387 1.386-2.565 2.503-3.669l-.947-.482.485-.952c-.227-1.115-.227-1.115-.693-2.151l-.946-.482zm-92.546-46.555l-.98 3.096.946.482 1.212-2.379-1.177-1.199zm112.646 58.594l-.012 1.193.012-1.193zm8.993 4.583l-.496 2.144.947.483.496-2.145-.947-.482zm65.322 33.283l-.254 1.669c.802.891.802.891 1.872 1.665l1.069.832.834.625-.969 1.903 1.42.724.485-.952 1.42.724-.485.951 1.893.965 1.201-1.186-1.386-1.231c-1.443-1.409-1.443-1.409-1.905-2.843-1.655-.944-1.655-.944-3.313-1.689l.485-.951-2.367-1.206zm-66.522-32.097l-.485.952-.947-.483-.012 1.193 1.19.007.254-1.669zm-11.603-5.313l-.254 1.669.254-1.669zm-14.916-7l-.18 1.594c-.328 1.743-.328 1.743-1.53 2.929l1.421.724.485-.952.947.482-.485.952.946.482.497-2.144-.947-.482.485-.952-.947-.482.254-1.669-.946-.482zm-4.503-1.695l-.727 1.427 1.42.724.727-1.428-1.42-.723zm28.158 14.947l-.484.951.946.483.485-.952-.947-.482zm78.334 40.512l-.243.475 8.52 4.342.243-.476-8.52-4.341zM69.814 168.029l-.011 1.193.011-1.193zm-96.112-46.574l-.74 2.62 1.42.724.463 1.434c.92-1.806 1.127-2.8 1.235-4.765-.67-.397-.67-.397-2.378-.013zm96.574 48.008l-.254 1.669 1.2-1.186-.946-.483zm.427 5.013l-.254 1.669c.397-.392.793-.783 1.2-1.187l-.946-.482zm-94.935-45.375l-.496 2.144 1.2-1.186-.704-.958zm-.023 2.386l-.727 1.427-.947-.482-.485.951 1.42.724 1.443-1.662-.704-.958zm.45 2.626l-.484.952.946.482.485-.951-.947-.483zm-48.05-23.883l-.485.952.947.482.485-.952-.947-.482zm48.258 26.986l-.485.952-.946-.483-2.182 4.283.946.482c1.037-1.647 2.073-3.295 3.14-4.993l-.473-.241zm.462 1.434l-.485.952.947.482.485-.952-.947-.482zm95.847 49.436l-.242.476 2.366 1.206.243-.476-2.367-1.206zm-.011 1.193l.461 1.434.485-.952-.946-.482zm-147.223-73.815l-.011 1.193.011-1.193zm50.406 26.282l-1.94 3.807.947.482 1.94-3.806-.947-.483zm2.828 2.64l-.011 1.193.011-1.193zm-54.204-27.019l-.254 1.669.254-1.669zm54.666 28.453l-.485.952 1.663.248-1.178-1.2zm-2.136-.489l-.727 1.428.947.482.727-1.427-.947-.483zm-52.795-25.102c-1.602 2.774-2.186 4.661-2.217 7.861l.947.482-.953 1.724c-.878 1.715-1.115 3.018-1.252 4.944-.43 1.377-.944 2.701-1.466 4.048l.946.482-1.212 2.379-.947-.482-.727 1.427 1.42.724-.445 1.304-.565 1.702-.568 1.692c-.526 1.494-.526 1.494.077 2.928a105.847 105.847 0 01-1.106 3.007c-.45 1.299-.578 2.534-.626 3.902l.947.483-2.413 3.565.947.483-.727 1.427.946.482-.97 1.904.947.482-.739 2.62.474.242c1.413-2.233 1.507-4.331 1.731-6.91l-.946-.482.8-1.353c1.148-2.219 1.39-4.528 1.659-6.984l-.947-.482.486-.912.62-1.185.621-1.179c.563-.946.563-.946.224-1.724a88.19 88.19 0 01.967-3.14l.558-1.722.438-1.33-.947-.482 1.044-1.828c1.218-2.383 1.845-4.779 1.9-7.461l-.704-.958.71-1.099c.992-2.338 1.004-4.491 1.033-7.003l-.947-.482 1.686-2.138-.704-.958zM91.057 209.42l-.485.952c1.007 1.803 1.495 2.081 3.302 2.881l-1.212 2.379.947.483.485-.952.946.482.485-.951-1.42-.724.254-1.668c-.938-1.651-1.533-1.981-3.302-2.882zM-79.37 124.98l-1.212 2.379 1.662.248.497-2.144-.947-.483zm138.922 71.384l-.647.831-.796.831-1.19-.007-.253 1.669 1.904-.228c.867-1.407.867-1.407 1.455-2.855l-.473-.241zm-4.064 2.125l-1.443 1.662.947.482.496-2.144zm-12.319-5.078l-.484.951.946.483.485-.952-.947-.482zM-80.64 133.324l-1.697 3.33 1.178 1.2 1.94-3.807-1.42-.723zm119.723 64.597l-.012 1.193.011-1.193zm-1.917 1.421l-.012 1.193.012-1.193zm6.35 7.431l-.728 1.428.947.482.727-1.428-.946-.482zm-126.638-62.727l-1.94 3.807c.47.238.938.477 1.42.723l1.94-3.806-1.42-.724zm124.005 64.383c.11.945.11.945.22 1.91l.727-1.428-.947-.482zm-2.158 1.896l-.485.952-1.663-.248-.485.952.947.482.485-.951 1.42.723.254-1.668-.473-.242zm-124.271-61.521l-.728 1.428.947.482.727-1.427-.946-.483zm123.532 64.142l-.485.951 2.609.73.242-.475-2.366-1.206zM-85.132 155.01l-.254 1.668.254-1.668zm60.323 33.732l-.485.952.947.482.485-.951-.947-.483zm-62.25-31.119l-1.213 2.379 1.42.724 1.212-2.379-1.42-.724zm100.58 51.848l-.728 1.428 1.19.006-.462-1.434zm-98.572-38.238l-.727 1.428.947.482.727-1.427-.947-.483zm93.48 48.23l-.011 1.193.011-1.193zm-93.272-45.127l-.012 1.193.012-1.193zm98.676 52.076l-.254 1.669.254-1.669zm7.33 4.335l-.01 1.192.01-1.192zm-106.272-53.549l-.496 2.144 1.443-1.662-.947-.482zm106.977 54.507l-.485.951 1.19.007-.705-.958zm.22 1.91c-.165.707-.328 1.415-.497 2.144l1.893.965.485-.952-1.42-.723.485-.952-.947-.482zM.543 223.237l-.254 1.669 1.2-1.186c-.311-.16-.624-.319-.946-.483zM-84.9 180.3l-.011 1.193.011-1.193zm108.143 56.9l-.012 1.192.947.483.485-.952-1.42-.723zm.935 1.675l-1.916 1.421.946.482.485-.952 1.663.248-1.178-1.199zm.693 2.151l-.485.952.946.482-.484.952 1.177 1.199-.011 1.193 1.893.964.485-.951-1.42-.724.254-1.668c-.78-1.763-.78-1.763-2.355-2.399zm-109.61-52.852l.463 1.434.485-.951-.947-.483zm.936 1.675l-.485.952 1.19.007-.705-.959zm111.71 56.919l-.496 2.145 1.65 1.44-.97 1.904 2.61.73.485-.952-1.42-.723.727-1.428-1.42-.723.485-.952-1.651-1.441zm-111.49-55.009l-.486.952.947.482.485-.951-.947-.483zM30.7 252.987l-.485.952.704.958-1.2 1.186 1.053.2 1.083.289c.23.717.23.717-.361 1.951l-.62 1.145.946.482 1.2-1.186.33 1.329c.655 1.697 1.16 2.32 2.718 3.221l1.432-.469-2.124-1.682.485-.952-1.42-.723.253-1.669c-.832-1.412-1.343-1.883-2.828-2.64l.254-1.669-1.42-.723zm-112.437-55.492l-.97 1.904.947.482-.254 1.669.461 1.434-.946-.483-1.213 2.379 3.314 1.689.485-.952.947.482.484-.951-1.42-.724.115-1.103-.092-1.282-.84-.691-.81-.75c.03-1.521.03-1.521.265-2.862l-.473-.241zM28.99 257.51l-.727 1.428.947.482.727-1.427-.947-.483zm-44.517-20.285l-.254 1.669.254-1.669zm45.672 23.87l-.727 1.428.946.482.728-1.427-.947-.483zm2.367 1.206l-.728 1.428.947.482.727-1.427-.947-.483zm-111.006-55.96l-.728 1.427.947.482.254-1.668-.473-.241zm58.418 33.96l-.254 1.669 1.2-1.186-.946-.483zm-8.636 7.587l-.011 1.193.011-1.193zm-10.748 4.713l-.012 1.193.947.482.485-.952-1.42-.723zm8.45 11.498l-1.904.228-.74 2.621.948.482 1.212-2.379 1.189.006-.704-.958zm-4.513-.502l-1.213 2.379.705.959.981-3.097-.473-.241zm5.206 2.653l-.011 1.193.012-1.193zm-7.365-.756l-2.413 3.565.947.483c1.072-1.016 1.426-1.456 1.544-2.959l-.078-1.089zm9.19 8.878l-.485.952.946.482.485-.952-.946-.482zm-22.26-10.143l-1.454 2.855.947.482 2.644-2.848c-.636-.355-.636-.355-2.136-.489zm22.479 12.053l-.254 1.668 1.2-1.186-.946-.482zm.693 2.151l-.728 1.427.947.483.727-1.428-.946-.482zm-.785 7.391l-.728 1.428.947.482.254-1.668-.473-.242zm1.881 2.158l-.484.952.946.482.485-.952-.947-.482zm.462 1.434l-.485.952.947.482.485-.952-.947-.482zm-34.092-16.172l-.728 1.427.947.482.727-1.427-.946-.482zm30.767 15.677l-1.697 3.33.947.483 1.697-3.331-.947-.482zm4.018 2.646l-.485.952.947.482.485-.952-.947-.482zm-2.378-.013l-.97 1.903.947.483.97-1.904-.947-.482zm3.313 1.688l-.958.711.947.482.011-1.193zm-37.163-18.336l-1.686 2.138 1.432-.47.254-1.668zm-4.78 2.359l-1.697 3.331c1.757-.707 1.757-.707 2.875-2.131l-1.178-1.2z" fill="#6D9773" fill-opacity=".1"/></svg>