<svg width="430" height="402" fill="none" xmlns="http://www.w3.org/2000/svg"><path d="M89.564 8.61l.79-1.486 1.129.6.527-.991 2.82 1.5 1.882-2.178-1.692-.9.79-1.486-1.693-.9L95.435.29l5.642 3 .527-.99 1.693.9-.527.99 1.128.6-.526.992-1.129-.6-1.054 1.982 4.514 2.4.038 1.29 1.429 1.396.527-.99 2.558 1.995-1.656.39 1.506.896 1.957 1.185 1.948 1.17c1.661 1.146 1.661 1.146 2.827 3.037a69.837 69.837 0 004.305 2.368l1.207.625a435.48 435.48 0 002.952 1.507l-.527.991 1.295.371c2.043.723 3.841 1.682 5.739 2.734l1.054-1.982-5.642-3 1.844-3.469 1.693.9-1.318 2.478 6.771 3.6-1.844 3.468 1.375 1.327c1.484 1.464 1.484 1.464 2.349 2.56.995.674 2.006 1.327 3.025 1.966l1.648 1.038 1.27.792-.527.99 5.342 2.205 1.844-3.468 5.643 3-.527.991-1.129-.6-.87 1.722c-.974 1.747-.974 1.747-1.802 1.942l1.043.671 1.346.877 1.343.87c1.083.778 1.083.778 1.384 1.573 1.472.965 2.977 1.868 4.485 2.78 1.447 1.008 2.15 1.86 3.188 3.207 1.202.901 1.202.901 2.497 1.685 2.288 1.431 2.288 1.431 2.619 2.306 1.51.983 3.051 1.907 4.595 2.838 1.348.958 1.348.958 1.95 2.549a216.29 216.29 0 003.423 3.091l.301.796c1.216.88 2.445 1.746 3.686 2.595l-.527.991 4.251 2.896-.527.99 3.949 2.101-.527.991 1.825 1.248c1.862 1.348 1.862 1.348 2.163 2.143l1.859 1.267 1.827 1.329.037 1.29 3.386 1.801-1.091.691 2.557 1.996c-.174.327-.347.654-.527.99l3.687 2.596-.527.991.978.203c2.181.71 4.039 1.791 6.056 2.902-.174.327-.347.654-.527.99l1.43 1.397c.126 1.378.126 1.378.074 2.582l-1.392-.105 1.43 1.396-.527.991 5.342 2.204-.527.991-2.257-1.2-.527.991 1.206.88c1.352 1.116 1.352 1.116 2.517 3.007l-.527.991 2.558 1.995-.527.991 3.913.81-.527.991-1.693-.901-.527.991 2.257 1.201-.79 1.486 1.693.9-.527.991 2.557 1.996-.526.991 1.128.6.49-2.282 1.692.9-.527.991 1.693.9-.527.991 1.994 1.695-.791 1.487 3.649 1.305-1.881 2.177-1.693-.9-.527.991 2.257 1.2.264-.495 2.821 1.5-.527.991 1.129.6-.527.991 1.692.9-.79 1.486 2.821 1.5-.79 1.487 2.821 1.5-1.054 1.982 2.558 1.996-1.317 2.477-1.994-1.696-.527.991 1.693.901-.79 1.486 1.128.6-.527.991 1.693.9-.527.991 2.558 1.996-.79 1.486 1.429 1.396.601 1.591-1.053 1.982 1.956.404.037 1.291 1.317-2.477 1.129.6-1.054 1.982 5.379 3.496-.79 1.486-1.129-.6c-1.06 1.872-1.845 3.637-2.333 5.751l1.128.6 1.28-3.769 1.693.9.527-.991 1.692.9-3.198 4.655-.865-1.095-1.355 1.186 1.216.011c1.773.224 2.84.775 4.389 1.698l-.79 1.487 1.128.6-.778 1.294c-.796 1.665-.997 2.881-.991 4.756l1.128.601-.79 1.486 1.128.6c.571 1.138.571 1.138.903 2.387l-.791 1.486 1.129.6-.49 2.282 1.129.6-.791 1.487 1.129.6.289-1.991c.427-2.078.427-2.078 1.518-2.769l1.692.9-1.317 2.478 2.821 1.5-1.317 2.477 2.821 1.5-.79 1.487-2.784-.209-.037-1.291-1.693-.9.865 1.095-.527.991 1.129.6c.604 1.076.604 1.076.902 2.387-.602 1.388-.602 1.388-1.317 2.477l1.119-.318c1.364-.268 1.364-.268 3.32.137l-.753 2.777 2.558 1.996-1.581 2.973-1.128-.6-.527.991 1.78.31c1.945.455 3.243.973 4.953 1.999l.038 1.291c1.253 1.083 1.253 1.083 2.558 1.996l-.527.991 3.686 2.595-.527.991 1.693.9.527-.991 1.128.6-.527.991 1.693.9-.527.991 6.508 4.096-.527.991 1.693.9c-.047-1.623-.417-2.6-1.504-3.977-.865-1.096-.866-1.096-1.467-2.687l.79-1.487-2.52-.704-.338-2.087-1.166-1.891c-.863-2.042-1.488-3.692-1.609-5.821l-.271-1.534c-1.372-.995-1.372-.995-2.821-1.5l1.355-1.186-3.386-1.801 1.318-2.477-3.085-1.005.79-1.486 1.392.104-.634-1.529c-.569-1.653-.569-1.653-.042-2.644l-1.429-1.395.79-1.487-5.116-3.991.527-.991 3.386 1.8 1.581-2.973-3.386-1.8-.79 1.486-1.693-.9.527-.991-1.129-.6.791-1.486-1.693-.9c.79-1.487.79-1.487 2.081-1.873l1.193-.2-3.085-1.005.753-2.777-2.257-1.2.79-1.487 1.129.6.527-.991-3.95-2.1.79-1.486 3.122 2.295 1.054-1.982-1.956-.404.226-1.787-1.693-.9-.226 1.787-2.821-1.501 1.317-2.477 1.129.6.79-1.486-1.429-1.396c.155-1.228.155-1.228.489-2.282l-1.354 1.186-1.693-.9.79-1.486-2.821-1.5 1.317-2.478 3.386 1.8-.479-.97c-.546-1.826-.277-3.216.029-4.989l-1.693-.9-1.166-1.891.527-.991-2.821-1.5.527-.991 2.257 1.2-.087-1.198c.012-1.384.012-1.384.803-2.871.54-1.493.588-2.068-.141-3.65l-.836-1.319c-1.171-1.897-1.301-2.495-1.241-4.473l-2.257-1.2-1.054 1.982-1.693-.9 2.635-4.955 1.429 1.396-.527.991 1.129.6 2.145-2.673-1.129-.6.099-1.378c.121-1.651.121-1.651-.004-3.14l.02-1.142 1.091-.691-4.251-2.895-.79 1.486 1.128.6-.527.991-2.821-1.5 1.317-2.477 1.129.6.79-1.487 1.957.405 1.881-2.178-1.429-1.395c-.438-2.699.207-4.634.904-7.146l-1.993-1.696-.791 1.486-2.821-1.5 1.317-2.477 2.257 1.2 3.199-4.655-1.128-.6.753-2.778-1.429-1.395 2.145-2.673-.865-1.096.526-.99-1.993-1.696.934-1.661 1.195-2.173.618-1.093c1.037-1.904 1.501-2.799 1.13-5.088l-1.128-.6c.816-3.071.816-3.071 1.893-4.157.88-.752.88-.752.686-1.965-.022-1.642.392-2.735 1.011-4.204l.584-1.407.456-1.059-1.129-.6 3.162-5.946-1.128-.6.562-2.164c.465-1.839.759-3.628.951-5.532.674-4.65 3.092-8.8 5.113-12.933l-1.43-1.396.713-.574c1.322-1.617 1.794-3.393 2.449-5.372l-5.643-3 1.318-2.477-1.129-.6.79-1.487 1.129.6 1.317-2.477-1.128-.6 2.107-3.964 1.129.6.527-.991-1.129-.6 4.743-8.92 1.128.6.791-1.486 1.392.105-3.687-2.596.791-1.486 2.821 1.5.527-.991 2.821 1.5.79-1.487c1.491.69 2.963 1.397 4.437 2.12l1.273.581c3.03 1.518 3.03 1.518 3.87 3.21.335 1.195.335 1.195.689 3.363.451 2.106.451 2.106 1.179 4.162.362 1.106.362 1.106-.428 2.593l3.649 1.304.527-.99c.559.296 1.117.593 1.693.9l-.716 4.068-1.956-.405.865 1.096-.527.99 1.392.105-.038-1.29 2.822 1.5-.527.99c.558.297 1.117.595 1.693.9l-.791 1.487-3.122-2.296-.527.991c.559.297 1.117.595 1.693.9l-.527.992 2.262.765c1.856.742 2.484 1.105 3.86 2.609.74 1.636.792 2.27.197 3.799l1.128.6-2.445 1.877 1.692.9-.527.991 2.558 1.996-.527.99 1.129.601.489-2.282 1.693.9-.527.991 1.43 1.396-1.092.69.565.3c.744.397 1.489.793 2.257 1.2l-.791 1.487 3.649 1.305-.79 1.486 1.128.6-.527.991 1.693.9-.79 1.487 1.128.6c-.174.327-.347.654-.527.99l-2.257-1.2-.527.992 4.214 1.605-2.22.09 1.166 1.892.527-.992 2.821 1.5-.79 1.487 2.821 1.5-1.054 1.982-2.257-1.2-.527.991 1.429 1.396a215 215 0 01-.527.99l1.129.6-.527.992 1.693.9-.791 1.486 1.129.6 1.28-3.768 1.693.9-1.054 1.982c.569 1.304.569 1.304 1.532 2.563l.928 1.317.737.998-1.619 1.682c-.558-.298-1.117-.595-1.692-.9l.613.931.769 1.233.777 1.218.473 1.195-1.054 1.982 1.129.6c.571 1.138.571 1.138.902 2.387l-.79 1.486 1.128.6-.489 2.282 1.128.6-.79 1.487 1.429 1.395-.527.991 1.129.6-.226 1.787.865 1.095-.791 1.487 1.129.6-.299 1.073-.191 1.209.865 1.096-.79 1.486 1.128.6-.298 1.073-.191 1.209.865 1.096-1.317 2.477 1.128.6.338 2.087.564.3-1.317 2.477 1.129.6-.299 1.073-.191 1.209.865 1.096c-.237 1.604-.237 1.604-.68 3.491l-.437 1.896-.352 1.459 1.129.6-.81 2.033c-.737 1.815-.737 1.815-.132 3.822-.556 1.413-1.345 2.648-2.108 3.964l1.129.6-.563 1.568a728.84 728.84 0 01-.454 1.705l.865 1.096-2.898 5.45 1.129.6-1.506 5.555.564.3-.925 1.989-1.183 2.571-.611 1.312-.575 1.253-.535 1.158c-.459.894-.459.894-.048 1.732a67.26 67.26 0 01-1.28 3.135l-.821 1.904-.873 2-.869 2.009c-.712 1.645-1.426 3.288-2.142 4.93l.564.3-7.114 13.379 1.129.6 3.161-5.946 1.994 1.695-3.952 7.433 1.693.9 4.742-8.919-2.821-1.5.527-.991 1.128.6.791-1.487-1.129-.6 1.317-2.477 3.95 2.1-10.802 20.316 1.693.9 3.425-6.442 1.129.6-8.695 16.352-3.949-2.1 1.317-2.478-2.821-1.5.527-.991 3.084 1.005.527-.991 1.129.6.79-1.487-1.128-.6 1.844-3.468-1.693-.901-.259 1.253c-.517 1.595-1.208 2.506-2.376 3.702l-1.128-.6.753-2.777-.719 1.102-.944 1.43-.935 1.424c-.864 1.194-.864 1.194-1.956 1.885a41.64 41.64 0 00-1.382 2.17l-.787 1.307-.816 1.372-.828 1.379a1159.91 1159.91 0 00-2.02 3.382l-.564-.3-4.516 7.133 1.128.6-1.844 3.468 1.128.6-.226 1.787.865 1.095c.507 3.13.507 3.13-.151 4.369l1.128.6-.527.991 1.129.6-.49 2.282 1.129.6c.521 1.231.521 1.231.902 2.387-.493-1.306.092-2.352.452-3.573l2.822 1.5-.527.991 2.821 1.5c.055 1.908-.915 3.163-1.807 4.759l-2.784-.209 3.649 1.305.037 1.291-1.128-.6-.527.991 1.62.782c1.766 1.018 1.766 1.018 2.931 2.909 1.026.948 1.026.948 1.994 1.696l.527-.991-1.129-.6.791-1.487 1.693.9-.527.991 3.084 1.005-.527.991 1.693.9-.527.991 2.558 1.995-1.091.691c-1.329-.309-1.329-.309-2.521-.704 1.555 1.599 3.013 2.897 4.879 4.183l1.666 1.204.038 1.291a77.935 77.935 0 003.686 2.595l-.527.991 9.292 4.305-.527.991 1.993 1.696-1.655.391 1.692 1.495c1.731 1.596 1.731 1.596 2.031 2.391 1.687 1 2.858 1.508 4.778 1.905l.527-.991 1.693.9-1.882 2.177 3.386 1.801-.227 1.786 3.687 2.596-.527.991 4.213 1.604.527-.991 1.693.9-.527.991 1.429 1.396-1.655.391 2.558 1.996 1.618-1.682 2.821 1.5 1.618-1.682c-1.257-1.637-2.608-3.157-4.024-4.682l-.865-1.096a127.012 127.012 0 00-2.558-1.996l1.317-2.477-4.514-2.4.527-.991-2.558-1.996 1.317-2.477-1.128-.6.527-.991-1.693-.9c.057-1.817.135-2.977.979-4.564l-1.091.69-1.128-.6.489-2.282 1.129.6.527-.991-2.22.091c-.822 1.206-.822 1.206-1.317 2.478l1.128.6-.527.991-1.693-.9.527-.991-1.128-.6.79-1.487-1.692-.9 1.881-2.177 1.129.6.79-1.487-3.085-1.004-.527.991-1.692-.9.79-1.487 1.128.6 1.28-3.768-2.257-1.2.527-.991 1.129.6c-.775-2.239-.775-2.239-2.068-4.278l.527-.991c-.845-.658-1.689-1.317-2.558-1.996l-.527.991 1.128.6-1.317 2.478-1.129-.6.527-.991-1.692-.9.79-1.487-1.128-.6 1.317-2.477-1.693-.9 1.317-2.478-1.128-.6.527-.991 1.128.6c1.374-1.207 1.374-1.207 1.581-2.973l-1.693-.9 1.882-2.177-1.129-.6.791-1.487-2.183 1.382-.865-1.095.527-.991-1.128-.6-1.318 2.477-1.692-.9.79-1.486-1.128-.601 1.844-3.468-1.693-.9.79-1.487-1.128-.6.527-.991 1.606.298c1.746.384 1.746.384 2.833-.479l-1.128-.601-1.091.691 1.844-3.468-1.129-.6-.338-2.087-1.993-1.695 2.371-4.46-1.129-.6-.338-2.086-.601-1.591.926-.977c1.252-1.574.975-2.568.58-4.578l-1.656.391c-.053-1.848.962-2.625 2.108-3.964l-.865-1.096.79-1.486-1.128-.601-1.091.691.79-1.486-1.693-.9 1.355-1.187 1.128.6 1.054-1.982-1.128-.6 1.317-2.477-1.129-.6-1.091.691c.231-2.304 1.48-3.709 2.898-5.451l-1.128-.6.79-1.486-1.128-.6-.791 1.486-.865-1.095c1.147-2.261 2.206-4.288 3.99-6.142l-1.129-.6.49-2.282-1.919.887c.237-1.876.798-3.001 1.689-4.624l.809-1.484.626-1.129-1.956-.405-.791 1.487-1.128-.6 1.054-1.982-3.085-1.005 1.317-2.478 1.693.9.226-1.786-.865-1.096-.527.991-1.693-.9 2.71-2.373-2.521-.704.527-.991-1.429-1.396 2.408-3.168 2.822 1.5.79-1.487-2.821-1.5.79-1.486-3.085-1.005 1.054-1.982 1.129.6 1.054-1.982c2.976.868 2.976.868 3.949 2.1l-1.844 3.469 1.129.6c.641 1.697.612 2.296.112 3.873l-.828.195.865 1.096-1.054 1.982.338 2.087 2.672-3.664-1.128-.6 1.28-3.769-1.129-.6 3.689-6.937-1.129-.6 1.017-3.273-1.129-.6c.322-2.54 1.643-4.408 2.892-6.581.765-1.659.881-2.882.948-4.725l1.054-1.982-1.129-.6c1.181-3.475 2.646-6.795 4.129-10.141a80.857 80.857 0 002.346-6.119l-1.693-.9.527-.991 1.129.6 1.354-1.187-1.693-.9 4.743-8.919 1.693.9.527-.991-1.693-.9.79-1.486 1.693.9c1.833-1.008 2.818-2.11 3.918-3.796l.84-1.272.623-.969.564.3.921-1.529c.405-.661.811-1.322 1.218-1.982l.604-1.008c1.085-1.753 1.696-2.578 3.692-3.5a49.08 49.08 0 002.145-2.673l1.129.6 2.935-4.16 1.129.6 1.317-2.477 1.392.104 1.844-3.468.865 1.096 3.162-5.947c8.427 3.21 8.427 3.21 11.285 6l.527-.99 1.693.9-.527.99c.559.298 1.117.595 1.693.9l-.791 1.487-5.906-2.504-.263.495 5.642 3-.79 1.487-4.514-2.4-.79 1.486 1.956.405-1.318 2.477-2.257-1.2.339 2.087c-.614 1.662-1.358 3.241-2.102 4.846l-.496 1.4.865 1.095-1.844 3.469 1.129.6-.563 1.568-.454 1.705.865 1.095-1.317 2.478 1.128.6-.299 1.073-.19 1.209.865 1.096-1.054 1.982 1.128.6-.298 1.072-.191 1.21.865 1.095-1.054 1.982 1.129.6-.056 1.2-.056 1.562-.062 1.553c-.081 1.37-.081 1.37.924 2.44l-1.317 2.478 1.129.6.338 2.086.564.3-1.317 2.478 1.128.6-1.054 1.982 1.693.9-1.054 1.982 1.129.6c.914 1.802.951 2.894.413 4.669l1.392.104-1.318 2.478.865 1.095c.174 1.738.002 3.227-.415 4.864l1.129.6-.791 1.487 1.129.6-.49 2.282 1.129.6-.226 1.786.865 1.096-1.054 1.982 1.128.6-.43 1.32-.323 1.458.865 1.095-.79 1.487 1.956.404-1.054 1.982.866 1.096-.152 4.368.865 1.096c-.106 1.399-.35 2.746-.584 4.119-.251 1.275-.251 1.275.771 2.336l-1.054 1.982 1.956.404-1.054 1.983.865 1.095-1.054 1.982 1.129.6-.753 2.778 1.128.6-.298 1.072-.191 1.21.865 1.095.112 3.873.865 1.096-1.317 2.477 1.128.6.075 2.582.564.3-.179 1.134-.214 1.478-.221 1.469c-.219 1.31-.219 1.31.801 2.375l-1.318 2.477 1.129.6-.299 1.073-.191 1.209.865 1.096c-.064 1.279-.064 1.279-.285 2.748l-.214 1.477-.179 1.134 1.128.6c-.235 1.98-.487 3.929-.941 5.855l1.128.6-1.581 2.973 1.693.9-1.581 2.973 1.129.6-.562 1.568-.455 1.705.865 1.096-1.844 3.468 1.129.601-.426 1.002-.532 1.309-.538 1.3-.311 1.148.865 1.096c-.379 1.228-.379 1.228-1 2.646-.887 1.63-.887 1.63-.77 3.404-.793 1.881-1.655 3.725-2.514 5.575l-.61 1.662.865 1.096a1542.677 1542.677 0 01-4.045 7.757c-.46.878-.918 1.758-1.374 2.639a593.175 593.175 0 01-1.984 3.792c-.302.591-.302.591-.612 1.193-1.024 1.929-1.854 3.316-3.915 4.334-.783.915-.783.915-1.421 1.906-1.251 1.758-1.251 1.758-2.079 1.954a42.53 42.53 0 00-1.52 2.092l-.802 1.164-.613.903-.866-1.095-1.218 1.695a51.034 51.034 0 01-3.335 4.146l3.686 2.596-.226 1.786-2.821-1.5-.527.991 3.95 2.1.527-.991 1.692.9-1.317 2.478a214.99 214.99 0 01-3.047-1.501l-1.714-.844c-1.446-.955-1.446-.955-2.094-2.261l-.254-1.081c-.642 1.208-.606 2.706-.716 4.069l.489 1.292.414 1.094-1.054 1.982 1.128.6c.555 1.169.555 1.169.903 2.387l-.527.991 1.128.6.49-2.282-1.129-.6 1.318-2.478 2.821 1.5-1.844 3.469 2.557 1.995-.526.991-3.649-1.304.865 1.095-.527.991 1.692.9-.527.991c2.398.564 2.398.564 4.44-.181l2.558 1.995-.527.991-1.392-.104 1.429 1.395-.527.991 6.207 3.3.037 1.291c.947.8.947.8 2.128 1.529l2.123 1.367-.527.991 1.03.503c2.664 1.349 4.402 2.46 6.343 4.688 1.033.694 2.068 1.386 3.111 2.067 1.262.919 2.287 1.91 3.372 3.01 2.221 2.224 3.754 3.324 6.917 3.836l1.872.479c.82 1.35.82 1.35 1.466 2.686 1.304.555 1.304.555 2.521.705l-.49 2.282 1.107.705 1.458.937 1.443.923c1.371.931 1.371.931 2.433 1.895.979.92.979.92 2.703.719 1.841.026 1.841.026 3.343.944 1.055 1.078 1.055 1.078 1.093 2.369.97.93.97.93 1.993 1.695l-.527.991 1.66.999 2.14 1.299 2.137 1.293c1.7 1.105 1.7 1.105 2 1.9.93.52 1.87 1.022 2.822 1.5l1.354-1.186 1.129.6.527-.991 2.821 1.5.79-1.486 1.693.9-1.581 2.973 1.129.6-.791 1.486 1.639.832c1.747.968 1.747.968 2.612 2.064l.527-.991 1.128.6-5.796 10.901c-2.722-.887-5.012-1.954-7.509-3.318l-1.181-.636a981.588 981.588 0 01-2.858-1.551l.527-.991 2.219-.091.527-.991-1.191-.45c-3.701-1.468-5.986-2.836-8.438-5.941l-.527.991c-4.415-1.769-8.577-3.846-12.764-6.112l-1.795-.963c-1.443-.774-2.885-1.551-4.325-2.33l-.527.991-1.693-.9.527-.991-1.128-.6.79-1.487c4.793 1.892 9.279 4.232 13.805 6.705l.527-.991-6.47-2.805.49-2.282-1.129-.6-.527.991c-4.562-1.029-8.287-2.986-12.409-5.247l-1.97-1.065a954.428 954.428 0 01-4.768-2.597l.79-1.487 12.414 6.601c-1.713-2.169-2.369-2.664-4.782-3.854-2.136-1.06-3.85-2.171-5.713-3.633-.956-.362-1.914-.721-2.878-1.059-3-1.227-5.826-2.89-8.67-4.446l-.527.991-1.129-.6.527-.991-1.693-.9-.527.991-1.128-.6.79-1.487 1.129.6.527-.991c4.669 1.768 4.669 1.768 5.642 3l.527-.991-3.423-3.091-.527.991-11.849-6.3-1.054 1.982-1.128-.6.527-.991-4.514-2.4.79-1.487 2.821 1.5.527-.991 3.386 1.8 1.618-1.682-2.257-1.2-.527.991a104.756 104.756 0 01-11.022-6.496l.527-.991 1.129.6.79-1.486-2.088-.753c-2.775-1.096-5.089-2.623-7.504-4.347l-.791 1.486-1.692-.9.79-1.487-1.693-.9 1.318-2.477-1.383-.378c-1.78-.655-2.84-1.4-4.26-2.622l.527-.991 5.342 2.204c-1.764-2.309-1.764-2.309-4.251-2.895-2.257-1.2-2.257-1.2-3.122-2.296l.79-1.486-3.949-2.101.226-1.786-1.392-.105-.189 3.078-2.257-1.2.527-.991-1.693-.9-.79 1.486-2.821-1.5c1.053-1.982 1.053-1.982 2.361-2.399l1.176-.169-3.649-1.305.526-.991 2.521.705-3.386-1.8-.79 1.486a730.736 730.736 0 01-3.745-1.634l-2.107-.919c-1.747-.852-1.747-.852-2.612-1.947l-1.354 1.186-1.129-.6-1.844 3.469-1.129-.6-1.317 2.477-1.693-.9 1.318-2.477-1.129-.6.527-.991 2.257 1.2 2.898-5.451-1.813 1.539c-1.813 1.538-1.813 1.538-3.379 1.421a54.128 54.128 0 00-2.409 3.168l-1.128-.6c-.59 1.575-.59 1.575-1.017 3.273l.865 1.096-.79 1.486-2.257-1.2.226-1.786-1.882 2.177-1.128-.6-1.318 2.477-1.956-.404-1.317 2.477-1.129-.6c-.589 1.575-.589 1.575-1.016 3.273l.865 1.096-.79 1.486-2.822-1.5 1.882-2.177-1.129-.6-.79 1.486-1.693-.9-.708.736-2.528 2.628-1.693-.9-1.054 1.982-1.128-.6-.791 1.487a55.113 55.113 0 01-3.31.782l-1.924.725-1.651.552-1.128-.6-.791 1.486 1.585-.428c1.726-.353 1.726-.353 2.855.247l-.527.991-1.129-.6-1.317 2.477 2.257 1.2-1.317 2.478-1.129-.6-.527.991-1.692-.901-2.108 3.964-1.129-.6.791-1.486a201.654 201.654 0 00-3.311-1.601l-1.862-.901c-2.207-.715-3.133-.448-5.173.179-1.467-.303-1.467-.303-2.52-.704l-1.618 1.682-1.129-.6-.79 1.486 2.821 1.5-.79 1.487-3.687-2.596.527-.991-1.692-.9-1.318 2.477 2.822 1.501-.791 1.486-9.028-4.8-1.091.691 5.078 2.7-.79 1.486-1.129-.6-.527.991-1.692-.9.527-.991-2.822-1.5.527-.991-1.655.391-.527.991 1.128.6-.79 1.487-1.129-.6-1.317 2.477-1.693-.9-.527.991-3.949-2.1.527-.991-7.336-3.9c2.374 2.227 2.374 2.227 5.116 3.991l-.791 1.486-1.128-.6-1.882 2.178-1.128-.6-.791 1.486-5.379-3.495-.79 1.486-2.821-1.5-.527.991-1.693-.9-.79 1.486-1.129-.6-.79 1.487-4.514-2.4-.527.991-4.514-2.4-.791 1.486-5.642-3-1.317 2.477-8.464-4.5-1.318 2.478-4.514-2.401c-.174.327-.347.655-.527.991l-1.128-.6.527-.991-4.514-2.4.527-.991-2.558-1.995 1.054-1.982 2.821 1.5.527-.991c-.916-.292-1.833-.58-2.751-.867l-1.547-.488c-1.243-.443-1.243-.443-2.135-.159a54.193 54.193 0 01-2.591-1.338l-1.405-.765-1.082-.597-.527.991-1.321-.447-1.712-.57-1.706-.572c-1.345-.517-1.345-.517-2.258-.225-1.2-.489-2.388-1.007-3.569-1.54l-1.956-.879-1.51-.686-1.355 1.187 2.22-.091c1.698.779 1.698.779 3.524 1.794l1.844 1.015 1.403.791-.263.496-5.079-2.7-.79 1.486 5.078 2.7-1.317 2.478-5.643-3 .527-.991-1.692-.901-.527.991-2.257-1.2.527-.991-1.693-.9-1.317 2.478-1.693-.9-.527.991-3.95-2.1 1.317-2.478 1.129.6.527-.991-3.686-2.595-1.581 2.973a28876.02 28876.02 0 00-8.464-4.501l.79-1.486-1.692-.9.526-.991 3.95 2.1-.527.991 1.693.9.527-.991c1.948-.46 2.253-.25 4.096.644l1.409.674 1.464.719 1.483.714c1.21.583 2.417 1.173 3.624 1.763l.526-.991 2.822 1.5.527-.991-4.477-1.109-.264.495-2.058-1-2.695-1.289-1.354-.66c-2.336-1.111-3.991-1.755-6.532-1.865-1.506-.676-1.506-.676-2.996-1.513l-1.51-.838-1.137-.649-.527.991-1.603-.814a1622.3 1622.3 0 00-5.892-2.969c-.85-.428-1.7-.858-2.549-1.29a738.127 738.127 0 00-3.665-1.844l-2.228-1.124c-1.794-.952-1.794-.952-3.474-.373l1.43 1.396c.174-.328.347-.655.527-.991l8.463 4.5-.263.495-5.643-3-.79 1.487 16.928 9-.791 1.487 1.693.9.79-1.487 1.693.9-1.317 2.478-11.849-6.301.527-.991-1.129-.6-.527.991-1.693-.9.527-.991-6.771-3.6-.527.991-4.514-2.4.527-.991-5.642-3-1.318 2.477-5.642-3-.527.991-2.822-1.5.528-.991-3.386-1.8-1.317 2.477-6.771-3.6-.527.991 3.686 2.596-1.054 1.982-2.821-1.5.527-.991-1.145-.587c-4.972-2.586-4.972-2.586-7.056-4.409l-.79 1.486-1.693-.9.79-1.486c-.576-1.682-.576-1.682-1.767-3.482l-.527.991-1.128-.6 2.634-4.955 2.257 1.2-.79 1.486 1.129.6 1.543-4.264 1.43 1.396 1.09-.691 1.129.6 1.054-1.982 1.392.104 1.354-1.186 1.129.6 1.317-2.478 1.392.105 1.023-.648c1.191-.754 2.202-1.051 3.643-1.32l-4.25-2.896.526-.991c.885.347 1.77.699 2.652 1.053l1.492.592 1.198.56c.1.262.198.525.3.795l1.92-.886-2.257-1.2.526-.991 1.129.6.79-1.487 1.693.9.527-.991 1.392.105c.901-.808.901-.808 1.618-1.682l-1.693-.9-.527.991-2.82-1.5c-.262.49-.522.981-.791 1.486l-1.693-.9-.527.991-1.128-.6-.79 1.486-1.694-.9-.526.991-2.822-1.5 1.318-2.477-1.129-.6-.79 1.486-1.693-.9.79-1.486-2.821-1.5-.79 1.486-1.693-.9.527-.991-5.38-3.496 2.484-.586-2.257-1.2-.527.991-2.52-.705c1.133 1.839 1.963 2.603 3.723 3.887l-.527.991-9.291-4.305.526-.991 2.822 1.5.79-1.486-3.649-1.305-.527.991-3.649-1.305 5.98 5.087-.526.991 3.386 1.8-.79 1.487-9.029-4.8-1.317 2.477-3.95-2.1-.527.991-5.906-2.505-.527.991-4.514-2.4.527-.991-1.129-.6-1.844 3.468-1.693-.9.527-.991-3.686-2.595-.79 1.486 2.257 1.2-.79 1.487-7.9-4.2-.527.991 3.95 2.1-1.318 2.477-1.693-.9-.79 1.487-2.821-1.5-1.317 2.477-5.643-3-.527.991 1.693.9-.79 1.486-4.515-2.4-.526.991 1.692.9-.79 1.487-4.514-2.4-.527.991-1.43-1.396 1.355-1.186c1.345.278 1.345.278 2.52.704l.49-2.282 1.129.6.79-1.486 1.129.6-.79 1.486 1.692.9.79-1.486-1.429-1.396 1.091-.691 1.129.6.527-.991 1.392.105 1.354-1.187-1.128-.6-.527.991c-1.204.393-1.204.393-2.483.587l-1.129-.6-.79 1.486c-1.55.447-1.55.447-3.31.782-1.878.369-2.43.539-3.839 1.773l-1.128-.6-.79 1.487A49459.5 49459.5 0 00.984 259.6l1.618-1.682c.63-.723 1.259-1.448 1.881-2.177l1.129.6.575-.928c3.704-5.716 3.704-5.716 6.989-6.491.82-1.043 1.624-2.099 2.408-3.169l1.129.6 2.408-3.168 1.129.6 1.844-3.469 1.128.601 2.145-2.673 1.129.6 1.844-3.469 1.129.6.955-.999 1.253-1.283 1.242-1.283c1.14-.985 1.14-.985 2.532-.881.902-.807.902-.807 1.618-1.682l1.129.6 1.317-2.477 1.392.104c.902-.807.902-.807 1.618-1.682l1.129.6 1.317-2.477 1.392.104c.902-.807.902-.807 1.618-1.682l1.129.6 1.881-2.177 1.129.6 1.054-1.982 1.128.6 4.064-3.559 1.693.9-.087-1.198c.012-1.384.012-1.384.803-2.871l1.128.6-.79 1.487 1.128.6.79-1.487c1.221-.423 1.221-.423 2.484-.586l1.128.6 1.054-1.982 1.392.104L70.444 212l1.128.6 1.054-1.982c1.237-.455 1.237-.455 2.483-.587l1.129.6.79-1.486c1.22-.424 1.22-.424 2.483-.586l1.129.6.868-.612c1.555-.912 3.111-1.516 4.889-2.048l1.128.6.79-1.486c1.098-.278 2.202-.538 3.311-.782l1.355-1.187c1.256-.405 1.256-.405 2.483-.586l1.129.6.79-1.487 1.693.9.527-.991 1.128.601.527-.991-3.649-1.305-.527.991-1.128-.6-1.355 1.186-1.128-.6-1.882 2.178-2.257-1.2.79-1.487 1.129.6 1.317-2.477 3.085 1.004 1.618-1.682 2.52.705 1.054-1.982 4.514 2.4-.527.991-2.821-1.5-1.054 1.982c1.717 1.128 1.717 1.128 3.713.504 1.175-.322 2.348-.649 3.513-.992 1.089-.176 1.089-.176 2.782.724l.527-.991 1.692.9.527-.991 1.129.6.527-.991 3.084 1.005 1.355-1.187 1.129.601c.173-.327.347-.655.527-.991l2.52.704.527-.991 1.693.9.527-.991 2.821 1.5 1.355-1.186 1.128.6.527-.991 2.821 1.5 1.355-1.187 2.257 1.201.226-1.787 3.085 1.005.263-.496 3.085 1.005.527-.991 3.385 1.8.527-.991-.865-1.096 2.521.705-.527.991 1.956.404-.037-1.291 4.514 2.401.527-.991c4.458.463 4.458.463 6.997 1.813l.226-1.786c2.129.595 3.494 1.153 5.078 2.7l1.091-.691c1.893.609 1.893.609 3.649 1.305l-.037-1.291 4.778 1.904.263-.495 6.47 2.804-1.165-1.891 1.918-.886 1.43 1.395-.791 1.487 4.477 1.109.264-.495 6.771 3.6.527-.991-1.994-1.696c2.778.777 5.071 2.012 7.599 3.405l.263-.496 5.906 2.505-1.166-1.891c2.779.777 5.071 2.012 7.599 3.405l.264-.496 10.72 5.701.527-.991-1.349-.557c-3.988-1.693-7.528-3.549-11.064-6.044 1.054-1.982 1.054-1.982 2.361-2.399l1.176-.169-1.693-.9-.527.991-1.128-.6.526-.991-1.692-.9-.527.991-1.693-.9.527-.991-1.129-.6-.526.991c-2.172-1.112-4.158-2.141-6.128-3.576-2.638-1.807-5.392-3.253-8.228-4.733l-1.662-.875c-1.343-.706-2.687-1.411-4.032-2.113l-.527.991 2.026.742c3.041 1.213 5.763 2.837 8.561 4.53l1.527.913c1.231.736 2.459 1.474 3.685 2.216l-.527.991-3.95-2.1-.79 1.486-12.978-6.9 1.317-2.478-1.692-.9.79-1.486 1.693.9.79-1.487 1.129.6.527-.991 4.514 2.401-.527.991 5.906 2.504-.527.991 1.392.105-.038-1.291c-1.594-1.147-1.594-1.147-3.538-2.279l-1.988-1.201-1.545-.916.263-.495c-2.554-1.523-4.5-2.457-7.394-2.939-4.959-1.012-9.21-4.169-13.446-6.871l-.79 1.486-4.514-2.4.79-1.486 3.385 1.8.527-.991 3.649 1.304.527-.991-.865-1.095.527-.991-1.58.106c-2.365-.139-3.549-.728-5.643-1.921l-1.805-1.012-1.355-.787-.527.991-1.692-.9.527-.991-1.129-.6.791-1.487 2.821 1.501.527-.991a28876.02 28876.02 0 00-8.464-4.501l-.527.991-1.693-.9.527-.991-1.693-.9-.527.991-1.128-.6 1.317-2.477 3.95 2.1.527-.991-11.285-6.001-.527.991-1.129-.6 1.845-3.468-4.514-2.4-.527.991-1.693-.9.527-.991-1.129-.6.791-1.487 1.128.6.527-.991-3.95-2.1-.527.991-1.692-.9 1.844-3.469-3.95-2.1-.527.991-1.693-.9.527-.991-1.128-.6-.527.991-1.693-.9.791-1.486 1.692.9.527-.991 1.129.6.527-.991-1.43-1.396.527-.991-1.128-.6-.527.991-1.129-.6-.79 1.487-1.693-.901 1.318-2.477 1.692.9.527-.991-5.943-3.796 1.844-3.468c-2.422-2.287-4.863-4.142-7.673-5.987l.527-.991 1.392.105-.734-1.94-1.071-2.834a89.551 89.551 0 00-2.991-1.947l-1.663-1.046-1.29-.802.527-.991 1.129.6c.128-2.364-.584-4.284-1.579-6.56l-1.429-1.395-.527.991-1.128-.601.79-1.486 1.128.6-.037-1.291-6.207-3.3.791-1.487-1.693-.9.527-.99-1.129-.6.791-1.487-1.693-.9 1.317-2.478 1.129.6.527-.99-5.643-3.001.791-1.486c.558.296 1.117.593 1.692.9l1.581-2.974-1.074-1.127c-1.22-1.364-1.22-1.364-2.386-3.255l-1.317 2.478-1.129-.6.79-1.487-1.692-.9c.174-.327.347-.654.527-.99l-1.129-.6 2.108-3.965-2.821-1.5 1.317-2.477-1.354-.601c-1.467-.9-1.467-.9-2.128-2.125-.242-1.161-.242-1.161.285-2.152l-1.128-.6c-.555-1.169-.555-1.169-.903-2.387l.527-.99-1.128-.6.79-1.487-1.693-.9 1.318-2.478-1.693-.9 1.317-2.477-1.128-.6.526-.991-1.692-.9.79-1.487-1.128-.6 1.317-2.477-2.821-1.5 1.844-3.469 1.128.6.79-1.487-3.949-2.1 1.317-2.477-1.692-.9.79-1.487-1.129-.6 1.318-2.477-1.693-.9 1.317-2.478 1.129.6c.257-2.185.316-2.87-.977-4.968l-.193 1.128-.297 1.154c-.828.195-.828.195-2.29-.543l-1.359-.762 1.581-2.973-1.128-.6.49-2.282-1.13-.6.79-1.487-1.128-.6 1.318-2.477 1.128.6c-.174.327-.347.654-.527.99l1.957.405 1.354-1.186-4.815-3.196.527-.99c-.372-.199-.744-.397-1.128-.6zm2.257 1.2l1.693.9.79-1.486-1.693-.9-.79 1.486zm3.99-6.141l4.212 1.605.527-.991-4.213-1.605-.527.99zm-2.864 16.274l1.129.6 1.317-2.477-1.129-.6.49-2.283c-.893 1.559-1.511 2.964-1.807 4.76zm2.404 15.897l3.386 1.8.226-1.787-1.128-.6.526-.99c-.744-.397-1.49-.793-2.257-1.2-.641 1.063-.641 1.063-.753 2.777zM98.058 43c-.634 1.632-.634 1.632-1.016 3.273l1.129.6-.79 1.486 1.692.9-.527.991 1.128.6-.79 1.487 1.693.9 1.317-2.478-1.693-.9 1.618-1.682-1.128-.6.226-1.786a54.04 54.04 0 00-1.203-3.182l-1.656.39zm1.201 12.714l1.693.9 1.618-1.682-2.52-.704-.79 1.486zm1.504 3.978l1.129.6-.226 1.786 1.128.6-1.053 1.983c.256 1.275.256 1.275.902 2.386l1.128.6-.79 1.487 1.693.9-.527.99c.558.298 1.117.595 1.693.9l.79-1.486-.896-.953c-.834-1.238-.834-1.238-.608-2.429l.264-1.09-1.43-1.396.452-3.573-1.429-1.396-.037-1.291-1.392-.105-.791 1.487zm9.738 29.33l2.52.704-1.993-1.695-.527.99zm-86.38 173.347l4.513 2.401.527-.991-4.514-2.401-.527.991zm2.408-3.168l1.693.9-.038-1.291-1.128-.6-.527.991zm2.22-.091l1.128.6.527-.991-1.128-.6-.527.991zm-.49 2.282l4.514 2.4.527-.991-4.25-2.896-.791 1.487zm2.973-2.868l1.392.104-1.392-.104zm84.044-158.065l1.429 1.395.527-.991-1.956-.404zM32.887 258.133l2.257 1.2.79-1.487 1.13.6-.038-1.291-1.392-.104-.527.991-1.693-.9-.527.991zm3.65 1.304l1.692.9.527-.991-1.693-.9-.527.991zm2.445-1.877l1.392.104-1.392-.104zm1.655-.391l1.392.104-1.392-.104zm3.048-.287l1.392.105-1.392-.105zm.375 3.378l1.129.6.527-.991-1.129-.6-.527.991zm6.585-2.855l2.257 1.2-.602-1.591-1.655.391zm1.504 3.978l2.82 1.5c.262-.491.523-.981.791-1.487l-2.821-1.5-.79 1.487zm2.972-2.869l3.987 3.391 1.054-1.982 2.822 1.5.79-1.486-3.649-1.305-.527.991-4.213-1.604-.264.495zm5.68 4.291l3.95 2.101.79-1.487-3.95-2.1-.79 1.486zm21.407.577l4.25 2.896.79-1.486 2.521.704.527-.991c-1.32-.807-1.32-.807-2.821-1.5l-1.656.391c-1.645-.478-1.645-.478-3.084-1.005l-.527.991zm62.816-114.056l1.956.405-1.429-1.396-.527.991zm-57.7 118.048l6.206 3.3.527-.991-1.97-1.485-1.108-.835c-1.379-.822-1.379-.822-3.656.011zm4.364-2.764l1.392.104-1.392-.104zm60.219-107.81l3.95 2.1.527-.991-3.95-2.1-.527.991zm-56.87 108.319l2.256 1.2.527-.991-2.52-.705-.264.496zm-.49 2.282l1.429 1.395.79-1.486-1.692-.9-.527.991zm-2.334 5.75l1.128.6.79-1.486-1.128-.6-.79 1.486zm61.461-112.869l1.956.404-1.429-1.395-.527.991zm-55.29 105.346l1.957.404-1.43-1.395-.526.991zm2.484-.587l1.392.105-1.392-.105zm-14.943 30.826l2.257 1.2.527-.991-2.257-1.2-.527.991zm15.882-27.148l3.085 1.005.527-.991-2.821-1.5-.791 1.486zm56.344-107.328c.204 1.141.204 1.141.902 2.387 1.698 1.061 1.698 1.061 3.386 1.8l-.037-1.291-2.257-1.2.526-.991-2.52-.705zm-53.107 103.964l1.128.6-.527.991 2.257 1.2.527-.991-3.122-2.295-.263.495zm-15.507 30.526l3.95 2.1.526-.991 2.822 1.5 1.09-.691c1.461.061 1.461.061 2.785.209-2.66-1.636-4.538-2.042-7.562-2.114l-.527.991-2.82-1.5-.264.496zm17.726-30.617l1.957.405-1.693-.9-.264.495zm-6.022 12.688l1.693.9 1.1-.964 1.346-.914 1.956.405 1.223-.939 1.223-.939 1.956.405.527-.991 1.128.6.791-1.487 1.956.405.79-1.486 1.129.6c1.287-.124 1.287-.124 2.483-.587l.79-1.486 1.129.6.527-.991-1.693-.9-1.453.776c-3.372.796-6-.987-9.156-2.604l-1.317 2.478-1.129-.6-1.317 2.477 1.129.6-1.845 3.469-1.107-.47c-1.525-.403-1.525-.403-2.794.66l-1.065.983zm12.418-12.465l5.342 2.204.527-.991c-1.433-1.196-1.433-1.196-3.123-2.295l-2.219.091-.527.991zm-.49 2.282l5.643 3 .527-.991-5.643-3-.527.991zm53.031-97.014l2.821 1.5.527-.991-2.257-1.2.527-.991-1.129-.6c-.63.983-.63.983-.489 2.282zm-47.274 94.354l1.128.6.527-.991-1.128-.6-.527.991zm89.05-167.479l.865 1.096.527-.991-1.392-.105zM101.048 300.095l1.693.9.527-.991 1.692.9.527-.991 1.176.67 1.542.854 1.529.858c1.438.795 1.438.795 3.051.227l-9.028-4.8-2.709 2.373zm107.831-200.078l3.385 1.8-.601-1.591c-1.274-.475-1.274-.475-2.521-.705l-.263.496zM104.433 301.895l1.129.6.527-.991-1.129-.6-.527.991zm21.115-38.349l1.392.104-1.392-.104zm-2.598 6.246l1.129.6-.527.991 1.129.6.79-1.487 1.956.405c-1.452-1.366-1.906-1.678-3.95-2.1l-.527.991zm1.318-2.478l3.95 2.1-.527.991 1.128.6.79-1.486 1.693.9.527-.991 1.129.6.79-1.487 1.693.9 2.446-1.877 1.692.9.791-1.486 1.128.6.527-.991 1.693.9.527-.991 1.128.6c1.292-.161 1.292-.161 2.484-.587l.527-.991 1.535.26c1.888.313 1.888.313 4.032.158l.527-.991 1.129.6.527-.991 1.535.261c1.888.312 1.888.312 4.033.158l.527-.991 1.128.6.527-.991 1.693.9a86.13 86.13 0 004.138-.978l1.392.105.527-.991 1.693.9.527-.991 1.693.9c1.11-.244 2.213-.505 3.311-.782l1.956.405.79-1.487 1.693.9.527-.991 3.085 1.005.527-.991 5.567.418-.865-1.096.527-.991 1.371 1.166c1.642 1.285 1.642 1.285 3.313 1.086l1.486-.242c1.45.334 1.45.334 2.52.704l.527-.991 1.474.546 1.611.459 1.091-.691c1.286.048 1.286.048 2.784.209l1.566.117 1.218.092.263-.496 3.085 1.005.527-.991 2.821 1.5.791-1.486 3.95 2.1-.865-1.096.526-.991 3.687 2.596 1.091-.691-1.693-.9 1.054-1.982 1.693.9-.791 1.486 3.386 1.8-.865-1.095.527-.991 3.686 2.596.49-2.282 4.815 3.195 1.091-.691 3.385 1.8 1.091-.691-1.128-.6.527-.991 4.815 3.196 1.091-.691 3.385 1.8 1.092-.691-1.129-.6.527-.991 1.429 1.396c1.306.719 2.622 1.422 3.95 2.1l.527-.991 5.906 2.505-.865-1.096.79-1.487 1.693.901-.527.991 3.95 2.1 1.091-.691 1.156.659 1.527.846 1.509.847c1.546.815 1.546.815 3.67.557l-.3-.796 1.165.642 1.534.833 1.518.83c1.472.79 1.472.79 3.381 1.1l.527-.991 9.028 4.8-.902-2.386c1.241.302 1.241.303 2.521.705l.3.795c.839.491 1.694.954 2.558 1.4l1.42.738 1.101.562.263-.495 4.778 1.904-.866-1.095.527-.991-1.692-.9-.527.991-2.822-1.5.527-.991-1.128-.6.79-1.487-1.693-.9.527-.991-1.128-.6 1.618-1.682c-5.576-4.519-5.576-4.519-12.15-7.096l-.527.991-1.129-.6.791-1.486 1.128.6.527-.991 1.129.6.527-.991-.602-1.591 1.656-.391-2.822-1.5.527-.991-1.956-.405 1.128.6-.489 2.282-3.386-1.8-1.354 1.186-1.129-.6.226-1.786-1.128-.6 1.844-3.469 3.386 1.8.263-.495-1.735-1.161c-1.628-1.197-2.599-2.034-3.681-3.626l-.791 1.487-1.956-.405-.527.991-3.95-2.1.527-.991 1.129.6.79-1.486-1.128-.6c.174-.328.347-.655.527-.991l.893.872 1.1.823 1.656-.391-1.719-1.192c-1.399-.998-2.693-1.964-3.961-3.099l-1.318 2.477-5.642-3 .527-.991 1.128.6.527-.991 1.129.6.527-.991a930.106 930.106 0 00-3.264-1.775l-1.835-.998c-1.673-.914-1.673-.914-3.629-1.231l.791-1.487-5.079-2.7-.79 1.486-2.558-1.995-1.091.691 1.693.9-1.054 1.982-4.514-2.4-1.317 2.477-2.822-1.5-.79 1.487-1.693-.901.527-.991-3.686-2.595 1.054-1.982 3.686 2.595.527-.991 4.777 1.905.226-1.786c-1.555-.987-1.555-.987-3.385-1.801l-1.206.312c-2.018.434-3.347-.826-5.227-1.825-1.701-.459-2.981-.558-4.74-.614-1.134.712-1.134.712-1.618 1.682l1.128.6-.527.991 4.514 2.4-1.317 2.478-1.693-.9.527-.991-1.128-.6-.527.991-1.693-.9.527-.991c-2.611-1.868-2.611-1.868-5.379-3.496l-.791 1.486 4.515 2.401-.791 1.486-1.693-.9-.527.991-1.128-.6.527-.991-1.693-.9-1.844 3.468-1.129-.6-.79 1.487-1.693-.9-.527.991-1.693-.9.527-.991-2.821-1.5 1.317-2.478-1.128-.6-.037-1.291c-.691 1.299-1.012 2.328-1.28 3.769l-2.822-1.5-.037-1.291c-1.78-.131-1.78-.131-3.612-.014l-.79 1.486-1.693-.9-.79 1.487 2.257 1.2 8.464 4.5-.791 1.487-2.821-1.5-.527.991-1.693-.9-.79 1.486-1.129-.6-.526.991-1.693-.9.527-.991-3.95-2.1-1.882 2.177-2.257-1.2-.79 1.487 2.821 1.5-.527.991-2.821-1.5-.79 1.486 2.821 1.5-.527.991-2.102-1.236c-1.881-1.032-1.881-1.032-3.936-1.021l-.959.444 3.385 1.8-.527.991-3.335-1.836c-1.271-.666-1.271-.666-3.135-.969l-.527.991 1.693.9-.527.991-1.693-.9-2.107 3.964 1.692.9-1.317 2.478-1.693-.9-1.317 2.477-2.821-1.5-1.318 2.478-1.128-.601.527-.991-3.122-2.295-1.355 1.186 2.257 1.2-1.317 2.478-1.129-.6-.79 1.486-1.693-.9-.527.991-1.693-.9.527-.991c-1.452-1.366-1.906-1.677-3.949-2.1l.79-1.486 1.128.6c1.292-.161 1.292-.161 2.484-.587l.527-.991 1.128.6.753-2.777-1.128-.6c-1.942.79-1.942.79-3.274 2.073l-1.128-.6-.791 1.486-1.956-.404-.79 1.486-1.129-.6-.79 1.486-1.957-.404-.79 1.486-1.129-.6-.79 1.487-1.956-.405-.226 1.787 3.348.509-.075-2.582 1.693.9-.527.991 1.129.6-.791 1.487 4.778 1.904c-.722.848-.722.848-1.618 1.682l-1.392-.104-.527.991-1.129-.6-1.091.691-2.821-1.501-1.054 1.982-6.771-3.6-.791 1.487-1.128-.6-1.091.691-.865-1.096 2.219-.091.791-1.486 1.956.404.527-.991 2.52.705.527-.991 1.392.104-.074-2.582-1.392-.104-.527.991-1.129-.6-1.054 1.982-1.956-.405-1.223.939-1.223.939-1.956-.405-.527.991-1.128-.6-.791 1.487-1.956-.405 1.429 1.396.038 1.291-1.392-.105 1.73 2.191-1.123.17-1.487.23-1.468.225c-1.997.34-1.997.34-3.936.834l-.527.991-1.128-.6-1.7.646c-1.897.639-2.472.729-4.395-.073l1.881-2.177-1.692-.9c-2.168.884-2.168.884-3.537 2.568zm49.304-91.367l1.392.104-1.392-.104zm.339 2.086l2.821 1.5-.037-1.291-2.257-1.2-.527.991zm-41.93 87.026l1.692.9.527-.991-1.692-.9-.527.991zm1.317-2.477l1.392.104-1.392-.104zm4.139-.978l1.392.105-1.392-.105zm-.189 3.078l2.257 1.2.79-1.486-2.52-.705-.527.991zm45.502-78.771l3.95 2.1-.038-1.291-1.128-.6.527-.991-2.257-1.2-1.054 1.982zm96.612-165.365l1.692.9-5.269 9.91 3.386 1.8a532.154 532.154 0 002.277-4.113l.662-1.177c.557-1.022 1.052-2.076 1.539-3.134l-.601-1.59c.452-1.414.452-1.414 1.129-2.976l.673-1.573.532-1.202c-.186-.1-.373-.198-.565-.3l-1.317 2.477-1.128-.6 1.881-2.177-2.257-1.2-2.634 4.955zM191.214 190.41l1.392.105-1.392-.105zm82.463-155.09l1.693.9.791-1.487-1.693-.9-.791 1.487zm11.667-19.22l.565.3 1.844-3.469-.564-.3-1.845 3.469zm-57.887 111.592l1.392.104-.865-1.095-.527.991zm1.73 2.191l.866 1.095.526-.991-1.392-.104zm.903 2.386l1.128.6.527-.991-1.128-.6-.527.991zm-54.954 116.966l1.956.404.226-1.786-1.392-.105-.79 1.487zm58.489-110.001l1.128.6.527-.991-1.128-.6-.527.991zM173.63 254.79l2.821 1.5.527-.991-2.558-1.996-.79 1.487zm4.253-6.637l1.128.6.791-1.487 1.128.6c2.327-.641 2.687-.97 3.801-3.064l1.128.6 1.882-2.177 2.257 1.2.527-.991-1.129-.6.226-1.787-1.354 1.187-1.129-.6-.722.847-.896.835-1.392-.105-1.054 1.982-1.128-.6-1.882 2.178-1.128-.6-1.054 1.982zm56.908-107.028l2.52.704-2.52-.704zm-90.482 175.616l1.128.6.527-.991-1.128-.6-.527.991zm94.016-168.652l1.392.104-.865-1.095-.527.991zm62.968-118.425l.865 1.096.527-.991-1.392-.105zM238.927 149.68l.865 1.095.527-.991-1.392-.104zm-46.521 91.577l1.129.6 1.054-1.982 1.692.9 1.054-1.982-1.128-.6-.791 1.486-1.956-.404-1.054 1.982zm.865 1.095l1.392.105-1.392-.105zm-40.498 78.889l1.128.6.527-.991-1.128-.6-.527.991zm44.562-82.448l1.129.6.527-.991 1.956.404.527-.991 2.52.705 2.145-2.673 1.129.6.489-2.282-1.832.893c-2.005.88-2.005.88-3.397.775l-.527.991-1.129-.6-.79 1.487-1.956-.405-.791 1.487zm-.489 2.282l1.692.9.527-.991-1.693-.9-.526.991zM306.332 40.606l1.128.6.527-.99-1.128-.6-.527.99zM218.109 207.89l1.956.404-1.956-.404zm89.125-164.897l1.129.6.226-1.787-1.355 1.187zM206.741 237.438l1.128.6.527-.991-1.128-.6-.527.991zm14.754-27.748l1.392.104-1.392-.104zm87.733-165.002l1.692.9-1.692-.9zm-87.922 168.079l1.693.9.79-1.486-1.693-.9-.79 1.486zm-11.48 25.676l3.949 2.1.527-.991-3.95-2.101-.526.992zm14.49-27.253l1.392.105-1.392-.105zm22.695-41.322l.865 1.095.527-.991-1.392-.104zm-22.884 44.4l1.693.9.79-1.487-1.692-.9-.791 1.487zm3.01-1.578l1.392.105-1.392-.105zM216.9 233.306l1.128.6.79-1.487-1.128-.6-.79 1.487zm31.841-61.247l.037 1.291 1.129.6.79-1.486-1.956-.405zm-21.793 43.709l1.693.9.791-1.487-1.693-.9-.791 1.487zm2.822 1.5l.601 1.591 1.882-2.178-1.693-.9-.79 1.487zm1.317-2.478l4.514 2.4.264-.495-4.515-2.4-.263.495zm84.872-158.26l1.429 1.396.527-.991-1.956-.405zm-92.701 175.707l1.429 1.396.527-.991-1.128-.6 1.618-1.682-1.129-.6-1.317 2.477zm-1.017 3.273l1.693.9.527-.991-1.693-.9-.527.991zm29.018-53.214l1.129.6.527-.991-1.129-.6-.527.991zm65.603-123.38l2.52.705-1.994-1.695-.526.99zm-85.061 161.338l3.385 1.8-1.429-1.395.527-.991 6.771 3.6.263-.495-5.078-2.701.527-.991-3.122-2.295-1.844 3.468zm-4.705 10.21l1.128.6-.037-1.291-1.091.691zm25.329-46.277l1.994 1.696.527-.991-2.521-.705zm65.602-123.38c.917 1.51.917 1.51 2.031 2.987l1.392.105-1.429-1.396.527-.99-2.521-.705zM226.38 234.534l1.693.9.527-.991-1.693-.9-.527.991zm3.199-4.655l3.122 2.296.79-1.487 1.693.9.527-.991-5.869-1.214-.263.496zm35.978-52.691l1.128.6.226-1.787-1.354 1.187zM324.195 72.35l1.429 1.396.527-.99-1.956-.405zM189.113 329.124l6.17 2.01.527-.991 3.159 2.3 1.091.595 1.656-.391c.927.05 1.855.116 2.784.209l.527-.991-4.778-1.904-.527.991-1.608-.975c-2.632-1.417-5.336-1.858-8.21-2.339l-.791 1.486zm69.44-125.152l1.693.9.527-.991-1.693-.9-.527.991zM191.144 332.11l5.643 3 .226-1.786-5.078-2.701-.791 1.487zm58.563-107.419l3.386 1.8.263-.496-3.385-1.8-.264.496zm18.555-30.812l3.122 2.296.189-3.078-1.129-.6-.527.991-1.128-.6-.527.991zm59.843-111.188l.865 1.096.79-1.487-1.128-.6-.527.991zm.902 2.387l1.129.6.527-.991-1.129-.6c-.174.327-.347.654-.527.99zM248.952 237l1.693.9.79-1.486-1.692-.9-.791 1.486zm12.796-18.62l1.956.405c.452-1.005.452-1.005.49-2.282-1.064-1.39-1.064-1.39-2.295-2.491-.926 1.742-.686 2.413-.151 4.368zm-60.559 115.256l5.379 3.496.79-1.487-5.642-3-.527.991zm3.838-1.773c.86.368 1.721.733 2.583 1.096l1.454.616c1.3.56 1.3.56 2.696.597l.791-1.486-2.521-.705-.527.991-3.95-2.1-.526.991zm62.174-107.405l2.521.704-2.521-.704zm-57.623 111.096l3.95 2.101.79-1.487-3.95-2.1-.79 1.486zm4.101-2.268c1.161.849 2.326 1.692 3.494 2.533l1.965 1.425c1.731 1.115 3.037 1.731 4.999 2.238l.263-.496-2.003-1.422-1.127-.8c-1.198-.803-1.198-.803-3.077-1.078l.791-1.486 1.956.404c-1.454-1.416-1.454-1.416-3.386-1.8l-.527.991-2.821-1.5-.527.991zM270.06 227.25l2.257 1.2-1.993-1.696-.264.496zm2.031 2.987c.888.905.888.905 1.994 1.695l1.655-.391-3.386-1.8-.263.496zM221.768 334.41l3.122 2.295.79-1.486-3.386-1.8-.526.991zm53.746-101.082c.26.962.26.962 1.73 1.595l1.392.7 1.091-.691-3.95-2.1-.263.496zm-50.135 101.095l2.257 1.2.527-.991-2.257-1.2-.527.991zm48.778-90.376l1.392.104-1.392-.104zm5.08-6.833l3.386 1.8.263-.495-3.385-1.8-.264.495zm-52.655 100.391l2.558 1.996.791-1.486-2.822-1.501-.527.991zm2.71-2.373l3.122 2.296.527-.991a3207.62 3207.62 0 01-3.122-2.296l-.527.991zm3.047-.286l2.521.705-1.994-1.696-.527.991zm50.622-93.845l2.521.705-1.994-1.696-.527.991zm-49.419 97.027l4.251 2.896.79-1.487-3.686-2.595-1.355 1.186zm52.278-94.236l1.392.105-1.392-.105zm-47.085 91.277l2.52.704-1.429-1.395-1.091.691zm3.047-.287l1.392.105-1.392-.105zm2.784.209l1.129.6-.038-1.291-1.091.691zm.075 2.582l4.25 2.896.791-1.486-4.514-2.401-.527.991zm3.537-2.568l1.392.105-1.392-.105zm68.683-127.303l-.635 2.046.564.3 3.161-5.946c-2.271 1.413-2.271 1.413-3.09 3.6zm-67.517 129.194l1.128.6.527-.991-1.129-.6-.526.991zm1.618-1.682l1.655-.391-1.128-.6-.527.991zm66.429-123.575l1.693.9.527-.991-1.693-.9-.527.991zm-64.51 122.689l1.391.104-1.391-.104zm66.392-124.867l1.129.601.526-.991-1.128-.601-.527.991zm-1.168 7.642l1.693.9.79-1.486-1.693-.9-.79 1.486zm21.077-39.64l1.73 2.191 1.317-2.477-.865-1.096-.527.991-1.128-.6-.527.991zm-82.953 157.374l1.128.6.527-.991-1.128-.6-.527.991zm3.611.013l1.73 2.191.527-.991-1.993-1.695-.264.495zm2.22-.091l1.655-.391-1.128-.6-.527.991zm40.046-75.316l1.957.405-1.43-1.396-.527.991zm-3.012 11.11l2.784.209-2.257-1.2-.527.991zm-32.632 62.733l1.392.105-1.392-.105zm5.267-.377l1.392.105-1.392-.105zm4.44-.182l8.163 3.705c1.469-2.763 2.085-4.059 2.296-7.042l-1.392-.104-.527.991-1.956-.405-.527.991-1.128-.6-.791 1.487-1.693-.9-2.445 1.877zm30.899-55.391l1.957.404-1.957-.404zm5.382-6.037l3.385 1.8.264-.496-3.386-1.8-.263.496zm-3.013 11.11l2.822 1.5.527-.991-2.295-2.491-1.054 1.982zm4.214 1.604l1.956.405-1.956-.405zm26.829-23.234l1.429 1.396.753-2.778-1.128-.6-1.054 1.982zm.112 3.873l1.693.9.527-.991-1.693-.9-.527.991zm-10.991 23.393c1.172 1.484 2.546 2.031 4.251 2.896l.527-.991-4.514-2.4-.264.495zm2.78 19.275l3.649 1.304-.037-1.291-2.822-1.5-.79 1.487zm19.83-15.515l1.128.6.527-.991-1.128-.6-.527.991zm6.503 23.161l3.386 1.8.263-.496-3.385-1.8-.264.496zm2.104 15.101l2.557 1.996.527-.991-2.821-1.501-.263.496zm3.348.509l1.392.105-1.392-.105zm1.504 3.978l5.379 3.495.79-1.486-1.921-.982c-2.029-1.118-2.029-1.118-2.894-2.214l-1.354 1.187zm10.532 8.778l1.956.404-.037-1.291-1.129-.6-.79 1.487zm21.628 17.855l3.686 2.596.527-.991-1.165-1.891-1.957-.405-1.091.691zm18.432 12.979l1.692.9-1.692-.9zm13.09 10.773l1.128.6.527-.991-1.129-.6-.526.991zm18.995 13.278l1.392.105-.865-1.096-.527.991z" fill="#6D9773" fill-opacity=".1"/></svg>